<svg width="93" height="27" viewBox="0 0 93 27" fill="none" xmlns="http://www.w3.org/2000/svg">
<path fill-rule="evenodd" clip-rule="evenodd" d="M27.6444 7.60008C30.0385 7.60008 31.8044 8.08601 32.9422 9.05786C34.0131 9.97254 34.58 11.5276 34.643 13.7231L34.6489 14.1423V25.9112H30.4178L29.8844 23.209L29.6079 23.514C27.8391 25.3966 25.7387 26.3379 23.3067 26.3379C21.6 26.3379 20.2074 25.8875 19.1289 24.9867C18.1223 24.1461 17.5854 22.9956 17.5183 21.5355L17.5111 21.2179V19.4045L17.5185 19.1046C17.5821 17.8256 18.0597 16.8174 18.9511 16.0801C19.8373 15.3471 21.0415 14.9524 22.5639 14.896L22.9511 14.889H29.28V14.1067L29.274 13.8452C29.2377 13.0868 29.0382 12.5636 28.6756 12.2756C28.2726 11.9556 27.5022 11.7956 26.3644 11.7956C24.5484 11.7956 22.2779 11.8764 19.5529 12.038L18.8622 12.0801L18.3644 8.48897L19.3532 8.32008C22.2994 7.84008 25.0631 7.60008 27.6444 7.60008ZM44.1778 0.666748V6.32008L44.1721 6.86351C44.1416 8.2869 43.9895 9.50428 43.7156 10.5156C45.6119 8.57193 47.7215 7.60008 50.0444 7.60008C52.3437 7.60008 54.003 8.31712 55.0222 9.75119C56.0415 11.1853 56.5511 13.5497 56.5511 16.8445C56.5511 18.3142 56.4267 19.5882 56.1778 20.6667C55.9289 21.7453 55.5022 22.729 54.8978 23.6179C54.2933 24.5067 53.4044 25.1823 52.2311 25.6445C51.0578 26.1067 49.6059 26.3379 47.8756 26.3379C46.4296 26.3379 44.8119 26.2193 43.0222 25.9823C41.3953 25.7668 40.0867 25.473 39.0964 25.1008L38.8089 24.9867V0.666748H44.1778ZM78.3488 7.86675L82.209 14.8299H82.5732L86.4699 7.86675H92.0418L86.8341 16.6795L92.4424 26.0001H86.8341L82.5004 18.3841H82.2819L77.9482 26.0001H72.3398L77.9482 16.6795L72.7404 7.86675H78.3488ZM5.47556 0.915637C10.7852 0.915637 14.5185 1.04601 16.6756 1.30675L16.3911 5.32453H7.46667L7.21778 5.33147C6.65778 5.36388 6.24296 5.50971 5.97333 5.76897C5.66519 6.06527 5.51111 6.53341 5.51111 7.17342V11.4401H15.04V15.4579H5.51111V25.9112H0V6.07119L0.00761905 5.73115C0.0736508 4.28081 0.568889 3.13193 1.49333 2.28453C2.48889 1.37193 3.8163 0.915637 5.47556 0.915637ZM71.68 7.60008L71.1467 12.5423H69.6889L69.476 12.5472C68.369 12.5958 66.6267 13.009 64.2489 13.7867V25.9112H58.9156V8.13341H63.0756L63.5378 10.729L63.923 10.4083C66.2324 8.53615 68.5099 7.60008 70.7556 7.60008H71.68ZM47.9111 11.8667C46.9867 11.8667 45.8374 12.3062 44.4633 13.185L44.1422 13.3956V22.0356L44.6516 22.1474C45.6733 22.3506 46.7124 22.4318 47.7689 22.3912C49.0015 22.3438 49.8607 21.9349 50.3467 21.1645C50.8326 20.3942 51.0756 18.966 51.0756 16.8801C51.0756 14.9127 50.8681 13.5853 50.4533 12.8979C50.0385 12.2105 49.1911 11.8667 47.9111 11.8667ZM29.28 18.1245H24.48L24.2733 18.1311C23.34 18.192 22.8422 18.6794 22.78 19.5933L22.7733 19.7956V20.5067L22.7806 20.7179C22.858 21.8097 23.5549 22.3556 24.8711 22.3556C26.1917 22.3556 27.5533 21.8549 28.9556 20.8534L29.28 20.6134V18.1245Z" fill="#212121"/>
</svg>
