<svg width="126" height="47" viewBox="0 0 126 47" fill="none" xmlns="http://www.w3.org/2000/svg">
<rect x="0.5" y="0.5" width="125" height="46" rx="9.5" stroke="white"/>
<path fill-rule="evenodd" clip-rule="evenodd" d="M62.0939 11.437H62.9826V17.6978H62.0939V11.437ZM42.9319 12.5489C42.388 11.9746 41.6152 11.6744 40.8263 11.731H38.671V17.6979H40.8263C42.6037 17.6979 43.6339 16.6021 43.6339 14.6959C43.7334 13.9112 43.4757 13.1232 42.9319 12.5489ZM40.7228 16.854H39.5978V12.5742H40.7228C41.2836 12.5431 41.829 12.7642 42.2098 13.1771C42.5906 13.5901 42.7669 14.1515 42.6906 14.708C42.7729 15.2668 42.5991 15.833 42.2173 16.2493C41.8356 16.6656 41.2866 16.8877 40.7228 16.854ZM44.6808 15.4444C44.6036 14.6372 44.9906 13.8561 45.6795 13.4286C46.3685 13.0011 47.2402 13.0011 47.9291 13.4286C48.6181 13.8561 49.0051 14.6372 48.9279 15.4444C49.0065 16.2523 48.6199 17.035 47.9303 17.4634C47.2408 17.8918 46.3679 17.8918 45.6783 17.4634C44.9888 17.035 44.6021 16.2523 44.6808 15.4444ZM46.8058 13.8975C47.5753 13.8975 48.0138 14.4683 48.0138 15.4444C48.0138 16.4243 47.5753 16.9946 46.8058 16.9947C46.0334 16.9947 45.5988 16.4283 45.5988 15.4444C45.5988 14.4683 46.0333 13.8975 46.8058 13.8975ZM54.5734 17.6978H53.6515L52.7208 14.3814H52.6505L51.7238 17.6978H50.8107L49.5695 13.1948H50.4708L51.2775 16.6308H51.3439L52.2697 13.1948H53.1222L54.048 16.6308H54.1183L54.921 13.1948H55.8097L54.5734 17.6978ZM57.7091 13.1948H56.8537L56.8536 17.6978H57.7423V15.0635C57.7104 14.7638 57.811 14.4652 58.0177 14.2458C58.2243 14.0265 58.5165 13.9084 58.8175 13.9224C59.4747 13.9224 59.7892 14.2822 59.7892 15.0059V17.6977H60.6779V14.7827C60.743 14.3424 60.6044 13.8964 60.3012 13.5706C59.998 13.2448 59.5631 13.0745 59.1193 13.1079C58.5461 13.0613 58.0065 13.3835 57.7755 13.9102H57.7091V13.1948ZM65.2168 13.4285C64.5278 13.8561 64.1407 14.6372 64.2179 15.4444C64.1393 16.2524 64.5261 17.035 65.2156 17.4634C65.9052 17.8918 66.7782 17.8918 67.4677 17.4634C68.1573 17.035 68.544 16.2524 68.4655 15.4444C68.5426 14.6372 68.1555 13.8561 67.4666 13.4285C66.7776 13.001 65.9058 13.001 65.2168 13.4285ZM67.5509 15.4444C67.5509 14.4683 67.1124 13.8975 66.3429 13.8975C65.5704 13.8975 65.1359 14.4683 65.1359 15.4444C65.1359 16.4283 65.5705 16.9947 66.3429 16.9947C67.1124 16.9946 67.5509 16.4243 67.5509 15.4444ZM71.0758 15.0801C70.0045 15.1465 69.401 15.6138 69.401 16.4243C69.4025 16.8087 69.5665 17.1744 69.8525 17.4312C70.1385 17.6879 70.5197 17.8117 70.902 17.772C71.4473 17.7972 71.964 17.5271 72.2545 17.065H72.3248V17.6978H73.1803V14.6211C73.1803 13.6699 72.5436 13.1079 71.4147 13.1079C70.3932 13.1079 69.6657 13.604 69.5748 14.3775H70.4352C70.5338 14.0591 70.8776 13.877 71.3737 13.877C71.9811 13.877 72.2955 14.1455 72.2955 14.6211V15.0098L71.0758 15.0801ZM72.2955 16.0396V15.6631L71.1959 15.7334C70.5758 15.7749 70.2946 15.9859 70.2946 16.3828C70.2946 16.7881 70.6461 17.0239 71.1296 17.0239C71.4157 17.0529 71.7014 16.9645 71.9212 16.7789C72.141 16.5934 72.2761 16.3266 72.2955 16.0396ZM76.2174 13.1201C75.0797 13.1201 74.3483 14.0215 74.3483 15.4444C74.3483 16.8706 75.0719 17.772 76.2174 17.772C76.7982 17.7934 77.3429 17.4907 77.6315 16.9863H77.7018V17.6978H78.5533V11.437H77.6647V13.9101H77.5983C77.3299 13.4015 76.7919 13.0937 76.2174 13.1201ZM75.2663 15.4444C75.2663 16.3994 75.7165 16.9741 76.4694 16.9741C77.2184 16.9741 77.6813 16.3911 77.6813 15.4483C77.6813 14.5098 77.2135 13.9185 76.4694 13.9185C75.7213 13.9185 75.2662 14.4971 75.2662 15.4444H75.2663ZM83.2289 13.4286C82.5399 13.8561 82.1529 14.6372 82.2301 15.4444C82.1514 16.2523 82.5381 17.035 83.2276 17.4634C83.9172 17.8918 84.7901 17.8918 85.4797 17.4634C86.1692 17.035 86.5559 16.2523 86.4772 15.4444C86.5544 14.6372 86.1674 13.8561 85.4784 13.4286C84.7895 13.0011 83.9178 13.0011 83.2289 13.4286ZM85.5631 15.4444C85.5631 14.4683 85.1246 13.8975 84.3551 13.8975C83.5827 13.8975 83.1481 14.4683 83.1481 15.4444C83.1481 16.4283 83.5827 16.9947 84.3551 16.9947C85.1246 16.9946 85.5631 16.4243 85.5631 15.4444ZM88.525 13.1948H87.6696V17.6978H88.5582V15.0635C88.5264 14.7638 88.6269 14.4652 88.8336 14.2458C89.0403 14.0265 89.3324 13.9084 89.6334 13.9224C90.2907 13.9224 90.6051 14.2822 90.6051 15.0059V17.6977H91.4938V14.7827C91.5589 14.3424 91.4203 13.8964 91.1171 13.5706C90.8139 13.2448 90.379 13.0745 89.9352 13.1079C89.362 13.0613 88.8224 13.3835 88.5914 13.9102H88.525V13.1948ZM96.5153 12.0737V13.2153H97.4909V13.9639H96.5153V16.2793C96.5153 16.751 96.7096 16.9575 97.152 16.9575C97.2652 16.9572 97.3784 16.9503 97.4909 16.937V17.6773C97.3313 17.7058 97.1696 17.721 97.0075 17.7227C96.0192 17.7227 95.6256 17.375 95.6256 16.5068V13.9638H94.9108V13.2153H95.6256V12.0737H96.5153ZM99.5856 11.437H98.7047L98.7048 17.6977H99.5934V15.0679C99.566 14.7589 99.6763 14.4535 99.8949 14.2334C100.113 14.0133 100.418 13.9009 100.727 13.9263C101.355 13.9263 101.69 14.2905 101.69 15.0098V17.6978H102.58V14.7905C102.639 14.3525 102.499 13.9111 102.199 13.5864C101.899 13.2618 101.47 13.0878 101.029 13.1118C100.447 13.0646 99.8979 13.3872 99.6559 13.9185H99.5856V11.437ZM107.761 16.4819C107.512 17.3313 106.69 17.8801 105.81 17.7847C105.21 17.8005 104.633 17.5516 104.232 17.1041C103.832 16.6565 103.648 16.0555 103.73 15.4605C103.65 14.8638 103.833 14.2618 104.231 13.8105C104.63 13.3591 105.204 13.1028 105.806 13.1079C107.059 13.1079 107.815 13.9639 107.815 15.3779V15.688H104.635V15.7378C104.607 16.072 104.721 16.4025 104.95 16.6481C105.178 16.8936 105.499 17.0315 105.835 17.0278C106.269 17.08 106.693 16.8643 106.906 16.4819L107.761 16.4819ZM106.91 15.0308H104.635C104.631 14.7203 104.753 14.4213 104.972 14.2017C105.192 13.982 105.491 13.8604 105.801 13.8643C106.108 13.8572 106.403 13.9799 106.614 14.2021C106.825 14.4242 106.932 14.7252 106.91 15.0308ZM77.6793 32.0761C76.0446 32.0761 74.8483 31.2676 74.7106 30.0361L72.8082 30.0361C72.9283 32.2822 74.7877 33.7031 77.5416 33.7031C80.485 33.7031 82.3356 32.248 82.3356 29.9247C82.3356 28.1084 81.277 27.0849 78.7291 26.4824L77.361 26.1464C75.7604 25.7509 75.1061 25.2343 75.1061 24.3564C75.1061 23.2549 76.1305 22.498 77.6275 22.498C79.1246 22.498 80.149 23.2461 80.2613 24.4853H82.1373C82.0768 22.3427 80.2779 20.8711 77.6539 20.8711C75.0026 20.8711 73.1354 22.3427 73.1354 24.4853C73.1354 26.2158 74.194 27.2822 76.4743 27.833L78.0836 28.2207C79.693 28.6162 80.3727 29.1933 80.3727 30.1572C80.3727 31.2676 79.2457 32.0761 77.6793 32.0761ZM45.3024 30.1397H40.569L39.4323 33.4961H37.4274L41.9108 21.0781H43.9938L48.4772 33.4961H46.4381L45.3024 30.1397ZM41.0592 28.5908H44.8112L42.9616 23.1436H42.9098L41.0592 28.5908ZM54.3815 33.5908C56.6539 33.5908 58.1598 31.7832 58.1598 28.9697C58.1598 26.1641 56.6451 24.3477 54.3473 24.3477C53.1649 24.3095 52.0573 24.9245 51.4645 25.9483H51.4303V24.4424H49.6315V36.4912H51.4899V32.0068H51.5329C52.1004 33.037 53.2069 33.6523 54.3815 33.5908ZM56.2496 28.9697C56.2496 27.1367 55.3024 25.9317 53.8571 25.9317C52.4371 25.9317 51.4821 27.1621 51.4821 28.9697C51.4821 30.794 52.4371 32.0156 53.8571 32.0156C55.3024 32.0156 56.2496 30.8194 56.2496 28.9697ZM64.3463 33.5908C66.6188 33.5908 68.1246 31.7832 68.1246 28.9697C68.1246 26.1641 66.61 24.3477 64.3121 24.3477C63.1297 24.3095 62.0221 24.9245 61.4293 25.9483H61.3951V24.4424H59.5963V36.4912H61.4547V32.0068H61.4977C62.0653 33.037 63.1717 33.6523 64.3463 33.5908ZM66.2145 28.9697C66.2145 27.1367 65.2672 25.9317 63.8219 25.9317C62.402 25.9317 61.4469 27.1621 61.4469 28.9697C61.4469 30.794 62.402 32.0156 63.8219 32.0156C65.2672 32.0156 66.2145 30.8194 66.2145 28.9697ZM86.3463 22.2998V24.4424H88.068V25.9141H86.3463V30.9053C86.3463 31.6807 86.6911 32.042 87.4479 32.042C87.6523 32.0384 87.8563 32.0241 88.0592 31.999V33.4619C87.7189 33.5255 87.3731 33.5543 87.027 33.5478C85.194 33.5478 84.4791 32.8594 84.4791 31.1035V25.9141H83.1627V24.4424H84.4791V22.2998H86.3463ZM93.3591 24.3311C90.7428 24.3311 89.0651 26.1211 89.0651 28.9697C89.0651 31.8262 90.7262 33.6084 93.3591 33.6084C95.9929 33.6084 97.654 31.8262 97.654 28.9697C97.654 26.1211 95.9841 24.3311 93.3591 24.3311ZM95.7604 28.9697C95.7604 27.0156 94.8649 25.8623 93.3591 25.8623C91.8532 25.8623 90.9587 27.0244 90.9587 28.9697C90.9587 30.9317 91.8532 32.0762 93.3591 32.0762C94.8649 32.0762 95.7604 30.9317 95.7604 28.9697ZM100.959 24.4424H99.1862L99.1862 33.4961H101.045V28.126C100.983 27.5827 101.161 27.0395 101.534 26.639C101.906 26.2385 102.435 26.0208 102.981 26.043C103.264 26.0347 103.546 26.0727 103.816 26.1553V24.417C103.607 24.3702 103.394 24.3469 103.179 24.3477C102.158 24.3086 101.249 24.9914 101.002 25.9834H100.959V24.4424ZM112.384 30.8369C112.134 32.4805 110.534 33.6084 108.486 33.6084C105.852 33.6084 104.217 31.8438 104.217 29.0127C104.217 26.1729 105.861 24.3311 108.408 24.3311C110.913 24.3311 112.488 26.0518 112.488 28.7969V29.4336H106.093V29.5459C106.034 30.2199 106.266 30.8871 106.732 31.3778C107.198 31.8684 107.853 32.1352 108.529 32.1104C109.431 32.1949 110.281 31.677 110.62 30.8369L112.384 30.8369ZM110.629 28.1348H106.102C106.101 27.5235 106.343 26.9369 106.776 26.5054C107.209 26.0739 107.797 25.8333 108.408 25.8369C109.014 25.8239 109.599 26.0645 110.02 26.5006C110.442 26.9368 110.662 27.5291 110.629 28.1348ZM25.0374 15.2109C25.8489 14.2367 26.2487 12.9845 26.1519 11.7203C24.9121 11.8505 23.7668 12.4431 22.9443 13.3799C22.1321 14.3042 21.7207 15.5134 21.8006 16.7413C23.057 16.7542 24.25 16.1902 25.0374 15.2109ZM27.769 23.3007C27.7908 21.6042 28.6802 20.0372 30.1256 19.1486C29.2096 17.8405 27.7305 17.0409 26.1344 16.991C25.1072 16.8831 24.0992 17.2832 23.2755 17.6101C22.7525 17.8177 22.3038 17.9958 21.9715 17.9958C21.5935 17.9958 21.1319 17.8104 20.6147 17.6026C19.9383 17.331 19.1669 17.0211 18.363 17.0376C16.4963 17.0979 14.7982 18.1335 13.8901 19.7655C11.9561 23.1139 13.3987 28.035 15.2513 30.7416C16.1782 32.0669 17.2615 33.5474 18.6789 33.4949C19.3219 33.4682 19.7781 33.2762 20.2494 33.0779C20.7947 32.8484 21.3602 32.6104 22.2583 32.6104C23.1052 32.6104 23.6464 32.841 24.1657 33.0622C24.6636 33.2743 25.1414 33.4778 25.8493 33.4615C27.3377 33.4374 28.2754 32.1303 29.1698 30.7924C29.8358 29.848 30.3483 28.8043 30.6882 27.6999C28.9205 26.9522 27.7711 25.22 27.769 23.3007Z" fill="white"/>
</svg>
