<svg width="19" height="24" viewBox="0 0 19 24" fill="none" xmlns="http://www.w3.org/2000/svg">
<path fill-rule="evenodd" clip-rule="evenodd" d="M2.64052 16.719C4.09884 16.719 5.28104 17.9012 5.28104 19.3595C5.28104 20.8178 4.09884 22 2.64052 22C1.1822 22 0 20.8178 0 19.3595C0 17.9012 1.1822 16.719 2.64052 16.719ZM16.3595 16.719C17.8178 16.719 19 17.9012 19 19.3595C19 20.8178 17.8178 22 16.3595 22C14.9012 22 13.719 20.8178 13.719 19.3595C13.719 17.9012 14.9012 16.719 16.3595 16.719ZM2.64052 9.85948C4.09884 9.85948 5.28104 11.0417 5.28104 12.5C5.28104 13.9583 4.09884 15.1405 2.64052 15.1405C1.1822 15.1405 0 13.9583 0 12.5C0 11.0417 1.1822 9.85948 2.64052 9.85948ZM9.5 9.85948C10.9583 9.85948 12.1405 11.0417 12.1405 12.5C12.1405 13.9583 10.9583 15.1405 9.5 15.1405C8.04168 15.1405 6.85948 13.9583 6.85948 12.5C6.85948 11.0417 8.04168 9.85948 9.5 9.85948ZM2.64052 3C4.09884 3 5.28104 4.1822 5.28104 5.64052C5.28104 7.09884 4.09884 8.28104 2.64052 8.28104C1.1822 8.28104 0 7.09884 0 5.64052C0 4.1822 1.1822 3 2.64052 3ZM16.3595 3C17.8178 3 19 4.1822 19 5.64052C19 7.09884 17.8178 8.28104 16.3595 8.28104C14.9012 8.28104 13.719 7.09884 13.719 5.64052C13.719 4.1822 14.9012 3 16.3595 3ZM9.5 3C10.9583 3 12.1405 4.1822 12.1405 5.64052C12.1405 7.09884 10.9583 8.28104 9.5 8.28104C8.04168 8.28104 6.85948 7.09884 6.85948 5.64052C6.85948 4.1822 8.04168 3 9.5 3Z" fill="white"/>
</svg>
