<svg width="540" height="512" viewBox="0 0 540 512" fill="none" xmlns="http://www.w3.org/2000/svg">
<ellipse cx="270" cy="256.16" rx="270" ry="248.622" fill="#121212"/>
<g filter="url(#filter0_d_878_101733)">
<path fill-rule="evenodd" clip-rule="evenodd" d="M154.853 132.812C154.853 132.812 153.781 124.578 169.801 114.767C185.821 104.955 188.4 91.7116 188.4 91.7116L193.527 21.3653C194.405 9.32237 204.431 0 216.506 0H332.125C344.422 0 354.554 9.65159 355.228 21.9302C356.568 46.3586 358.849 83.5081 360.723 91.7116C363.568 104.173 368.905 107.942 380.299 114.767C391.693 121.591 395.453 132.658 395.453 132.658L154.853 132.812Z" fill="#444444"/>
<mask id="path-3-inside-1_878_101733" fill="white">
<path fill-rule="evenodd" clip-rule="evenodd" d="M202.724 89.9728C202.724 87.3219 204.873 85.1729 207.524 85.1729H238.035C240.686 85.1729 242.835 87.3219 242.835 89.9729V92.8841C242.835 95.5351 240.686 97.6841 238.035 97.6841H207.524C204.873 97.6841 202.724 95.5351 202.724 92.8841V89.9728ZM255.553 89.9728C255.553 87.3219 257.702 85.1729 260.353 85.1729H290.864C293.515 85.1729 295.664 87.3219 295.664 89.9729V92.8841C295.664 95.5351 293.515 97.6841 290.864 97.6841H260.353C257.702 97.6841 255.553 95.5351 255.553 92.8841V89.9728ZM313.182 85.1729C310.531 85.1729 308.382 87.3219 308.382 89.9728V92.8841C308.382 95.5351 310.531 97.6841 313.182 97.6841H343.693C346.344 97.6841 348.493 95.5351 348.493 92.8841V89.9729C348.493 87.3219 346.344 85.1729 343.693 85.1729H313.182Z"/>
</mask>
<path fill-rule="evenodd" clip-rule="evenodd" d="M202.724 89.9728C202.724 87.3219 204.873 85.1729 207.524 85.1729H238.035C240.686 85.1729 242.835 87.3219 242.835 89.9729V92.8841C242.835 95.5351 240.686 97.6841 238.035 97.6841H207.524C204.873 97.6841 202.724 95.5351 202.724 92.8841V89.9728ZM255.553 89.9728C255.553 87.3219 257.702 85.1729 260.353 85.1729H290.864C293.515 85.1729 295.664 87.3219 295.664 89.9729V92.8841C295.664 95.5351 293.515 97.6841 290.864 97.6841H260.353C257.702 97.6841 255.553 95.5351 255.553 92.8841V89.9728ZM313.182 85.1729C310.531 85.1729 308.382 87.3219 308.382 89.9728V92.8841C308.382 95.5351 310.531 97.6841 313.182 97.6841H343.693C346.344 97.6841 348.493 95.5351 348.493 92.8841V89.9729C348.493 87.3219 346.344 85.1729 343.693 85.1729H313.182Z" fill="#C1B750"/>
<path d="M207.524 84.2129C204.342 84.2129 201.764 86.7917 201.764 89.9728H203.684C203.684 87.8521 205.403 86.1329 207.524 86.1329V84.2129ZM238.035 84.2129H207.524V86.1329H238.035V84.2129ZM243.795 89.9729C243.795 86.7917 241.216 84.2129 238.035 84.2129V86.1329C240.156 86.1329 241.875 87.8521 241.875 89.9729H243.795ZM243.795 92.8841V89.9729H241.875V92.8841H243.795ZM238.035 98.6441C241.216 98.6441 243.795 96.0653 243.795 92.8841H241.875C241.875 95.0049 240.156 96.7241 238.035 96.7241V98.6441ZM207.524 98.6441H238.035V96.7241H207.524V98.6441ZM201.764 92.8841C201.764 96.0653 204.342 98.6441 207.524 98.6441V96.7241C205.403 96.7241 203.684 95.0049 203.684 92.8841H201.764ZM201.764 89.9728V92.8841H203.684V89.9728H201.764ZM260.353 84.2129C257.172 84.2129 254.593 86.7917 254.593 89.9728H256.513C256.513 87.8521 258.232 86.1329 260.353 86.1329V84.2129ZM290.864 84.2129H260.353V86.1329H290.864V84.2129ZM296.624 89.9729C296.624 86.7917 294.045 84.2129 290.864 84.2129V86.1329C292.985 86.1329 294.704 87.8521 294.704 89.9729H296.624ZM296.624 92.8841V89.9729H294.704V92.8841H296.624ZM290.864 98.6441C294.045 98.6441 296.624 96.0653 296.624 92.8841H294.704C294.704 95.0049 292.985 96.7241 290.864 96.7241V98.6441ZM260.353 98.6441H290.864V96.7241H260.353V98.6441ZM254.593 92.8841C254.593 96.0653 257.172 98.6441 260.353 98.6441V96.7241C258.232 96.7241 256.513 95.0049 256.513 92.8841H254.593ZM254.593 89.9728V92.8841H256.513V89.9728H254.593ZM309.342 89.9728C309.342 87.8521 311.061 86.1329 313.182 86.1329V84.2129C310.001 84.2129 307.422 86.7917 307.422 89.9728H309.342ZM309.342 92.8841V89.9728H307.422V92.8841H309.342ZM313.182 96.7241C311.061 96.7241 309.342 95.0049 309.342 92.8841H307.422C307.422 96.0653 310.001 98.6441 313.182 98.6441V96.7241ZM343.693 96.7241H313.182V98.6441H343.693V96.7241ZM347.533 92.8841C347.533 95.0049 345.814 96.7241 343.693 96.7241V98.6441C346.875 98.6441 349.453 96.0653 349.453 92.8841H347.533ZM347.533 89.9729V92.8841H349.453V89.9729H347.533ZM343.693 86.1329C345.814 86.1329 347.533 87.8521 347.533 89.9729H349.453C349.453 86.7917 346.875 84.2129 343.693 84.2129V86.1329ZM313.182 86.1329H343.693V84.2129H313.182V86.1329Z" fill="#968E3C" mask="url(#path-3-inside-1_878_101733)"/>
</g>
<g filter="url(#filter1_d_878_101733)">
<path fill-rule="evenodd" clip-rule="evenodd" d="M154.853 379.188C154.853 379.188 153.781 387.422 169.801 397.233C185.821 407.045 188.4 420.288 188.4 420.288L193.527 490.635C194.405 502.678 204.431 512 216.506 512H332.125C344.422 512 354.554 502.348 355.228 490.07C356.568 465.641 358.849 428.492 360.723 420.288C363.568 407.827 368.905 404.058 380.299 397.233C391.693 390.409 395.453 379.342 395.453 379.342L154.853 379.188Z" fill="#444444"/>
<mask id="path-6-inside-2_878_101733" fill="white">
<path fill-rule="evenodd" clip-rule="evenodd" d="M202.724 422.027C202.724 424.678 204.873 426.827 207.524 426.827H238.035C240.686 426.827 242.835 424.678 242.835 422.027V419.116C242.835 416.465 240.686 414.316 238.035 414.316H207.524C204.873 414.316 202.724 416.465 202.724 419.116V422.027ZM255.553 422.027C255.553 424.678 257.702 426.827 260.353 426.827H290.864C293.515 426.827 295.664 424.678 295.664 422.027V419.116C295.664 416.465 293.515 414.316 290.864 414.316H260.353C257.702 414.316 255.553 416.465 255.553 419.116V422.027ZM313.182 426.827C310.531 426.827 308.382 424.678 308.382 422.027V419.116C308.382 416.465 310.531 414.316 313.182 414.316H343.693C346.344 414.316 348.493 416.465 348.493 419.116V422.027C348.493 424.678 346.344 426.827 343.693 426.827H313.182Z"/>
</mask>
<path fill-rule="evenodd" clip-rule="evenodd" d="M202.724 422.027C202.724 424.678 204.873 426.827 207.524 426.827H238.035C240.686 426.827 242.835 424.678 242.835 422.027V419.116C242.835 416.465 240.686 414.316 238.035 414.316H207.524C204.873 414.316 202.724 416.465 202.724 419.116V422.027ZM255.553 422.027C255.553 424.678 257.702 426.827 260.353 426.827H290.864C293.515 426.827 295.664 424.678 295.664 422.027V419.116C295.664 416.465 293.515 414.316 290.864 414.316H260.353C257.702 414.316 255.553 416.465 255.553 419.116V422.027ZM313.182 426.827C310.531 426.827 308.382 424.678 308.382 422.027V419.116C308.382 416.465 310.531 414.316 313.182 414.316H343.693C346.344 414.316 348.493 416.465 348.493 419.116V422.027C348.493 424.678 346.344 426.827 343.693 426.827H313.182Z" fill="#C1B750"/>
<path d="M207.524 427.787C204.342 427.787 201.764 425.208 201.764 422.027H203.684C203.684 424.148 205.403 425.867 207.524 425.867V427.787ZM238.035 427.787H207.524V425.867H238.035V427.787ZM243.795 422.027C243.795 425.208 241.216 427.787 238.035 427.787V425.867C240.156 425.867 241.875 424.148 241.875 422.027H243.795ZM243.795 419.116V422.027H241.875V419.116H243.795ZM238.035 413.356C241.216 413.356 243.795 415.935 243.795 419.116H241.875C241.875 416.995 240.156 415.276 238.035 415.276V413.356ZM207.524 413.356H238.035V415.276H207.524V413.356ZM201.764 419.116C201.764 415.935 204.342 413.356 207.524 413.356V415.276C205.403 415.276 203.684 416.995 203.684 419.116H201.764ZM201.764 422.027V419.116H203.684V422.027H201.764ZM260.353 427.787C257.172 427.787 254.593 425.208 254.593 422.027H256.513C256.513 424.148 258.232 425.867 260.353 425.867V427.787ZM290.864 427.787H260.353V425.867H290.864V427.787ZM296.624 422.027C296.624 425.208 294.045 427.787 290.864 427.787V425.867C292.985 425.867 294.704 424.148 294.704 422.027H296.624ZM296.624 419.116V422.027H294.704V419.116H296.624ZM290.864 413.356C294.045 413.356 296.624 415.935 296.624 419.116H294.704C294.704 416.995 292.985 415.276 290.864 415.276V413.356ZM260.353 413.356H290.864V415.276H260.353V413.356ZM254.593 419.116C254.593 415.935 257.172 413.356 260.353 413.356V415.276C258.232 415.276 256.513 416.995 256.513 419.116H254.593ZM254.593 422.027V419.116H256.513V422.027H254.593ZM309.342 422.027C309.342 424.148 311.061 425.867 313.182 425.867V427.787C310.001 427.787 307.422 425.208 307.422 422.027H309.342ZM309.342 419.116V422.027H307.422V419.116H309.342ZM313.182 415.276C311.061 415.276 309.342 416.995 309.342 419.116H307.422C307.422 415.935 310.001 413.356 313.182 413.356V415.276ZM343.693 415.276H313.182V413.356H343.693V415.276ZM347.533 419.116C347.533 416.995 345.814 415.276 343.693 415.276V413.356C346.875 413.356 349.453 415.935 349.453 419.116H347.533ZM347.533 422.027V419.116H349.453V422.027H347.533ZM343.693 425.867C345.814 425.867 347.533 424.148 347.533 422.027H349.453C349.453 425.208 346.875 427.787 343.693 427.787V425.867ZM313.182 425.867H343.693V427.787H313.182V425.867Z" fill="#968E3C" mask="url(#path-6-inside-2_878_101733)"/>
</g>
<rect x="122" y="84.2106" width="296.64" height="343.579" rx="54.72" fill="#1E1E1E"/>
<g filter="url(#filter2_f_878_101733)">
<path fill-rule="evenodd" clip-rule="evenodd" d="M418.64 163.128C418.64 163.128 410.96 168.659 410.96 192.82C410.96 216.98 418.554 221.835 418.554 221.835L418.64 163.128Z" fill="black" fill-opacity="0.01"/>
</g>
<rect x="133.52" y="94.797" width="273.6" height="323.368" rx="40.32" fill="#1E1E1E"/>
<mask id="mask0_878_101733" style="mask-type:luminance" maskUnits="userSpaceOnUse" x="133" y="94" width="275" height="325">
<rect x="133.52" y="94.797" width="273.6" height="323.368" rx="40.32" fill="white"/>
</mask>
<g mask="url(#mask0_878_101733)">
</g>
<path fill-rule="evenodd" clip-rule="evenodd" d="M265.613 375.558C265.613 376.697 264.693 377.62 263.559 377.62C262.424 377.62 261.504 376.697 261.504 375.558C261.504 374.419 262.424 373.495 263.559 373.495C264.693 373.495 265.613 374.419 265.613 375.558ZM273.833 375.558C273.833 376.697 272.913 377.62 271.778 377.62C270.643 377.62 269.723 376.697 269.723 375.558C269.723 374.419 270.643 373.495 271.778 373.495C272.913 373.495 273.833 374.419 273.833 375.558ZM279.997 377.62C281.132 377.62 282.052 376.697 282.052 375.558C282.052 374.419 281.132 373.495 279.997 373.495C278.862 373.495 277.942 374.419 277.942 375.558C277.942 376.697 278.862 377.62 279.997 377.62Z" fill="white" fill-opacity="0.35"/>
<ellipse cx="272.463" cy="375.558" rx="2.05477" ry="2.0624" fill="white"/>
<path fill-rule="evenodd" clip-rule="evenodd" d="M219.364 150.874C220.627 150.874 221.704 150.549 222.596 149.898C223.488 149.247 224.169 148.304 224.64 147.071C225.111 145.837 225.347 144.351 225.347 142.613C225.347 141.147 225.174 139.916 224.828 138.922C224.481 137.928 224.021 137.134 223.447 136.54C222.873 135.947 222.241 135.519 221.553 135.258C220.864 134.997 220.174 134.867 219.482 134.867C218.426 134.867 217.486 135.096 216.662 135.553C215.838 136.011 215.19 136.637 214.72 137.431C214.249 138.225 214.013 139.133 214.013 140.156C214.013 141.136 214.236 142.012 214.682 142.785C215.128 143.557 215.738 144.165 216.512 144.608C217.286 145.052 218.162 145.274 219.139 145.274C219.796 145.274 220.411 145.17 220.986 144.962C221.56 144.755 222.061 144.46 222.489 144.077C222.917 143.695 223.238 143.249 223.452 142.742H223.484C223.47 143.772 223.372 144.685 223.19 145.483C223.008 146.28 222.744 146.954 222.398 147.505C222.052 148.056 221.628 148.474 221.125 148.76C220.622 149.047 220.042 149.19 219.386 149.19C218.587 149.19 217.9 149.007 217.325 148.642C216.751 148.278 216.357 147.738 216.143 147.022H214.184C214.334 147.802 214.65 148.48 215.132 149.055C215.613 149.631 216.218 150.078 216.946 150.397C217.673 150.715 218.479 150.874 219.364 150.874ZM186.713 150.874C187.911 150.874 188.933 150.547 189.779 149.892C190.624 149.238 191.27 148.31 191.716 147.108C192.162 145.907 192.385 144.49 192.385 142.86C192.385 141.236 192.162 139.827 191.716 138.632C191.27 137.438 190.624 136.514 189.779 135.859C188.933 135.205 187.911 134.877 186.713 134.877C185.521 134.877 184.499 135.206 183.647 135.864C182.794 136.522 182.143 137.451 181.693 138.649C181.244 139.847 181.019 141.254 181.019 142.87C181.019 144.501 181.244 145.915 181.693 147.114C182.143 148.312 182.792 149.238 183.641 149.892C184.49 150.547 185.514 150.874 186.713 150.874ZM177.059 150.616V135.134H175.176C174.905 135.335 174.632 135.533 174.357 135.73L173.945 136.025L173.533 136.32L172.709 136.91L171.885 137.5C171.61 137.697 171.338 137.895 171.066 138.095V140.037C171.338 139.844 171.61 139.653 171.885 139.463C172.16 139.274 172.433 139.084 172.704 138.895L173.517 138.326C173.788 138.137 174.061 137.947 174.336 137.757C174.611 137.568 174.883 137.377 175.155 137.183H175.197V150.616H177.059ZM184.663 148.412C185.223 148.93 185.906 149.19 186.712 149.19C187.519 149.19 188.198 148.93 188.751 148.412C189.304 147.893 189.725 147.162 190.014 146.218C190.303 145.274 190.447 144.158 190.447 142.87C190.447 141.597 190.301 140.49 190.009 139.55C189.716 138.609 189.293 137.878 188.74 137.356C188.188 136.834 187.512 136.573 186.712 136.573C185.913 136.573 185.236 136.834 184.679 137.356C184.123 137.878 183.696 138.611 183.4 139.555C183.104 140.499 182.956 141.601 182.956 142.86C182.956 144.147 183.101 145.265 183.389 146.212C183.678 147.16 184.103 147.893 184.663 148.412ZM196.462 139.77C196.805 139.77 197.094 139.652 197.329 139.416C197.565 139.18 197.682 138.89 197.682 138.547C197.682 138.203 197.565 137.914 197.329 137.678C197.094 137.442 196.805 137.324 196.462 137.324C196.12 137.324 195.831 137.442 195.595 137.678C195.36 137.914 195.242 138.203 195.242 138.547C195.242 138.89 195.36 139.18 195.595 139.416C195.831 139.652 196.12 139.77 196.462 139.77ZM197.329 148.063C197.094 148.299 196.805 148.417 196.462 148.417C196.12 148.417 195.831 148.299 195.595 148.063C195.36 147.827 195.242 147.537 195.242 147.194C195.242 146.851 195.36 146.561 195.595 146.325C195.831 146.089 196.12 145.971 196.462 145.971C196.805 145.971 197.094 146.089 197.329 146.325C197.565 146.561 197.682 146.851 197.682 147.194C197.682 147.537 197.565 147.827 197.329 148.063ZM206.233 150.874C207.432 150.874 208.454 150.547 209.299 149.892C210.144 149.238 210.79 148.31 211.236 147.108C211.682 145.907 211.905 144.49 211.905 142.86C211.905 141.236 211.682 139.827 211.236 138.632C210.79 137.438 210.144 136.514 209.299 135.859C208.454 135.205 207.432 134.877 206.233 134.877C205.041 134.877 204.019 135.206 203.167 135.864C202.314 136.522 201.663 137.451 201.214 138.649C200.764 139.847 200.54 141.254 200.54 142.87C200.54 144.501 200.764 145.915 201.214 147.114C201.663 148.312 202.312 149.238 203.161 149.892C204.01 150.547 205.034 150.874 206.233 150.874ZM204.184 148.412C204.744 148.93 205.427 149.19 206.233 149.19C207.039 149.19 207.719 148.93 208.272 148.412C208.825 147.893 209.246 147.162 209.534 146.218C209.823 145.274 209.968 144.158 209.968 142.87C209.968 141.597 209.822 140.49 209.529 139.55C209.237 138.609 208.814 137.878 208.261 137.356C207.708 136.834 207.032 136.573 206.233 136.573C205.434 136.573 204.756 136.834 204.2 137.356C203.643 137.878 203.217 138.611 202.921 139.555C202.625 140.499 202.477 141.601 202.477 142.86C202.477 144.147 202.621 145.265 202.91 146.212C203.199 147.16 203.623 147.893 204.184 148.412ZM217.668 143.128C218.199 143.428 218.801 143.579 219.471 143.579C220.156 143.579 220.766 143.43 221.301 143.133C221.836 142.836 222.259 142.429 222.569 141.91C222.88 141.392 223.035 140.803 223.035 140.145C223.035 139.48 222.88 138.881 222.569 138.348C222.259 137.815 221.836 137.392 221.301 137.077C220.766 136.762 220.167 136.605 219.503 136.605C218.847 136.605 218.249 136.76 217.711 137.072C217.172 137.383 216.746 137.801 216.432 138.327C216.118 138.852 215.961 139.441 215.961 140.092C215.961 140.764 216.113 141.363 216.416 141.889C216.719 142.414 217.136 142.827 217.668 143.128Z" fill="#605F5F"/>
<path fill-rule="evenodd" clip-rule="evenodd" d="M175.312 251.761C173.799 251.761 172.572 252.987 172.572 254.501V343.257C172.572 344.77 173.799 345.996 175.312 345.996H193.833C195.346 345.996 196.572 344.77 196.572 343.257V254.501C196.572 252.987 195.346 251.761 193.833 251.761H175.312Z" fill="#44D2A8"/>
<path fill-rule="evenodd" clip-rule="evenodd" d="M204.312 226.698C202.799 226.698 201.572 227.925 201.572 229.438V343.257C201.572 344.77 202.799 345.996 204.312 345.996H222.833C224.346 345.996 225.572 344.77 225.572 343.257V229.438C225.572 227.925 224.346 226.698 222.833 226.698H204.312Z" fill="#44D2A8"/>
<path fill-rule="evenodd" clip-rule="evenodd" d="M233.312 311.911C231.799 311.911 230.572 313.138 230.572 314.651V343.257C230.572 344.77 231.799 345.996 233.312 345.996H252.833C254.346 345.996 255.572 344.77 255.572 343.257V314.651C255.572 313.138 254.346 311.911 252.833 311.911H233.312Z" fill="#44D2A8"/>
<path fill-rule="evenodd" clip-rule="evenodd" d="M263.312 279.831C261.799 279.831 260.572 281.058 260.572 282.571V343.257C260.572 344.77 261.799 345.996 263.312 345.996H281.833C283.346 345.996 284.572 344.77 284.572 343.257V282.571C284.572 281.058 283.346 279.831 281.833 279.831H263.312Z" fill="#44D2A8"/>
<path fill-rule="evenodd" clip-rule="evenodd" d="M293.312 262.788C291.799 262.788 290.572 264.015 290.572 265.528V343.257C290.572 344.77 291.799 345.996 293.312 345.996H311.833C313.346 345.996 314.572 344.77 314.572 343.257V265.528C314.572 264.015 313.346 262.788 311.833 262.788H293.312Z" fill="#44D2A8"/>
<path fill-rule="evenodd" clip-rule="evenodd" d="M322.312 317.926C320.799 317.926 319.572 319.153 319.572 320.666V343.257C319.572 344.77 320.799 345.996 322.312 345.996H340.833C342.346 345.996 343.572 344.77 343.572 343.257V320.666C343.572 319.153 342.346 317.926 340.833 317.926H322.312Z" fill="#44D2A8"/>
<path fill-rule="evenodd" clip-rule="evenodd" d="M351.312 285.846C349.799 285.846 348.572 287.073 348.572 288.586V343.257C348.572 344.77 349.799 345.996 351.312 345.996H369.833C371.346 345.996 372.572 344.77 372.572 343.257V288.586C372.572 287.073 371.346 285.846 369.833 285.846H351.312Z" fill="#44D2A8"/>
<path fill-rule="evenodd" clip-rule="evenodd" d="M282.172 184.225C283.492 184.225 284.667 183.939 285.697 183.367C286.727 182.795 287.537 182.01 288.125 181.014C288.714 180.017 289.008 178.883 289.008 177.614C289.008 176.389 288.729 175.294 288.172 174.328C287.615 173.363 286.854 172.603 285.891 172.048C284.928 171.494 283.831 171.217 282.6 171.217C281.726 171.217 280.93 171.358 280.213 171.639C279.495 171.921 278.881 172.299 278.373 172.773C277.865 173.246 277.477 173.774 277.209 174.355H277.169C277.196 172.638 277.412 171.183 277.818 169.99C278.224 168.796 278.806 167.889 279.564 167.267C280.322 166.646 281.236 166.335 282.306 166.335C282.966 166.335 283.561 166.443 284.092 166.657C284.623 166.872 285.075 167.185 285.45 167.596C285.824 168.007 286.105 168.503 286.293 169.085H288.741C288.544 168.092 288.148 167.232 287.55 166.503C286.952 165.774 286.208 165.209 285.316 164.806C284.424 164.404 283.43 164.203 282.333 164.203C280.763 164.203 279.419 164.612 278.3 165.43C277.18 166.248 276.324 167.428 275.731 168.971C275.138 170.513 274.841 172.37 274.841 174.543C274.841 176.34 275.053 177.858 275.477 179.096C275.901 180.334 276.467 181.331 277.176 182.086C277.885 182.842 278.672 183.387 279.537 183.723C280.402 184.058 281.28 184.225 282.172 184.225ZM242.923 183.89V181.744H233.492V181.691L238.08 176.97C239.267 175.754 240.185 174.73 240.836 173.899C241.487 173.068 241.944 172.321 242.207 171.659C242.47 170.998 242.602 170.309 242.602 169.594C242.602 168.62 242.348 167.723 241.839 166.905C241.331 166.087 240.624 165.434 239.719 164.947C238.814 164.46 237.764 164.216 236.569 164.216C235.329 164.216 234.219 164.473 233.238 164.987C232.257 165.502 231.483 166.203 230.917 167.093C230.35 167.983 230.067 168.995 230.067 170.131H232.395C232.395 169.406 232.578 168.756 232.943 168.179C233.309 167.603 233.806 167.149 234.435 166.818C235.064 166.487 235.775 166.322 236.569 166.322C237.309 166.322 237.949 166.474 238.488 166.778C239.028 167.082 239.447 167.493 239.746 168.012C240.045 168.53 240.194 169.107 240.194 169.742C240.194 170.278 240.107 170.783 239.933 171.257C239.759 171.731 239.44 172.265 238.977 172.86C238.513 173.454 237.848 174.207 236.983 175.119L230.188 182.227V183.89H242.923ZM173.842 178.351L171.902 183.889H169.374L176.491 164.537H178.872L185.989 183.889H183.46L181.521 178.351H173.842ZM174.551 176.3H180.811L177.721 167.475H177.641L174.551 176.3ZM190.497 188.544V181.624H190.55C190.827 182.133 191.183 182.576 191.62 182.951C192.057 183.327 192.561 183.617 193.132 183.823C193.703 184.029 194.318 184.132 194.978 184.132C196.146 184.132 197.174 183.834 198.062 183.24C198.949 182.645 199.64 181.807 200.135 180.725C200.63 179.643 200.877 178.374 200.877 176.916C200.877 175.459 200.628 174.19 200.128 173.108C199.629 172.026 198.933 171.188 198.041 170.593C197.15 169.999 196.111 169.701 194.925 169.701C194.256 169.701 193.634 169.809 193.058 170.023C192.483 170.238 191.973 170.54 191.527 170.929C191.081 171.317 190.715 171.776 190.43 172.303H190.376V169.943H188.169V188.544H190.497ZM192.383 181.436C192.981 181.865 193.676 182.08 194.47 182.08C195.299 182.08 196.015 181.87 196.617 181.449C197.219 181.029 197.683 180.432 198.008 179.659C198.334 178.886 198.496 177.971 198.496 176.917C198.496 175.862 198.334 174.95 198.008 174.181C197.683 173.412 197.219 172.815 196.617 172.39C196.015 171.966 195.299 171.753 194.47 171.753C193.676 171.753 192.981 171.968 192.383 172.397C191.785 172.826 191.319 173.427 190.985 174.201C190.651 174.974 190.483 175.879 190.483 176.917C190.483 177.954 190.651 178.859 190.985 179.632C191.319 180.406 191.785 181.007 192.383 181.436ZM205.881 183.89V175.2C205.881 174.538 206.004 173.964 206.249 173.477C206.495 172.989 206.842 172.609 207.293 172.337C207.743 172.064 208.267 171.928 208.865 171.928C209.15 171.928 209.406 171.941 209.634 171.968C209.861 171.995 210.019 172.026 210.109 172.062V169.795C210.019 169.777 209.892 169.757 209.727 169.735C209.562 169.713 209.377 169.701 209.172 169.701C208.361 169.701 207.654 169.929 207.052 170.385C206.45 170.841 206.033 171.454 205.801 172.223H205.748V169.943H203.554V183.89H205.881ZM214.65 167.032C214.369 167.318 214.023 167.461 213.613 167.461C213.212 167.461 212.868 167.318 212.583 167.032C212.298 166.746 212.155 166.401 212.155 165.999C212.155 165.588 212.298 165.241 212.583 164.96C212.868 164.678 213.212 164.537 213.613 164.537C214.023 164.537 214.369 164.678 214.65 164.96C214.931 165.241 215.071 165.588 215.071 165.999C215.071 166.401 214.931 166.746 214.65 167.032ZM214.777 183.89V169.943H212.449V183.89H214.777ZM220.703 164.537V183.889H218.375V164.537H220.703ZM256.615 182.985C255.558 183.803 254.28 184.212 252.782 184.212C251.284 184.212 250.004 183.803 248.943 182.985C247.882 182.167 247.07 181.009 246.508 179.511C245.946 178.014 245.665 176.246 245.665 174.207C245.665 172.187 245.946 170.428 246.508 168.93C247.07 167.433 247.884 166.273 248.95 165.45C250.015 164.628 251.293 164.216 252.782 164.216C254.28 164.216 255.558 164.625 256.615 165.443C257.672 166.261 258.479 167.417 259.036 168.91C259.593 170.403 259.872 172.165 259.872 174.194C259.872 176.233 259.593 178.003 259.036 179.505C258.479 181.007 257.672 182.167 256.615 182.985ZM252.782 182.107C251.775 182.107 250.921 181.782 250.221 181.134C249.521 180.486 248.99 179.57 248.629 178.385C248.268 177.2 248.087 175.803 248.087 174.194C248.087 172.621 248.272 171.244 248.642 170.064C249.012 168.883 249.545 167.967 250.241 167.314C250.936 166.662 251.784 166.335 252.782 166.335C253.781 166.335 254.626 166.662 255.317 167.314C256.009 167.967 256.537 168.881 256.903 170.057C257.268 171.232 257.451 172.616 257.451 174.207C257.451 175.817 257.271 177.212 256.909 178.392C256.548 179.572 256.022 180.486 255.331 181.134C254.64 181.782 253.79 182.107 252.782 182.107ZM269.959 164.537V183.889H267.631V167.099H267.578C267.239 167.34 266.898 167.579 266.554 167.816C266.211 168.053 265.87 168.29 265.531 168.527L264.514 169.238C264.175 169.475 263.834 169.712 263.491 169.949C263.147 170.186 262.806 170.425 262.467 170.666V168.239C262.806 167.988 263.147 167.74 263.491 167.494L264.521 166.757L265.551 166.019L266.581 165.282C266.924 165.036 267.265 164.788 267.604 164.537H269.959ZM279.911 181.483C280.58 181.881 281.325 182.08 282.145 182.08C282.966 182.08 283.71 181.883 284.379 181.49C285.048 181.096 285.579 180.569 285.971 179.907C286.364 179.245 286.56 178.508 286.56 177.694C286.56 176.845 286.373 176.094 285.998 175.441C285.623 174.789 285.108 174.275 284.453 173.899C283.797 173.523 283.042 173.336 282.185 173.336C281.338 173.336 280.578 173.521 279.905 173.892C279.231 174.263 278.703 174.773 278.319 175.421C277.936 176.069 277.744 176.805 277.744 177.627C277.744 178.45 277.938 179.199 278.326 179.874C278.714 180.549 279.242 181.085 279.911 181.483Z" fill="white"/>
<path fill-rule="evenodd" clip-rule="evenodd" d="M172.55 205.615V196.747H172.646L176.298 205.615H177.518L181.17 196.747H181.266V205.615H182.615V194.003H180.937L176.972 203.692H176.844L172.879 194.003H171.201V205.615H172.55ZM188.57 205.768C189.394 205.768 190.103 205.587 190.697 205.224C191.291 204.862 191.75 204.346 192.074 203.675C192.397 203.005 192.559 202.206 192.559 201.278C192.559 200.344 192.397 199.542 192.074 198.872C191.75 198.201 191.291 197.686 190.697 197.327C190.103 196.967 189.394 196.788 188.57 196.788C187.751 196.788 187.044 196.967 186.447 197.327C185.851 197.686 185.39 198.201 185.067 198.872C184.743 199.542 184.581 200.344 184.581 201.278C184.581 202.206 184.743 203.005 185.067 203.675C185.39 204.346 185.851 204.862 186.447 205.224C187.044 205.587 187.751 205.768 188.57 205.768ZM187.182 204.138C187.562 204.393 188.024 204.52 188.57 204.52C189.116 204.52 189.579 204.393 189.959 204.138C190.339 203.883 190.629 203.513 190.83 203.028C191.03 202.542 191.131 201.959 191.131 201.278C191.131 200.591 191.03 200.006 190.83 199.523C190.629 199.041 190.339 198.672 189.959 198.417C189.579 198.162 189.116 198.035 188.57 198.035C188.024 198.035 187.562 198.162 187.182 198.417C186.802 198.672 186.511 199.041 186.311 199.523C186.11 200.006 186.01 200.591 186.01 201.278C186.01 201.959 186.11 202.542 186.311 203.028C186.511 203.513 186.802 203.883 187.182 204.138ZM195.73 205.615V200.481C195.73 199.971 195.824 199.534 196.011 199.169C196.198 198.805 196.462 198.524 196.802 198.329C197.141 198.133 197.541 198.035 198.002 198.035C198.692 198.035 199.204 198.223 199.539 198.598C199.873 198.974 200.04 199.553 200.04 200.336V205.615H201.421V199.998C201.421 198.968 201.16 198.176 200.638 197.62C200.117 197.065 199.369 196.788 198.395 196.788C197.731 196.788 197.187 196.922 196.762 197.19C196.336 197.458 196.014 197.831 195.794 198.308H195.666V196.941H194.35V205.615H195.73ZM208.724 205.478C208.227 205.671 207.662 205.768 207.031 205.768C206.233 205.768 205.542 205.585 204.956 205.22C204.37 204.856 203.919 204.337 203.603 203.663C203.288 202.99 203.13 202.198 203.13 201.286C203.13 200.374 203.29 199.581 203.611 198.908C203.933 198.235 204.385 197.713 204.968 197.343C205.551 196.973 206.239 196.788 207.031 196.788C207.812 196.788 208.482 196.963 209.041 197.315C209.601 197.666 210.031 198.168 210.334 198.819C210.636 199.471 210.787 200.248 210.787 201.149V201.68H204.567V201.744C204.593 202.313 204.711 202.808 204.92 203.229C205.128 203.65 205.416 203.975 205.783 204.203C206.149 204.431 206.576 204.545 207.063 204.545C207.619 204.545 208.085 204.444 208.459 204.243C208.834 204.042 209.112 203.751 209.294 203.37H210.675C210.541 203.863 210.307 204.29 209.972 204.649C209.638 205.009 209.222 205.285 208.724 205.478ZM209.335 200.561H204.567C204.605 200.046 204.729 199.599 204.941 199.218C205.152 198.837 205.436 198.54 205.791 198.329C206.147 198.117 206.555 198.011 207.015 198.011C207.476 198.011 207.877 198.117 208.219 198.329C208.562 198.54 208.831 198.837 209.026 199.218C209.221 199.599 209.324 200.046 209.335 200.561ZM214.447 208.519C214.099 208.675 213.669 208.753 213.155 208.753C213.064 208.753 212.962 208.749 212.85 208.741C212.738 208.733 212.633 208.721 212.537 208.705V207.522C212.623 207.538 212.716 207.549 212.818 207.554C212.92 207.559 213.019 207.562 213.115 207.562C213.511 207.562 213.829 207.455 214.07 207.24C214.311 207.025 214.522 206.658 214.704 206.138L214.784 205.88L214.865 205.623L211.662 196.94H213.155L215.531 204.078H215.659L218.027 196.94H219.496L216.117 206.146C215.871 206.816 215.618 207.341 215.358 207.719C215.099 208.097 214.795 208.364 214.447 208.519Z" fill="white"/>
<path fill-rule="evenodd" clip-rule="evenodd" d="M297.867 205.388L297.867 206.781H296.904L296.904 205.382L296.821 205.375C296.334 205.324 295.873 205.21 295.439 205.031C294.832 204.782 294.338 204.418 293.958 203.941C293.579 203.464 293.378 202.884 293.356 202.203H294.753C294.807 202.578 294.932 202.912 295.13 203.205C295.328 203.497 295.615 203.728 295.989 203.897C296.203 203.993 296.452 204.062 296.736 204.104L296.904 204.124V200.284L296.72 200.24C295.719 199.998 294.956 199.643 294.432 199.173C293.908 198.704 293.645 198.072 293.645 197.278C293.645 196.651 293.81 196.108 294.139 195.649C294.468 195.19 294.916 194.836 295.483 194.587C295.909 194.4 296.378 194.283 296.891 194.236L296.904 194.235L296.904 192.837H297.867L297.867 194.234L297.994 194.244C298.462 194.297 298.899 194.415 299.304 194.599C299.871 194.856 300.327 195.22 300.673 195.689C301.018 196.159 301.201 196.713 301.222 197.351H299.826C299.788 196.938 299.661 196.592 299.445 196.313C299.228 196.034 298.946 195.823 298.598 195.681C298.389 195.596 298.164 195.536 297.923 195.502L297.867 195.497V199.149L298.116 199.21C299.149 199.456 299.943 199.813 300.5 200.28C301.056 200.747 301.335 201.404 301.335 202.251C301.335 202.949 301.153 203.531 300.789 203.997C300.425 204.464 299.946 204.815 299.352 205.051C298.928 205.22 298.478 205.328 298.002 205.377L297.867 205.388ZM296.92 198.92L296.904 198.915V195.5L296.796 195.513C296.54 195.553 296.311 195.62 296.11 195.713C295.756 195.877 295.49 196.089 295.311 196.349C295.132 196.609 295.042 196.887 295.042 197.182C295.042 197.573 295.181 197.918 295.459 198.216C295.738 198.514 296.225 198.748 296.92 198.92ZM297.866 204.135V200.518L297.915 200.529C298.445 200.658 298.855 200.808 299.147 200.98C299.439 201.152 299.643 201.351 299.761 201.579C299.879 201.807 299.938 202.069 299.938 202.364C299.938 202.702 299.855 203.005 299.689 203.273C299.523 203.541 299.257 203.755 298.89 203.913C298.628 204.026 298.306 204.099 297.923 204.131L297.866 204.135ZM309.731 205.144C309.067 205.635 308.262 205.88 307.315 205.88C306.662 205.88 306.071 205.76 305.541 205.518C305.011 205.277 304.572 204.935 304.224 204.492C303.877 204.05 303.641 203.523 303.518 202.911H305.003C305.153 203.437 305.436 203.848 305.854 204.146C306.271 204.444 306.764 204.593 307.331 204.593C307.802 204.593 308.22 204.49 308.587 204.283C308.953 204.076 309.265 203.772 309.522 203.37C309.779 202.967 309.978 202.47 310.12 201.877C310.262 201.284 310.343 200.602 310.365 199.829H310.236C310.049 200.205 309.802 200.525 309.494 200.791C309.186 201.056 308.834 201.26 308.438 201.402C308.042 201.544 307.614 201.616 307.154 201.616C306.421 201.616 305.767 201.448 305.192 201.113C304.616 200.777 304.166 200.317 303.839 199.733C303.513 199.148 303.35 198.48 303.35 197.729C303.35 196.951 303.524 196.262 303.871 195.661C304.219 195.06 304.698 194.588 305.308 194.245C305.918 193.902 306.619 193.73 307.411 193.73C308.037 193.73 308.615 193.851 309.145 194.092C309.674 194.333 310.136 194.698 310.529 195.186C310.923 195.675 311.228 196.286 311.444 197.021C311.661 197.756 311.769 198.617 311.769 199.604C311.769 200.934 311.595 202.068 311.248 203.004C310.9 203.94 310.394 204.653 309.731 205.144ZM307.411 200.36C306.903 200.36 306.452 200.248 306.059 200.022C305.665 199.797 305.359 199.482 305.14 199.077C304.92 198.672 304.811 198.207 304.811 197.681C304.811 197.171 304.926 196.715 305.156 196.313C305.386 195.911 305.699 195.591 306.095 195.355C306.491 195.119 306.935 195.001 307.427 195.001C307.925 195.001 308.37 195.121 308.764 195.359C309.157 195.598 309.469 195.923 309.699 196.333C309.929 196.743 310.044 197.209 310.044 197.729C310.044 198.239 309.931 198.692 309.707 199.089C309.482 199.486 309.172 199.797 308.776 200.022C308.38 200.248 307.925 200.36 307.411 200.36ZM319.82 205.176C319.21 205.651 318.472 205.888 317.605 205.888C316.732 205.888 315.991 205.65 315.381 205.172C314.771 204.695 314.304 204.003 313.981 203.096C313.657 202.19 313.495 201.093 313.495 199.805C313.495 198.528 313.657 197.437 313.981 196.53C314.304 195.624 314.774 194.93 315.389 194.45C316.005 193.97 316.743 193.73 317.605 193.73C318.466 193.73 319.202 193.971 319.812 194.454C320.422 194.937 320.889 195.633 321.213 196.542C321.536 197.451 321.698 198.547 321.698 199.829C321.698 201.111 321.538 202.204 321.217 203.108C320.895 204.012 320.43 204.701 319.82 205.176ZM317.604 204.625C317.037 204.625 316.555 204.439 316.159 204.066C315.763 203.693 315.462 203.148 315.256 202.432C315.05 201.716 314.947 200.84 314.947 199.805C314.947 198.78 315.052 197.911 315.26 197.198C315.469 196.485 315.771 195.94 316.167 195.565C316.563 195.189 317.042 195.001 317.604 195.001C318.171 195.001 318.65 195.188 319.041 195.561C319.431 195.933 319.73 196.476 319.936 197.19C320.142 197.903 320.245 198.775 320.245 199.805C320.245 200.84 320.143 201.717 319.94 202.436C319.736 203.155 319.439 203.7 319.049 204.07C318.658 204.44 318.177 204.625 317.604 204.625ZM331.185 204.311V205.615H323.688V204.617L327.605 200.368C328.098 199.832 328.483 199.388 328.761 199.037C329.039 198.685 329.235 198.366 329.347 198.079C329.459 197.792 329.516 197.48 329.516 197.142C329.516 196.729 329.427 196.361 329.251 196.039C329.074 195.717 328.823 195.463 328.496 195.275C328.17 195.087 327.779 194.993 327.324 194.993C326.864 194.993 326.46 195.088 326.112 195.279C325.765 195.469 325.494 195.735 325.302 196.076C325.109 196.416 325.013 196.817 325.013 197.278H323.616C323.616 196.586 323.779 195.974 324.106 195.44C324.432 194.906 324.882 194.488 325.454 194.185C326.027 193.881 326.682 193.73 327.421 193.73C328.095 193.73 328.702 193.871 329.243 194.152C329.783 194.434 330.21 194.82 330.523 195.311C330.836 195.802 330.993 196.361 330.993 196.989C330.993 197.434 330.915 197.86 330.76 198.268C330.605 198.676 330.334 199.129 329.949 199.628C329.564 200.127 329.023 200.736 328.328 201.455L325.695 204.182V204.311H331.185ZM335.239 205.615L340.392 195.347V194.004H332.727V195.299H338.923V195.412L333.722 205.615H335.239ZM346.444 194.004V205.615H344.999V195.613H344.871C344.673 195.758 344.476 195.901 344.281 196.043L343.695 196.47C343.499 196.612 343.303 196.754 343.105 196.896C342.907 197.038 342.71 197.181 342.515 197.323C342.319 197.465 342.123 197.608 341.925 197.753V196.224C342.128 196.074 342.333 195.925 342.539 195.778L343.157 195.335L343.775 194.893L344.393 194.45C344.599 194.303 344.804 194.154 345.007 194.004H346.444ZM350.264 205.695C350.553 205.695 350.799 205.592 351.003 205.385C351.206 205.179 351.308 204.933 351.308 204.649C351.308 204.359 351.206 204.113 351.003 203.909C350.799 203.705 350.553 203.603 350.264 203.603C349.981 203.603 349.736 203.705 349.53 203.909C349.324 204.113 349.221 204.359 349.221 204.649C349.221 204.933 349.324 205.179 349.53 205.385C349.736 205.592 349.981 205.695 350.264 205.695ZM359.186 205.458C358.557 205.745 357.833 205.888 357.015 205.888C356.196 205.888 355.473 205.745 354.847 205.458C354.221 205.171 353.73 204.772 353.375 204.263C353.019 203.753 352.841 203.169 352.841 202.509C352.841 202.004 352.941 201.546 353.142 201.133C353.342 200.72 353.623 200.375 353.985 200.099C354.346 199.823 354.767 199.639 355.249 199.548V199.419C354.66 199.258 354.191 198.944 353.84 198.477C353.49 198.011 353.314 197.461 353.314 196.828C353.314 196.222 353.472 195.687 353.788 195.223C354.104 194.759 354.54 194.394 355.096 194.128C355.653 193.863 356.292 193.73 357.015 193.73C357.737 193.73 358.376 193.863 358.933 194.128C359.489 194.394 359.925 194.759 360.241 195.223C360.557 195.687 360.715 196.222 360.715 196.828C360.715 197.461 360.542 198.009 360.197 198.473C359.852 198.937 359.38 199.253 358.78 199.419V199.548C359.267 199.639 359.69 199.823 360.049 200.099C360.407 200.375 360.687 200.72 360.887 201.133C361.088 201.546 361.188 202.004 361.188 202.509C361.188 203.169 361.012 203.753 360.659 204.263C360.305 204.772 359.814 205.171 359.186 205.458ZM357.014 198.936C356.559 198.936 356.16 198.854 355.818 198.691C355.475 198.527 355.209 198.296 355.019 197.999C354.829 197.701 354.734 197.356 354.734 196.965C354.734 196.562 354.829 196.212 355.019 195.915C355.209 195.617 355.475 195.385 355.818 195.219C356.16 195.052 356.559 194.969 357.014 194.969C357.474 194.969 357.874 195.052 358.214 195.219C358.554 195.385 358.818 195.617 359.008 195.915C359.198 196.212 359.293 196.562 359.293 196.965C359.293 197.356 359.198 197.701 359.008 197.999C358.818 198.296 358.552 198.527 358.21 198.691C357.867 198.854 357.469 198.936 357.014 198.936ZM355.601 204.363C356.008 204.554 356.479 204.649 357.014 204.649C357.549 204.649 358.02 204.554 358.426 204.363C358.833 204.173 359.151 203.909 359.382 203.571C359.612 203.233 359.727 202.844 359.727 202.404C359.727 201.959 359.612 201.569 359.382 201.233C359.151 200.898 358.833 200.635 358.426 200.445C358.02 200.254 357.549 200.159 357.014 200.159C356.479 200.159 356.008 200.254 355.601 200.445C355.194 200.635 354.876 200.898 354.646 201.233C354.416 201.569 354.301 201.959 354.301 202.404C354.301 202.844 354.416 203.233 354.646 203.571C354.876 203.909 355.194 204.173 355.601 204.363ZM366.879 205.88C367.826 205.88 368.632 205.635 369.295 205.144C369.959 204.653 370.464 203.94 370.812 203.004C371.16 202.068 371.334 200.934 371.334 199.604C371.334 198.617 371.225 197.756 371.009 197.021C370.792 196.286 370.487 195.675 370.094 195.186C369.7 194.698 369.239 194.333 368.709 194.092C368.179 193.851 367.602 193.73 366.975 193.73C366.184 193.73 365.483 193.902 364.873 194.245C364.263 194.588 363.784 195.06 363.436 195.661C363.088 196.262 362.914 196.951 362.914 197.729C362.914 198.48 363.077 199.148 363.404 199.733C363.73 200.317 364.181 200.777 364.756 201.113C365.331 201.448 365.986 201.616 366.719 201.616C367.179 201.616 367.607 201.544 368.003 201.402C368.399 201.26 368.751 201.056 369.058 200.791C369.366 200.525 369.613 200.205 369.801 199.829H369.929C369.908 200.602 369.826 201.284 369.684 201.877C369.543 202.47 369.343 202.967 369.086 203.37C368.83 203.772 368.518 204.076 368.151 204.283C367.785 204.49 367.366 204.593 366.895 204.593C366.328 204.593 365.836 204.444 365.418 204.146C365.001 203.848 364.717 203.437 364.568 202.911H363.083C363.206 203.523 363.441 204.05 363.789 204.492C364.137 204.935 364.576 205.277 365.105 205.518C365.635 205.76 366.226 205.88 366.879 205.88ZM365.622 200.022C366.015 200.248 366.466 200.36 366.975 200.36C367.488 200.36 367.943 200.248 368.339 200.022C368.735 199.797 369.045 199.486 369.27 199.089C369.495 198.692 369.607 198.239 369.607 197.729C369.607 197.209 369.492 196.743 369.262 196.333C369.032 195.923 368.72 195.598 368.327 195.359C367.934 195.121 367.488 195.001 366.991 195.001C366.498 195.001 366.054 195.119 365.658 195.355C365.262 195.591 364.949 195.911 364.719 196.313C364.489 196.715 364.374 197.171 364.374 197.681C364.374 198.207 364.484 198.672 364.703 199.077C364.923 199.482 365.229 199.797 365.622 200.022Z" fill="white"/>
<defs>
<filter id="filter0_d_878_101733" x="140.839" y="-12" width="268.614" height="160.812" filterUnits="userSpaceOnUse" color-interpolation-filters="sRGB">
<feFlood flood-opacity="0" result="BackgroundImageFix"/>
<feColorMatrix in="SourceAlpha" type="matrix" values="0 0 0 0 0 0 0 0 0 0 0 0 0 0 0 0 0 0 127 0" result="hardAlpha"/>
<feOffset dy="2"/>
<feGaussianBlur stdDeviation="7"/>
<feColorMatrix type="matrix" values="0 0 0 0 0 0 0 0 0 0 0 0 0 0 0 0 0 0 0.106261 0"/>
<feBlend mode="normal" in2="BackgroundImageFix" result="effect1_dropShadow_878_101733"/>
<feBlend mode="normal" in="SourceGraphic" in2="effect1_dropShadow_878_101733" result="shape"/>
</filter>
<filter id="filter1_d_878_101733" x="140.839" y="367.188" width="268.614" height="160.812" filterUnits="userSpaceOnUse" color-interpolation-filters="sRGB">
<feFlood flood-opacity="0" result="BackgroundImageFix"/>
<feColorMatrix in="SourceAlpha" type="matrix" values="0 0 0 0 0 0 0 0 0 0 0 0 0 0 0 0 0 0 127 0" result="hardAlpha"/>
<feOffset dy="2"/>
<feGaussianBlur stdDeviation="7"/>
<feColorMatrix type="matrix" values="0 0 0 0 0 0 0 0 0 0 0 0 0 0 0 0 0 0 0.106261 0"/>
<feBlend mode="normal" in2="BackgroundImageFix" result="effect1_dropShadow_878_101733"/>
<feBlend mode="normal" in="SourceGraphic" in2="effect1_dropShadow_878_101733" result="shape"/>
</filter>
<filter id="filter2_f_878_101733" x="405.008" y="157.175" width="19.5843" height="70.6114" filterUnits="userSpaceOnUse" color-interpolation-filters="sRGB">
<feFlood flood-opacity="0" result="BackgroundImageFix"/>
<feBlend mode="normal" in="SourceGraphic" in2="BackgroundImageFix" result="shape"/>
<feGaussianBlur stdDeviation="2.97615" result="effect1_foregroundBlur_878_101733"/>
</filter>
</defs>
</svg>
