<svg width="100" height="21" viewBox="0 0 100 21" fill="none" xmlns="http://www.w3.org/2000/svg">
<path fill-rule="evenodd" clip-rule="evenodd" d="M16.1761 0H20.0083V12.1532C20.0083 18.5474 15.922 20.7917 9.99358 20.7917C4.08636 20.7917 0 18.5474 0 12.1532V0.486975C0 0.14821 0.169383 0 0.508148 0H4.34043V11.9627C4.34043 15.7949 6.03426 17.3829 9.99358 17.3829C13.9741 17.3829 15.6679 15.7949 15.6679 11.9627V0.486975C15.6679 0.14821 15.8373 0 16.1761 0ZM59.5592 3.32414V8.44797H69.2564C69.4258 8.44797 69.4893 8.53266 69.4258 8.70204L68.3671 11.3275C68.2613 11.5604 68.113 11.6662 67.7955 11.6662H62.1C60.2367 11.6662 59.5592 12.2379 59.5592 13.4871V17.1077H72.6864C72.8558 17.1077 72.9193 17.1924 72.8558 17.3617L71.7548 20.093C71.6489 20.3259 71.5007 20.4318 71.1831 20.4318H56.8067C55.7058 20.4318 55.2823 20.0507 55.2823 19.2249V1.41858C55.2823 0.423457 55.8328 0 57.2725 0H72.6864C72.8558 0 72.9193 0.0846914 72.8558 0.232901L71.7548 2.98537C71.6489 3.21827 71.5007 3.32414 71.1831 3.32414H59.5592ZM47.3848 14.7786C47.3848 18.865 44.5053 20.4318 40.4613 20.4318H29.7478C28.6257 20.4318 28.2234 20.0507 28.2234 19.2249V1.41858C28.2234 0.423457 28.7527 0 30.2137 0H38.9157C42.7268 0 46.4109 0.656358 46.4109 5.18735C46.4109 7.13525 45.7122 8.78673 44.0395 9.65482C46.3474 10.2688 47.3848 12.3438 47.3848 14.7786ZM32.4368 8.51148H39.2333C41.4776 8.51148 42.1128 7.6434 42.1128 5.86488C42.1128 4.08636 41.4776 3.23945 39.2333 3.23945H32.4368V8.51148ZM43.0867 14.3975C43.0867 12.5132 42.4304 11.5815 40.0167 11.5815H34.9987C33.1355 11.5815 32.4368 12.1532 32.4368 13.4024V17.1924H40.0167C42.4304 17.1924 43.0867 16.2607 43.0867 14.3975ZM99.4065 20.4318H95.5107C95.1931 20.4318 95.0661 20.3048 94.939 20.093L90.8103 12.6402H87.0204C85.1572 12.6402 84.4585 13.2119 84.4585 14.4611V20.4318H80.7321C80.3933 20.4318 80.2239 20.2624 80.2239 19.9448V1.41858C80.2239 0.423457 80.7744 0 82.2142 0H90.9585C96.0612 0 99.1313 1.33389 99.1313 6.28834C99.1313 10.1206 97.2892 11.6239 95.0026 12.2167L99.5971 20.0719C99.6818 20.1989 99.6818 20.4318 99.4065 20.4318ZM94.8332 6.37303C94.8332 4.29809 94.2615 3.28179 91.5937 3.28179H84.4585V9.46426H91.5937C94.2615 9.46426 94.8332 8.46914 94.8332 6.37303Z" fill="#FAFAFB"/>
</svg>
