<svg width="18" height="18" viewBox="0 0 18 18" fill="none" xmlns="http://www.w3.org/2000/svg">
<path fill-rule="evenodd" clip-rule="evenodd" d="M4.75 0H12.75C15.3734 0 17.5 2.12665 17.5 4.75V12.75C17.5 15.3734 15.3734 17.5 12.75 17.5H4.75C2.12665 17.5 0 15.3734 0 12.75V4.75C0 2.12665 2.12665 0 4.75 0ZM12.75 1.5H4.75C2.95507 1.5 1.5 2.95507 1.5 4.75V12.75C1.5 14.5449 2.95507 16 4.75 16H12.75C14.5449 16 16 14.5449 16 12.75V4.75C16 2.95507 14.5449 1.5 12.75 1.5ZM5 8.75C5 6.67893 6.67893 5 8.75 5C10.8211 5 12.5 6.67893 12.5 8.75C12.5 10.8211 10.8211 12.5 8.75 12.5C6.67893 12.5 5 10.8211 5 8.75ZM11 8.75C11 7.50736 9.99264 6.5 8.75 6.5C7.50736 6.5 6.5 7.50736 6.5 8.75C6.5 9.99264 7.50736 11 8.75 11C9.99264 11 11 9.99264 11 8.75ZM13.9932 4.14823C13.9435 3.78215 13.6297 3.5 13.25 3.5C12.8358 3.5 12.5 3.83579 12.5 4.251L12.5068 4.35277C12.5565 4.71885 12.8703 5.001 13.25 5.001C13.6642 5.001 14 4.66521 14 4.25L13.9932 4.14823Z" fill="#212121"/>
</svg>
