<svg width="13" height="20" viewBox="0 0 13 20" fill="none" xmlns="http://www.w3.org/2000/svg">
<path fill-rule="evenodd" clip-rule="evenodd" d="M11.75 0C12.1297 0 12.4435 0.282154 12.4932 0.648229L12.5 0.75V4.75C12.5 5.1297 12.2178 5.44349 11.8518 5.49315L11.75 5.5H8.75C8.63165 5.5 8.53251 5.58223 8.5066 5.69268L8.5 5.75V7H11.75C12.2054 7 12.5476 7.39944 12.495 7.83756L12.4776 7.9319L11.4776 11.9319C11.4034 12.2287 11.1581 12.4467 10.8628 12.4915L10.75 12.5H8.5V18.75C8.5 19.1297 8.21785 19.4435 7.85177 19.4932L7.75 19.5H3.75C3.3703 19.5 3.05651 19.2178 3.00685 18.8518L3 18.75V12.5H0.75C0.370304 12.5 0.056509 12.2178 0.00684662 11.8518L0 11.75V7.75C0 7.3703 0.282154 7.05651 0.648229 7.00685L0.75 7H3V5.75C3 2.64821 5.45602 0.120063 8.52944 0.00415208L8.75 0H11.75ZM11 1.5H8.75C6.47183 1.5 4.61231 3.29251 4.5049 5.54408L4.5 5.75V7.75C4.5 8.1297 4.21785 8.44349 3.85177 8.49315L3.75 8.5H1.5V11H3.75C4.1297 11 4.44349 11.2822 4.49315 11.6482L4.5 11.75V18H7V11.75C7 11.3703 7.28215 11.0565 7.64823 11.0068L7.75 11H10.164L10.789 8.5H7.75C7.3703 8.5 7.05651 8.21785 7.00685 7.85177L7 7.75V5.75C7 4.83183 7.70711 4.07881 8.60647 4.0058L8.75 4H11V1.5Z" fill="#212121"/>
</svg>
