<svg width="22" height="18" viewBox="0 0 22 18" fill="none" xmlns="http://www.w3.org/2000/svg">
<path fill-rule="evenodd" clip-rule="evenodd" d="M19.6776 5.37134L19.6825 4.8806L19.6874 4.9466C19.6894 4.95938 19.6917 4.96189 19.6936 4.96116L20.0487 4.2535L20.502 3.36816L20.7854 2.79306L20.9104 2.52807C21.1495 2.01271 21.3226 1.58406 21.4297 1.22395L21.4525 1.1386L21.459 1.12488C21.6187 0.680567 21.3294 0.112598 20.7505 0.112598L20.6392 0.120854L20.5324 0.14492L20.4215 0.189105C20.2328 0.281549 20.0384 0.36574 19.8322 0.444968L19.3937 0.600692L19.0186 0.717708L18.5404 0.85365L17.9685 1.0106L17.8465 0.90388C16.5936 -0.129996 14.8887 -0.25337 13.1085 0.413225L12.9002 0.496497C11.1876 1.2254 10.0642 2.82001 10.0037 4.64306L10.0015 5.0906L9.82045 5.08134C7.21875 4.89 4.91633 3.58804 3.3613 1.41601C3.04182 0.969754 2.36695 1.00652 2.09783 1.48484L2.00546 1.66082L1.95771 1.75767C1.258 3.2042 0.796605 4.96896 0.965948 6.82822L0.994488 7.09269C1.27935 9.37228 2.54176 11.3243 4.9406 12.7662L5.20648 12.9206L5.03363 13.0175C3.5632 13.8103 2.2369 14.1598 0.780648 14.1032C-0.0116024 14.0723 -0.303611 15.1317 0.39255 15.5111C3.93562 17.4423 7.73172 18.037 10.9946 17.0899C14.9733 15.934 17.9997 12.9556 19.1585 8.83043C19.4701 7.69978 19.644 6.53921 19.6776 5.37134ZM17.1902 2.35002C17.3831 2.56779 17.6847 2.65429 17.9638 2.57193L19.1342 2.24533L19.4235 2.1616L19.2461 2.52645L18.4169 4.15166L18.316 4.36083C18.2188 4.57216 18.1892 4.68145 18.1842 4.81938L18.1835 4.88062C18.1901 6.0779 18.032 7.27228 17.7134 8.42837C16.6977 12.0441 14.0638 14.6362 10.5763 15.6494L10.2683 15.733C8.32323 16.225 6.14591 16.1043 3.95507 15.4135L3.51448 15.2666L3.7669 15.1921C4.87082 14.8421 5.97487 14.2711 7.16727 13.4768C7.66131 13.1477 7.59536 12.4023 7.0512 12.1651C4.05076 10.857 2.66795 8.97791 2.45976 6.69216L2.4378 6.36254C2.3958 5.37531 2.56557 4.40568 2.85563 3.527L2.94248 3.2776L2.97849 3.31957C4.97884 5.49359 7.74678 6.6797 10.7707 6.60235C11.1773 6.59195 11.5015 6.25934 11.5015 5.8526V4.8526C11.483 3.49684 12.3196 2.31033 13.6345 1.81797C15.1153 1.26349 16.3766 1.43196 17.1902 2.35002Z" fill="#212121"/>
</svg>
