<svg width="20" height="14" viewBox="0 0 20 14" fill="none" xmlns="http://www.w3.org/2000/svg">
<path fill-rule="evenodd" clip-rule="evenodd" d="M5.25 0C7.32107 0 9 1.67893 9 3.75C9 4.95256 8.43395 6.0229 7.55376 6.70913L7.498 6.75L7.55376 6.79087C8.38505 7.43897 8.93614 8.4297 8.9948 9.55084L9 9.75C9 11.7543 7.42764 13.3913 5.44916 13.4948L5.25 13.5H0.75C0.370304 13.5 0.056509 13.2178 0.00684662 12.8518L0 12.75V6.75V0.75C0 0.370304 0.282154 0.056509 0.648229 0.00684662L0.75 0H5.25ZM1.5 7.5V12H5.25C6.44086 12 7.41564 11.0748 7.49481 9.90405L7.5 9.75C7.5 8.55914 6.57484 7.58436 5.40405 7.50519L5.25 7.5H1.5ZM5.28014 6.00059C5.27014 6.0002 5.2601 6 5.25 6H1.5V1.5H5.25L5.40405 1.50519C6.57484 1.58436 7.5 2.55914 7.5 3.75C7.5 4.94086 6.57484 5.91564 5.40405 5.99481L5.28014 6.00059ZM19.5 7.75C19.5 5.40279 17.5972 3.5 15.25 3.5C12.9028 3.5 11 5.40279 11 7.75V9.75L11.007 9.85237L11.0405 10.0582C11.3727 11.8271 12.7896 13.2046 14.5843 13.4749C16.4481 13.7556 18.2741 12.7752 19.0699 11.0667C19.2448 10.6912 19.0821 10.245 18.7067 10.0701C18.3312 9.89524 17.885 10.0579 17.7101 10.4333C17.1952 11.5389 16.0137 12.1732 14.8077 11.9916L14.6289 11.9587C13.5684 11.7268 12.7422 10.8902 12.5237 9.82689L12.5 9.693V8.5H18.75L18.8518 8.49315C19.2178 8.44349 19.5 8.1297 19.5 7.75ZM12.6207 6.94181C12.9659 5.81743 14.0125 5 15.25 5L15.4175 5.00502C16.5812 5.07495 17.5498 5.86854 17.8793 6.94181L17.895 7H12.604L12.6207 6.94181ZM17.5 0.75C17.5 0.335786 17.1642 0 16.75 0H13.75L13.6482 0.00684662C13.2822 0.056509 13 0.370304 13 0.75C13 1.16421 13.3358 1.5 13.75 1.5H16.75L16.8518 1.49315C17.2178 1.44349 17.5 1.1297 17.5 0.75Z" fill="#212121"/>
</svg>
