<svg width="350" height="356" viewBox="0 0 350 356" fill="none" xmlns="http://www.w3.org/2000/svg">
<ellipse cx="175" cy="177.745" rx="175" ry="177.745" fill="black"/>
<g clip-path="url(#clip0_878_102289)">
<path d="M76.072 188.023H93.4343C101.431 188.023 107.122 183.628 108.131 177.576C108.996 172.389 105.754 168.931 100.999 168.787L101.071 168.427C105.465 167.562 108.851 164.393 109.572 160.358C110.508 154.739 106.618 151.137 98.1891 151.137H82.1957L76.072 188.023ZM87.4548 180.026L88.6795 172.245H93.5063C96.6042 172.245 98.1891 173.686 97.7569 176.28C97.3966 178.729 95.4515 180.026 92.1375 180.026H87.4548ZM89.7601 166.05L90.9128 158.989H95.1633C97.6128 158.989 99.2698 160.214 98.9095 162.519C98.5493 164.753 96.4601 166.05 93.8666 166.05H89.7601ZM136.73 151.137L132.948 173.902C132.407 177.324 129.526 179.81 126.068 179.81C122.646 179.81 120.592 177.324 121.133 173.902L124.915 151.137H114.901L110.975 174.767C109.606 183.196 115.081 188.455 124.627 188.455C134.1 188.455 141.449 183.196 142.818 174.767L146.744 151.137H136.73ZM182.245 151.137H172.231L169.062 170.444H168.773L158.831 151.137H150.33L144.207 188.023H154.221L157.463 168.643H157.679L167.765 188.023H176.122L182.245 151.137ZM194.094 188.023C205.333 188.023 213.33 181.395 215.203 170.084C217.148 158.341 211.024 151.137 199.642 151.137H185.809L179.686 188.023H194.094ZM191.105 179.522L194.419 159.638H198.129C203.892 159.638 206.558 161.583 205.333 169.075C204.036 177 200.218 179.522 194.743 179.522H191.105ZM215.71 188.023H240.636L242.005 179.954H227.092L231.847 151.137H221.833L215.71 188.023ZM243.512 188.023H270.023L271.392 179.954H254.894L255.903 173.614H271.104L272.473 165.545H257.272L258.28 159.206H274.85L276.219 151.137H249.635L243.512 188.023Z" fill="white"/>
<path d="M80.5331 136.819H90.1457C94.5731 136.819 97.7241 134.386 98.2825 131.036C98.7611 128.164 96.9662 126.249 94.3337 126.17L94.3736 125.97C96.8067 125.492 98.6813 123.737 99.0802 121.503C99.5987 118.392 97.4449 116.398 92.7782 116.398H83.9234L80.5331 136.819ZM86.8351 132.392L87.5132 128.084H90.1856C91.9007 128.084 92.7782 128.882 92.5388 130.318C92.3394 131.674 91.2625 132.392 89.4277 132.392H86.8351ZM88.1115 124.654L88.7496 120.745H91.1029C92.4591 120.745 93.3765 121.423 93.177 122.7C92.9776 123.936 91.8209 124.654 90.385 124.654H88.1115ZM120.059 126.967C121.216 119.987 117.347 116.118 111.643 116.118C106.219 116.118 101.393 119.668 100.316 126.329C99.1589 133.269 103.028 137.099 108.772 137.099C114.156 137.099 118.943 133.628 120.059 126.967ZM114.475 126.329C113.837 130.118 111.883 132.272 108.971 132.272C106.418 132.272 105.262 130.517 105.9 126.967C106.498 123.178 108.492 120.945 111.444 120.945C114.037 120.945 115.034 122.819 114.475 126.329ZM141.759 126.967C142.916 119.987 139.047 116.118 133.343 116.118C127.918 116.118 123.092 119.668 122.015 126.329C120.858 133.269 124.727 137.099 130.471 137.099C135.856 137.099 140.642 133.628 141.759 126.967ZM136.175 126.329C135.537 130.118 133.582 132.272 130.671 132.272C128.118 132.272 126.961 130.517 127.599 126.967C128.198 123.178 130.192 120.945 133.143 120.945C135.736 120.945 136.733 122.819 136.175 126.329ZM143.154 120.865H149.296L146.664 136.819H152.128L154.761 120.865H160.903L161.661 116.398H143.912L143.154 120.865ZM173.03 122.779H178.335C179.013 118.751 176.341 116.118 171.395 116.118C166.529 116.118 162.7 118.711 162.061 122.62C161.543 125.811 163.457 127.566 166.928 128.363L168.882 128.802C171.076 129.281 171.794 129.879 171.634 130.796C171.475 131.794 170.438 132.512 168.643 132.512C166.529 132.512 165.412 131.514 165.651 129.64H160.386C159.549 134.745 162.66 137.059 167.965 137.059C173.15 137.059 176.62 134.825 177.298 130.796C177.817 127.685 176.301 125.492 171.953 124.534L170.358 124.175C168.483 123.776 167.685 123.178 167.925 122.221C168.084 121.304 168.922 120.665 170.637 120.665C172.432 120.665 173.15 121.463 173.03 122.779ZM179.835 120.865H185.977L183.345 136.819H188.809L191.442 120.865H197.584L198.342 116.398H180.592L179.835 120.865ZM196.389 136.819H201.933L203.06 130.079H204.974L207.437 136.819H213.46L210.578 129.201C212.922 128.154 214.557 126.17 215.016 123.338C215.734 118.99 213.141 116.398 208.594 116.398H199.779L196.389 136.819ZM203.778 125.771L204.605 120.825H206.56C208.474 120.825 209.511 121.583 209.232 123.338C208.953 125.093 207.677 125.771 205.722 125.771H203.778ZM220.075 136.819L221.91 132.91H228.641L229.169 136.819H235.152L231.802 116.398H224.223L214.092 136.819H220.075ZM223.855 128.762L227.016 122.021H227.175L228.082 128.762H223.855ZM236.47 136.819H242.014L243.031 130.757H246.083C250.789 130.757 254.339 128.044 255.057 123.617C255.775 119.269 253.222 116.398 248.675 116.398H239.86L236.47 136.819ZM243.749 126.449L244.687 120.825H246.641C248.595 120.825 249.553 121.862 249.274 123.617C248.994 125.372 247.678 126.449 245.684 126.449H243.749ZM267.37 137.099C272.366 137.099 276.115 134.067 276.783 129.799C277.431 125.93 275.197 123.178 271.558 123.178C269.494 123.178 267.659 124.096 266.811 125.332H266.692L267.848 120.825H277.022L277.74 116.398H264.019L261.347 127.645L266.054 128.603C266.702 127.606 267.858 127.007 269.045 127.007C270.73 127.007 271.727 128.164 271.438 129.959C271.129 131.754 269.773 132.91 268.048 132.91C266.582 132.91 265.545 131.993 265.734 130.597H260.35C259.761 134.386 262.673 137.099 267.37 137.099Z" fill="white"/>
</g>
<g clip-path="url(#clip1_878_102289)">
<rect x="109" y="212.819" width="136" height="43" rx="21.5" fill="white"/>
<path d="M137.129 237.555C137.129 238.951 136.624 240.047 135.614 240.842C134.604 241.637 133.212 242.034 131.436 242.034C129.66 242.034 128.206 241.758 127.074 241.207V238.779C127.79 239.116 128.549 239.381 129.352 239.574C130.161 239.768 130.913 239.864 131.607 239.864C132.624 239.864 133.373 239.671 133.853 239.284C134.34 238.897 134.583 238.378 134.583 237.727C134.583 237.139 134.361 236.642 133.917 236.233C133.473 235.825 132.556 235.342 131.167 234.783C129.735 234.203 128.725 233.541 128.138 232.796C127.55 232.051 127.257 231.156 127.257 230.11C127.257 228.8 127.722 227.769 128.653 227.017C129.584 226.265 130.834 225.889 132.402 225.889C133.906 225.889 135.403 226.218 136.893 226.877L136.076 228.972C134.68 228.384 133.434 228.091 132.338 228.091C131.507 228.091 130.877 228.273 130.447 228.639C130.018 228.997 129.803 229.473 129.803 230.067C129.803 230.476 129.889 230.826 130.061 231.12C130.232 231.407 130.515 231.679 130.909 231.937C131.303 232.194 132.012 232.535 133.036 232.957C134.189 233.437 135.034 233.884 135.571 234.3C136.108 234.715 136.502 235.184 136.753 235.707C137.004 236.23 137.129 236.846 137.129 237.555ZM147.077 241.819L146.572 240.165H146.486C145.914 240.888 145.337 241.382 144.757 241.647C144.177 241.905 143.432 242.034 142.523 242.034C141.355 242.034 140.442 241.719 139.783 241.089C139.132 240.459 138.806 239.567 138.806 238.414C138.806 237.189 139.261 236.266 140.17 235.643C141.08 235.02 142.465 234.679 144.327 234.622L146.379 234.558V233.924C146.379 233.165 146.2 232.599 145.842 232.227C145.491 231.847 144.943 231.657 144.198 231.657C143.59 231.657 143.006 231.747 142.447 231.926C141.889 232.105 141.352 232.316 140.836 232.56L140.02 230.755C140.664 230.418 141.37 230.164 142.136 229.992C142.902 229.813 143.625 229.724 144.306 229.724C145.817 229.724 146.956 230.053 147.722 230.712C148.495 231.371 148.882 232.406 148.882 233.816V241.819H147.077ZM143.318 240.101C144.234 240.101 144.968 239.846 145.52 239.338C146.078 238.822 146.358 238.103 146.358 237.179V236.147L144.832 236.212C143.643 236.255 142.777 236.455 142.233 236.813C141.695 237.164 141.427 237.705 141.427 238.436C141.427 238.965 141.584 239.377 141.9 239.671C142.215 239.957 142.687 240.101 143.318 240.101ZM154.856 241.819L150.344 229.938H153.008L155.425 236.846C155.841 238.006 156.091 238.944 156.177 239.66H156.263C156.327 239.145 156.578 238.206 157.015 236.846L159.432 229.938H162.118L157.584 241.819H154.856ZM168.854 242.034C167.006 242.034 165.56 241.497 164.514 240.423C163.476 239.341 162.957 237.855 162.957 235.965C162.957 234.024 163.44 232.499 164.407 231.389C165.374 230.279 166.702 229.724 168.392 229.724C169.96 229.724 171.199 230.2 172.109 231.152C173.018 232.105 173.473 233.415 173.473 235.084V236.448H165.556C165.592 237.601 165.904 238.489 166.491 239.112C167.078 239.728 167.905 240.036 168.972 240.036C169.674 240.036 170.326 239.972 170.927 239.843C171.536 239.707 172.188 239.485 172.882 239.177V241.229C172.266 241.522 171.643 241.73 171.013 241.852C170.383 241.973 169.663 242.034 168.854 242.034ZM168.392 231.636C167.59 231.636 166.945 231.89 166.459 232.398C165.979 232.907 165.692 233.648 165.599 234.622H170.992C170.977 233.641 170.741 232.9 170.283 232.398C169.824 231.89 169.194 231.636 168.392 231.636ZM191.157 236.953C191.157 237.992 190.778 238.847 190.018 239.521C189.259 240.194 188.164 240.609 186.731 240.767V243.098H185.303V240.831C183.527 240.802 182.069 240.53 180.931 240.015V237.748C181.546 238.049 182.266 238.303 183.09 238.511C183.913 238.711 184.651 238.815 185.303 238.822V234.805L184.4 234.472C183.226 234.021 182.366 233.483 181.822 232.86C181.285 232.23 181.016 231.453 181.016 230.529C181.016 229.541 181.4 228.728 182.166 228.091C182.939 227.453 183.985 227.067 185.303 226.931V225.126H186.731V226.898C188.185 226.949 189.564 227.242 190.867 227.779L190.083 229.745C188.959 229.301 187.841 229.036 186.731 228.95V232.86L187.548 233.172C188.908 233.695 189.85 234.246 190.373 234.826C190.896 235.406 191.157 236.115 191.157 236.953ZM188.622 237.114C188.622 236.699 188.475 236.359 188.182 236.094C187.895 235.822 187.412 235.56 186.731 235.31V238.736C187.992 238.543 188.622 238.002 188.622 237.114ZM183.541 230.508C183.541 230.916 183.666 231.256 183.917 231.528C184.175 231.8 184.637 232.069 185.303 232.334V228.993C184.73 229.079 184.293 229.255 183.992 229.52C183.691 229.785 183.541 230.114 183.541 230.508ZM203.071 229.724C203.071 230.719 202.781 231.55 202.201 232.216C201.621 232.875 200.805 233.319 199.752 233.548V233.634C201.012 233.791 201.958 234.185 202.588 234.815C203.218 235.438 203.533 236.269 203.533 237.308C203.533 238.819 203 239.986 201.933 240.81C200.866 241.626 199.347 242.034 197.378 242.034C195.638 242.034 194.17 241.751 192.974 241.186V238.94C193.64 239.27 194.345 239.524 195.09 239.703C195.835 239.882 196.551 239.972 197.238 239.972C198.456 239.972 199.365 239.746 199.967 239.295C200.568 238.844 200.869 238.146 200.869 237.2C200.869 236.362 200.536 235.746 199.87 235.353C199.204 234.959 198.159 234.762 196.733 234.762H195.369V232.71H196.755C199.261 232.71 200.515 231.843 200.515 230.11C200.515 229.437 200.296 228.918 199.859 228.553C199.423 228.188 198.778 228.005 197.926 228.005C197.331 228.005 196.759 228.091 196.207 228.263C195.656 228.427 195.004 228.753 194.252 229.24L193.017 227.479C194.456 226.419 196.128 225.889 198.033 225.889C199.616 225.889 200.851 226.229 201.739 226.909C202.627 227.59 203.071 228.528 203.071 229.724ZM210.656 232.012C212.239 232.012 213.492 232.431 214.416 233.269C215.34 234.106 215.802 235.249 215.802 236.695C215.802 238.371 215.276 239.682 214.223 240.627C213.177 241.565 211.688 242.034 209.754 242.034C208 242.034 206.621 241.751 205.618 241.186V238.897C206.198 239.227 206.864 239.481 207.616 239.66C208.368 239.839 209.067 239.929 209.711 239.929C210.85 239.929 211.716 239.674 212.311 239.166C212.905 238.658 213.202 237.913 213.202 236.932C213.202 235.055 212.006 234.117 209.614 234.117C209.278 234.117 208.863 234.153 208.368 234.225C207.874 234.289 207.441 234.364 207.069 234.45L205.941 233.784L206.542 226.114H214.706V228.359H208.766L208.411 232.248C208.662 232.205 208.966 232.155 209.324 232.098C209.69 232.04 210.134 232.012 210.656 232.012ZM228.844 238.393H226.728V241.819H224.268V238.393H217.092V236.448L224.268 226.071H226.728V236.298H228.844V238.393ZM224.268 236.298V232.355C224.268 230.952 224.304 229.802 224.375 228.907H224.289C224.089 229.38 223.774 229.953 223.344 230.626L219.445 236.298H224.268Z" fill="#121212"/>
</g>
<defs>
<clipPath id="clip0_878_102289">
<rect width="201.493" height="90.2032" fill="white" transform="translate(76 109.819)"/>
</clipPath>
<clipPath id="clip1_878_102289">
<rect width="136" height="43" fill="white" transform="translate(109 212.819)"/>
</clipPath>
</defs>
</svg>
