<svg width="18" height="20" viewBox="0 0 18 20" fill="none" xmlns="http://www.w3.org/2000/svg">
<path fill-rule="evenodd" clip-rule="evenodd" d="M2.44444 0C2.73775 0 2.99236 0.190843 3.07941 0.463355L3.10204 0.557067L3.74933 4.44444H16.6667C17.0412 4.44444 17.3355 4.75062 17.3334 5.11361L17.3266 5.20539L16.4377 11.4276L16.4067 11.5545C15.934 12.8988 14.6626 13.7875 13.284 13.783L13.1111 13.7778L6.92664 13.7767C5.50396 13.8574 4.19462 13.0257 3.65651 11.7201L3.59331 11.5545L3.56463 11.4429L2.55822 5.40444L2.54128 5.37061C2.51879 5.31744 2.503 5.26074 2.49497 5.20157L2.48889 5.11111C2.48889 5.08043 2.49096 5.05023 2.49497 5.02065L1.87911 1.33333H0.666667C0.329159 1.33333 0.0502303 1.08253 0.00608588 0.757129L0 0.666667C0 0.329159 0.250803 0.0502303 0.576204 0.00608588L0.666667 0H2.44444ZM15.8978 5.77778H3.97156L4.86756 11.1547L4.90859 11.2573C5.222 11.9669 5.92151 12.432 6.72655 12.4474L6.88889 12.4444L13.1489 12.4455C13.9857 12.493 14.7572 12.0142 15.0914 11.2573L15.128 11.1627L15.8978 5.77778ZM3.55556 17.0556C3.55556 15.7055 4.64997 14.6111 6 14.6111C7.35003 14.6111 8.44444 15.7055 8.44444 17.0556C8.44444 18.4056 7.35003 19.5 6 19.5C4.64997 19.5 3.55556 18.4056 3.55556 17.0556ZM7.11111 17.0556C7.11111 16.4419 6.61365 15.9444 6 15.9444C5.38635 15.9444 4.88889 16.4419 4.88889 17.0556C4.88889 17.6692 5.38635 18.1667 6 18.1667C6.61365 18.1667 7.11111 17.6692 7.11111 17.0556ZM10.6667 17.0556C10.6667 15.7055 11.7611 14.6111 13.1111 14.6111C14.4611 14.6111 15.5556 15.7055 15.5556 17.0556C15.5556 18.4056 14.4611 19.5 13.1111 19.5C11.7611 19.5 10.6667 18.4056 10.6667 17.0556ZM14.2222 17.0556C14.2222 16.4419 13.7248 15.9444 13.1111 15.9444C12.4975 15.9444 12 16.4419 12 17.0556C12 17.6692 12.4975 18.1667 13.1111 18.1667C13.7248 18.1667 14.2222 17.6692 14.2222 17.0556Z" fill="#212121"/>
</svg>
