<svg width="26" height="33" viewBox="0 0 26 33" fill="none" xmlns="http://www.w3.org/2000/svg">
<path d="M25.2776 12.5681H13.8067L15.1616 0.775587C15.1977 0.461398 15.0106 0.16257 14.7059 0.0480656C14.4004 -0.0678351 14.0544 0.0313088 13.8609 0.286849L0.138819 18.44C-0.0215124 18.6522 -0.0446232 18.9336 0.0781531 19.1675C0.201652 19.4028 0.450815 19.5501 0.722368 19.5501H12.1933L10.8384 31.3426C10.8023 31.6568 10.9894 31.9557 11.2941 32.0702C11.3794 32.1023 11.4675 32.1176 11.5556 32.1176C11.7809 32.1176 11.9997 32.0157 12.1391 31.8314L25.8612 13.6783C26.0215 13.466 26.0446 13.1846 25.9218 12.9507C25.7983 12.7155 25.5492 12.5681 25.2776 12.5681Z" fill="#FD7E14"/>
</svg>
