<svg width="350" height="353" viewBox="0 0 350 353" fill="none" xmlns="http://www.w3.org/2000/svg">
<ellipse cx="175" cy="176.111" rx="175" ry="176.111" fill="#F68496"/>
<g clip-path="url(#clip0_878_102277)">
<path d="M71.081 196.091H90.6136C99.6099 196.091 106.013 191.147 107.147 184.339C108.12 178.504 104.473 174.614 99.1236 174.452L99.2047 174.046C104.149 173.074 107.958 169.508 108.768 164.969C109.822 158.647 105.445 154.595 95.9628 154.595H77.9701L71.081 196.091ZM83.8866 187.095L85.2644 178.342H90.6946C94.1797 178.342 95.9628 179.963 95.4765 182.881C95.0712 185.636 92.8829 187.095 89.1547 187.095H83.8866ZM86.4801 171.372L87.7769 163.429H92.5587C95.3144 163.429 97.1785 164.807 96.7732 167.4C96.368 169.913 94.0176 171.372 91.0999 171.372H86.4801ZM139.321 154.595L135.066 180.206C134.458 184.056 131.216 186.852 127.326 186.852C123.476 186.852 121.166 184.056 121.774 180.206L126.029 154.595H114.764L110.347 181.179C108.807 190.661 114.966 196.578 125.705 196.578C136.363 196.578 144.63 190.661 146.17 181.179L150.587 154.595H139.321ZM190.526 154.595H179.26L175.694 176.316H175.37L164.185 154.595H154.622L147.733 196.091H158.998L162.646 174.289H162.889L174.235 196.091H183.637L190.526 154.595ZM203.856 196.091C216.5 196.091 225.496 188.635 227.603 175.91C229.791 162.7 222.902 154.595 210.097 154.595H194.536L187.647 196.091H203.856ZM200.493 186.528L204.221 164.158H208.395C214.879 164.158 217.877 166.347 216.5 174.776C215.041 183.691 210.745 186.528 204.586 186.528H200.493ZM228.173 196.091H256.216L257.756 187.014H240.979L246.328 154.595H235.062L228.173 196.091ZM259.451 196.091H289.276L290.816 187.014H272.256L273.391 179.882H290.492L292.032 170.804H274.931L276.065 163.672H294.706L296.246 154.595H266.34L259.451 196.091Z" fill="black"/>
<path d="M81.1036 141.819C86.9836 141.819 91.1675 138.352 92.1475 132.434C93.1652 126.29 89.9613 122.521 84.0059 122.521H76.7689L73.565 141.819H81.1036ZM79.5393 137.372L81.2732 126.968H83.2143C86.2298 126.968 87.6244 127.986 86.9836 131.906C86.3051 136.052 84.3074 137.372 81.4428 137.372H79.5393ZM92.4127 141.819H106.284L107 137.598H98.3681L98.8958 134.281H106.849L107.565 130.059H99.612L100.14 126.742H108.809L109.525 122.521H95.6165L92.4127 141.819ZM116.749 122.521H111.51L108.306 141.819H113.545L116.749 122.521ZM128.004 128.552H133.017C133.658 124.745 131.133 122.257 126.459 122.257C121.86 122.257 118.242 124.707 117.639 128.401C117.149 131.416 118.958 133.075 122.237 133.829L124.084 134.243C126.157 134.695 126.836 135.261 126.685 136.128C126.534 137.07 125.554 137.749 123.858 137.749C121.86 137.749 120.805 136.806 121.031 135.035H116.056C115.264 139.859 118.204 142.045 123.217 142.045C128.117 142.045 131.397 139.935 132.037 136.128C132.527 133.188 131.095 131.115 126.986 130.21L125.479 129.871C123.707 129.494 122.953 128.928 123.18 128.024C123.33 127.157 124.122 126.554 125.743 126.554C127.439 126.554 128.117 127.308 128.004 128.552ZM140.918 122.521H135.678L132.474 141.819H137.714L140.918 122.521ZM154.264 128.891H159.56C159.805 125.018 156.743 122.257 152.191 122.257C146.98 122.257 142.165 125.838 141.11 132.208C140.101 138.314 143.305 142.083 148.931 142.083C153.991 142.083 158.119 138.992 158.995 133.715L159.428 131.039H150.872L150.269 134.771H153.756C153.445 136.448 151.984 137.522 149.628 137.522C146.924 137.522 145.953 135.525 146.519 132.132C147.065 128.787 149.091 126.818 151.739 126.818C153.369 126.818 154.17 127.572 154.264 128.891ZM179.369 122.521H174.13L172.471 132.622H172.321L167.119 122.521H162.671L159.467 141.819H164.707L166.403 131.68H166.516L171.793 141.819H176.165L179.369 122.521ZM195.292 128.552H200.305C200.946 124.745 198.421 122.257 193.747 122.257C189.148 122.257 185.53 124.707 184.927 128.401C184.437 131.416 186.246 133.075 189.525 133.829L191.372 134.243C193.445 134.695 194.124 135.261 193.973 136.128C193.822 137.07 192.842 137.749 191.146 137.749C189.148 137.749 188.093 136.806 188.319 135.035H183.344C182.552 139.859 185.492 142.045 190.505 142.045C195.405 142.045 198.684 139.935 199.325 136.128C199.815 133.188 198.383 131.115 194.274 130.21L192.767 129.871C190.995 129.494 190.241 128.928 190.467 128.024C190.618 127.157 191.41 126.554 193.031 126.554C194.727 126.554 195.405 127.308 195.292 128.552ZM202.175 122.521L207.075 135.751L206.057 141.819H211.259L212.276 135.751L221.549 122.521H215.706L210.656 130.361H210.467L208.017 122.521H202.175ZM232.029 128.552H237.042C237.682 124.745 235.157 122.257 230.483 122.257C225.885 122.257 222.266 124.707 221.663 128.401C221.173 131.416 222.982 133.075 226.262 133.829L228.109 134.243C230.182 134.695 230.86 135.261 230.709 136.128C230.559 137.07 229.579 137.749 227.882 137.749C225.885 137.749 224.829 136.806 225.055 135.035H220.08C219.288 139.859 222.228 142.045 227.242 142.045C232.142 142.045 235.421 139.935 236.062 136.128C236.552 133.188 235.119 131.115 231.011 130.21L229.503 129.871C227.732 129.494 226.978 128.928 227.204 128.024C227.355 127.157 228.146 126.554 229.767 126.554C231.463 126.554 232.142 127.308 232.029 128.552ZM238.459 126.742H244.264L241.776 141.819H246.94L249.427 126.742H255.232L255.948 122.521H239.175L238.459 126.742ZM254.103 141.819H267.973L268.69 137.598H260.058L260.586 134.281H268.539L269.255 130.059H261.302L261.83 126.742H270.499L271.215 122.521H257.306L254.103 141.819ZM273.2 122.521L269.996 141.819H275.122L277.007 130.587H277.158L279.608 141.669H282.698L288.805 130.662H288.955L287.109 141.819H292.235L295.439 122.521H288.918L282.623 133.452H282.397L279.721 122.521H273.2Z" fill="black"/>
</g>
<g clip-path="url(#clip1_878_102277)">
<rect x="115" y="221.819" width="136" height="43" rx="21.5" fill="black"/>
<path d="M143.129 246.555C143.129 247.951 142.624 249.047 141.614 249.842C140.604 250.637 139.212 251.034 137.436 251.034C135.66 251.034 134.206 250.758 133.074 250.207V247.779C133.79 248.116 134.549 248.381 135.352 248.574C136.161 248.768 136.913 248.864 137.607 248.864C138.624 248.864 139.373 248.671 139.853 248.284C140.34 247.897 140.583 247.378 140.583 246.727C140.583 246.139 140.361 245.642 139.917 245.233C139.473 244.825 138.556 244.342 137.167 243.783C135.735 243.203 134.725 242.541 134.138 241.796C133.55 241.051 133.257 240.156 133.257 239.11C133.257 237.8 133.722 236.769 134.653 236.017C135.584 235.265 136.834 234.889 138.402 234.889C139.906 234.889 141.403 235.218 142.893 235.877L142.076 237.972C140.68 237.384 139.434 237.091 138.338 237.091C137.507 237.091 136.877 237.273 136.447 237.639C136.018 237.997 135.803 238.473 135.803 239.067C135.803 239.476 135.889 239.826 136.061 240.12C136.232 240.407 136.515 240.679 136.909 240.937C137.303 241.194 138.012 241.535 139.036 241.957C140.189 242.437 141.034 242.884 141.571 243.3C142.108 243.715 142.502 244.184 142.753 244.707C143.004 245.23 143.129 245.846 143.129 246.555ZM153.077 250.819L152.572 249.165H152.486C151.914 249.888 151.337 250.382 150.757 250.647C150.177 250.905 149.432 251.034 148.523 251.034C147.355 251.034 146.442 250.719 145.783 250.089C145.132 249.459 144.806 248.567 144.806 247.414C144.806 246.189 145.261 245.266 146.17 244.643C147.08 244.02 148.465 243.679 150.327 243.622L152.379 243.558V242.924C152.379 242.165 152.2 241.599 151.842 241.227C151.491 240.847 150.943 240.657 150.198 240.657C149.59 240.657 149.006 240.747 148.447 240.926C147.889 241.105 147.352 241.316 146.836 241.56L146.02 239.755C146.664 239.418 147.37 239.164 148.136 238.992C148.902 238.813 149.625 238.724 150.306 238.724C151.817 238.724 152.956 239.053 153.722 239.712C154.495 240.371 154.882 241.406 154.882 242.816V250.819H153.077ZM149.318 249.101C150.234 249.101 150.968 248.846 151.52 248.338C152.078 247.822 152.358 247.103 152.358 246.179V245.147L150.832 245.212C149.643 245.255 148.777 245.455 148.233 245.813C147.695 246.164 147.427 246.705 147.427 247.436C147.427 247.965 147.584 248.377 147.9 248.671C148.215 248.957 148.687 249.101 149.318 249.101ZM160.856 250.819L156.344 238.938H159.008L161.425 245.846C161.841 247.006 162.091 247.944 162.177 248.66H162.263C162.327 248.145 162.578 247.206 163.015 245.846L165.432 238.938H168.118L163.584 250.819H160.856ZM174.854 251.034C173.006 251.034 171.56 250.497 170.514 249.423C169.476 248.341 168.957 246.855 168.957 244.965C168.957 243.024 169.44 241.499 170.407 240.389C171.374 239.279 172.702 238.724 174.392 238.724C175.96 238.724 177.199 239.2 178.109 240.152C179.018 241.105 179.473 242.415 179.473 244.084V245.448H171.556C171.592 246.601 171.904 247.489 172.491 248.112C173.078 248.728 173.905 249.036 174.972 249.036C175.674 249.036 176.326 248.972 176.927 248.843C177.536 248.707 178.188 248.485 178.882 248.177V250.229C178.266 250.522 177.643 250.73 177.013 250.852C176.383 250.973 175.663 251.034 174.854 251.034ZM174.392 240.636C173.59 240.636 172.945 240.89 172.459 241.398C171.979 241.907 171.692 242.648 171.599 243.622H176.992C176.977 242.641 176.741 241.9 176.283 241.398C175.824 240.89 175.194 240.636 174.392 240.636ZM197.157 245.953C197.157 246.992 196.778 247.847 196.018 248.521C195.259 249.194 194.164 249.609 192.731 249.767V252.098H191.303V249.831C189.527 249.802 188.069 249.53 186.931 249.015V246.748C187.546 247.049 188.266 247.303 189.09 247.511C189.913 247.711 190.651 247.815 191.303 247.822V243.805L190.4 243.472C189.226 243.021 188.366 242.483 187.822 241.86C187.285 241.23 187.016 240.453 187.016 239.529C187.016 238.541 187.4 237.728 188.166 237.091C188.939 236.453 189.985 236.067 191.303 235.931V234.126H192.731V235.898C194.185 235.949 195.564 236.242 196.867 236.779L196.083 238.745C194.959 238.301 193.841 238.036 192.731 237.95V241.86L193.548 242.172C194.908 242.695 195.85 243.246 196.373 243.826C196.896 244.406 197.157 245.115 197.157 245.953ZM194.622 246.114C194.622 245.699 194.475 245.359 194.182 245.094C193.895 244.822 193.412 244.56 192.731 244.31V247.736C193.992 247.543 194.622 247.002 194.622 246.114ZM189.541 239.508C189.541 239.916 189.666 240.256 189.917 240.528C190.175 240.8 190.637 241.069 191.303 241.334V237.993C190.73 238.079 190.293 238.255 189.992 238.52C189.691 238.785 189.541 239.114 189.541 239.508ZM206.429 250.819H203.904V240.679C203.904 239.468 203.933 238.509 203.99 237.8C203.826 237.972 203.621 238.161 203.378 238.369C203.142 238.577 202.34 239.236 200.972 240.346L199.704 238.745L204.323 235.114H206.429V250.819ZM211.371 244.127C211.371 237.982 213.874 234.91 218.88 234.91C219.668 234.91 220.334 234.971 220.878 235.093V237.198C220.334 237.041 219.704 236.962 218.988 236.962C217.305 236.962 216.041 237.413 215.196 238.315C214.35 239.218 213.892 240.664 213.821 242.655H213.949C214.286 242.075 214.759 241.628 215.367 241.312C215.976 240.99 216.692 240.829 217.516 240.829C218.941 240.829 220.051 241.266 220.846 242.14C221.641 243.013 222.038 244.199 222.038 245.695C222.038 247.342 221.576 248.646 220.653 249.605C219.736 250.558 218.483 251.034 216.893 251.034C215.768 251.034 214.791 250.766 213.96 250.229C213.129 249.684 212.488 248.896 212.037 247.865C211.593 246.827 211.371 245.581 211.371 244.127ZM216.85 248.95C217.716 248.95 218.382 248.671 218.848 248.112C219.321 247.554 219.557 246.755 219.557 245.717C219.557 244.814 219.335 244.105 218.891 243.59C218.454 243.074 217.795 242.816 216.914 242.816C216.37 242.816 215.869 242.935 215.41 243.171C214.952 243.4 214.59 243.719 214.325 244.127C214.06 244.528 213.928 244.94 213.928 245.362C213.928 246.372 214.2 247.224 214.744 247.919C215.296 248.606 215.998 248.95 216.85 248.95ZM223.683 244.127C223.683 237.982 226.186 234.91 231.192 234.91C231.98 234.91 232.646 234.971 233.19 235.093V237.198C232.646 237.041 232.015 236.962 231.299 236.962C229.616 236.962 228.352 237.413 227.507 238.315C226.662 239.218 226.204 240.664 226.132 242.655H226.261C226.598 242.075 227.07 241.628 227.679 241.312C228.288 240.99 229.004 240.829 229.828 240.829C231.253 240.829 232.363 241.266 233.158 242.14C233.953 243.013 234.35 244.199 234.35 245.695C234.35 247.342 233.888 248.646 232.964 249.605C232.048 250.558 230.794 251.034 229.204 251.034C228.08 251.034 227.103 250.766 226.272 250.229C225.441 249.684 224.8 248.896 224.349 247.865C223.905 246.827 223.683 245.581 223.683 244.127ZM229.162 248.95C230.028 248.95 230.694 248.671 231.16 248.112C231.632 247.554 231.869 246.755 231.869 245.717C231.869 244.814 231.647 244.105 231.203 243.59C230.766 243.074 230.107 242.816 229.226 242.816C228.682 242.816 228.18 242.935 227.722 243.171C227.264 243.4 226.902 243.719 226.637 244.127C226.372 244.528 226.24 244.94 226.24 245.362C226.24 246.372 226.512 247.224 227.056 247.919C227.607 248.606 228.309 248.95 229.162 248.95Z" fill="#F68496"/>
</g>
<defs>
<clipPath id="clip0_878_102277">
<rect width="223.527" height="93.272" fill="white" transform="translate(71 115.819)"/>
</clipPath>
<clipPath id="clip1_878_102277">
<rect width="136" height="43" fill="white" transform="translate(115 221.819)"/>
</clipPath>
</defs>
</svg>
