<svg width="350" height="346" viewBox="0 0 350 346" fill="none" xmlns="http://www.w3.org/2000/svg">
<ellipse cx="175" cy="173" rx="175" ry="173" fill="#40FF93"/>
<g clip-path="url(#clip0_878_102300)">
<path d="M76.072 204.078H93.4343C101.431 204.078 107.122 199.684 108.131 193.632C108.996 188.445 105.754 184.987 100.999 184.843L101.071 184.483C105.465 183.618 108.851 180.448 109.572 176.414C110.508 170.794 106.618 167.192 98.1891 167.192H82.1957L76.072 204.078ZM87.4548 196.081L88.6795 188.301H93.5063C96.6042 188.301 98.1891 189.742 97.7569 192.335C97.3966 194.785 95.4515 196.081 92.1375 196.081H87.4548ZM89.7601 182.105L90.9128 175.045H95.1633C97.6128 175.045 99.2698 176.27 98.9095 178.575C98.5493 180.808 96.4601 182.105 93.8666 182.105H89.7601ZM136.73 167.192L132.948 189.958C132.407 193.38 129.526 195.865 126.068 195.865C122.646 195.865 120.592 193.38 121.133 189.958L124.915 167.192H114.901L110.975 190.822C109.606 199.251 115.081 204.51 124.627 204.51C134.1 204.51 141.449 199.251 142.818 190.822L146.744 167.192H136.73ZM182.245 167.192H172.231L169.062 186.5H168.773L158.831 167.192H150.33L144.207 204.078H154.221L157.463 184.699H157.679L167.765 204.078H176.122L182.245 167.192ZM194.094 204.078C205.333 204.078 213.33 197.45 215.203 186.14C217.148 174.397 211.024 167.192 199.642 167.192H185.809L179.686 204.078H194.094ZM191.105 195.577L194.419 175.693H198.129C203.892 175.693 206.558 177.639 205.333 185.131C204.036 193.056 200.218 195.577 194.743 195.577H191.105ZM215.71 204.078H240.636L242.005 196.009H227.092L231.847 167.192H221.833L215.71 204.078ZM243.512 204.078H270.023L271.392 196.009H254.894L255.903 189.67H271.104L272.473 181.601H257.272L258.28 175.261H274.85L276.219 167.192H249.635L243.512 204.078Z" fill="black"/>
<path d="M118.106 131.919H127.688C128.912 124.643 124.085 119.888 115.152 119.888C106.363 119.888 99.4469 124.571 98.2942 131.631C97.3577 137.394 100.816 140.564 107.083 142.005L110.614 142.798C114.576 143.662 115.873 144.743 115.584 146.4C115.296 148.201 113.423 149.498 110.181 149.498C106.363 149.498 104.346 147.697 104.778 144.311H95.2684C93.7556 153.532 99.3749 157.71 108.957 157.71C118.322 157.71 124.59 153.676 125.815 146.4C126.751 140.78 124.013 136.818 116.161 135.089L113.279 134.441C109.893 133.72 108.452 132.64 108.884 130.911C109.173 129.254 110.686 128.101 113.783 128.101C117.025 128.101 118.322 129.542 118.106 131.919ZM154.603 120.392L150.82 143.158C150.28 146.58 147.398 149.065 143.94 149.065C140.518 149.065 138.465 146.58 139.005 143.158L142.788 120.392H132.774L128.847 144.022C127.479 152.451 132.954 157.71 142.499 157.71C151.973 157.71 159.321 152.451 160.69 144.022L164.616 120.392H154.603ZM162.079 157.278H172.093L173.93 146.328H179.442C187.943 146.328 194.355 141.429 195.651 133.432C196.948 125.579 192.337 120.392 184.125 120.392H168.203L162.079 157.278ZM175.227 138.547L176.92 128.389H180.45C183.98 128.389 185.709 130.262 185.205 133.432C184.701 136.602 182.323 138.547 178.721 138.547H175.227ZM194.19 157.278H220.702L222.071 149.209H205.573L206.582 142.87H221.783L223.152 134.801H207.951L208.959 128.461H225.529L226.898 120.392H200.314L194.19 157.278ZM224.568 157.278H234.582L236.617 145.103H240.075L244.524 157.278H255.402L250.197 143.518C254.43 141.627 257.383 138.043 258.212 132.928C259.509 125.075 254.826 120.392 246.613 120.392H230.692L224.568 157.278ZM237.914 137.322L239.409 128.389H242.939C246.397 128.389 248.27 129.758 247.766 132.928C247.261 136.098 244.956 137.322 241.426 137.322H237.914Z" fill="black"/>
</g>
<g clip-path="url(#clip1_878_102300)">
<rect x="107" y="228.278" width="136" height="43" rx="21.5" fill="black"/>
<path d="M135.129 253.014C135.129 254.41 134.624 255.506 133.614 256.301C132.604 257.096 131.212 257.493 129.436 257.493C127.66 257.493 126.206 257.217 125.074 256.666V254.238C125.79 254.575 126.549 254.84 127.352 255.033C128.161 255.226 128.913 255.323 129.607 255.323C130.624 255.323 131.373 255.13 131.853 254.743C132.34 254.356 132.583 253.837 132.583 253.185C132.583 252.598 132.361 252.1 131.917 251.692C131.473 251.284 130.556 250.801 129.167 250.242C127.735 249.662 126.725 249 126.138 248.255C125.55 247.51 125.257 246.615 125.257 245.569C125.257 244.259 125.722 243.227 126.653 242.475C127.584 241.723 128.834 241.348 130.402 241.348C131.906 241.348 133.403 241.677 134.893 242.336L134.076 244.431C132.68 243.843 131.434 243.55 130.338 243.55C129.507 243.55 128.877 243.732 128.447 244.098C128.018 244.456 127.803 244.932 127.803 245.526C127.803 245.934 127.889 246.285 128.061 246.579C128.232 246.865 128.515 247.138 128.909 247.395C129.303 247.653 130.012 247.993 131.036 248.416C132.189 248.896 133.034 249.343 133.571 249.759C134.108 250.174 134.502 250.643 134.753 251.166C135.004 251.689 135.129 252.305 135.129 253.014ZM145.077 257.278L144.572 255.624H144.486C143.914 256.347 143.337 256.841 142.757 257.106C142.177 257.364 141.432 257.493 140.523 257.493C139.355 257.493 138.442 257.178 137.783 256.548C137.132 255.917 136.806 255.026 136.806 253.873C136.806 252.648 137.261 251.724 138.17 251.101C139.08 250.478 140.465 250.138 142.327 250.081L144.379 250.016V249.383C144.379 248.624 144.2 248.058 143.842 247.685C143.491 247.306 142.943 247.116 142.198 247.116C141.59 247.116 141.006 247.206 140.447 247.385C139.889 247.564 139.352 247.775 138.836 248.018L138.02 246.214C138.664 245.877 139.37 245.623 140.136 245.451C140.902 245.272 141.625 245.182 142.306 245.182C143.817 245.182 144.956 245.512 145.722 246.171C146.495 246.83 146.882 247.864 146.882 249.275V257.278H145.077ZM141.318 255.559C142.234 255.559 142.968 255.305 143.52 254.797C144.078 254.281 144.358 253.561 144.358 252.638V251.606L142.832 251.671C141.643 251.714 140.777 251.914 140.233 252.272C139.695 252.623 139.427 253.164 139.427 253.894C139.427 254.424 139.584 254.836 139.9 255.13C140.215 255.416 140.687 255.559 141.318 255.559ZM152.856 257.278L148.344 245.397H151.008L153.425 252.305C153.841 253.465 154.091 254.403 154.177 255.119H154.263C154.327 254.603 154.578 253.665 155.015 252.305L157.432 245.397H160.118L155.584 257.278H152.856ZM166.854 257.493C165.006 257.493 163.56 256.956 162.514 255.882C161.476 254.8 160.957 253.314 160.957 251.424C160.957 249.483 161.44 247.958 162.407 246.848C163.374 245.737 164.702 245.182 166.392 245.182C167.96 245.182 169.199 245.659 170.109 246.611C171.018 247.564 171.473 248.874 171.473 250.543V251.907H163.556C163.592 253.06 163.904 253.948 164.491 254.571C165.078 255.187 165.905 255.495 166.972 255.495C167.674 255.495 168.326 255.431 168.927 255.302C169.536 255.166 170.188 254.944 170.882 254.636V256.687C170.266 256.981 169.643 257.189 169.013 257.31C168.383 257.432 167.663 257.493 166.854 257.493ZM166.392 247.095C165.59 247.095 164.945 247.349 164.459 247.857C163.979 248.366 163.692 249.107 163.599 250.081H168.992C168.977 249.1 168.741 248.359 168.283 247.857C167.824 247.349 167.194 247.095 166.392 247.095ZM189.157 252.412C189.157 253.45 188.778 254.306 188.018 254.979C187.259 255.653 186.164 256.068 184.731 256.225V258.556H183.303V256.29C181.527 256.261 180.069 255.989 178.931 255.473V253.207C179.546 253.508 180.266 253.762 181.09 253.97C181.913 254.17 182.651 254.274 183.303 254.281V250.264L182.4 249.931C181.226 249.479 180.366 248.942 179.822 248.319C179.285 247.689 179.016 246.912 179.016 245.988C179.016 245 179.4 244.187 180.166 243.55C180.939 242.912 181.985 242.526 183.303 242.389V240.585H184.731V242.357C186.185 242.407 187.564 242.701 188.867 243.238L188.083 245.204C186.959 244.76 185.841 244.495 184.731 244.409V248.319L185.548 248.631C186.908 249.153 187.85 249.705 188.373 250.285C188.896 250.865 189.157 251.574 189.157 252.412ZM186.622 252.573C186.622 252.158 186.475 251.818 186.182 251.553C185.895 251.28 185.412 251.019 184.731 250.768V254.195C185.992 254.002 186.622 253.461 186.622 252.573ZM181.541 245.967C181.541 246.375 181.666 246.715 181.917 246.987C182.175 247.259 182.637 247.528 183.303 247.793V244.452C182.73 244.538 182.293 244.713 181.992 244.978C181.691 245.243 181.541 245.573 181.541 245.967ZM201.071 245.182C201.071 246.178 200.781 247.009 200.201 247.675C199.621 248.334 198.805 248.778 197.752 249.007V249.093C199.012 249.25 199.958 249.644 200.588 250.274C201.218 250.897 201.533 251.728 201.533 252.766C201.533 254.278 201 255.445 199.933 256.268C198.866 257.085 197.347 257.493 195.378 257.493C193.638 257.493 192.17 257.21 190.974 256.644V254.399C191.64 254.729 192.345 254.983 193.09 255.162C193.835 255.341 194.551 255.431 195.238 255.431C196.456 255.431 197.365 255.205 197.967 254.754C198.568 254.303 198.869 253.604 198.869 252.659C198.869 251.821 198.536 251.205 197.87 250.811C197.204 250.417 196.159 250.221 194.733 250.221H193.369V248.169H194.755C197.261 248.169 198.515 247.302 198.515 245.569C198.515 244.896 198.296 244.377 197.859 244.012C197.423 243.646 196.778 243.464 195.926 243.464C195.331 243.464 194.759 243.55 194.207 243.722C193.656 243.886 193.004 244.212 192.252 244.699L191.017 242.937C192.456 241.877 194.128 241.348 196.033 241.348C197.616 241.348 198.851 241.688 199.739 242.368C200.627 243.048 201.071 243.987 201.071 245.182ZM208.656 247.471C210.239 247.471 211.492 247.889 212.416 248.727C213.34 249.565 213.802 250.708 213.802 252.154C213.802 253.83 213.276 255.14 212.223 256.086C211.177 257.024 209.688 257.493 207.754 257.493C206 257.493 204.621 257.21 203.618 256.644V254.356C204.198 254.686 204.864 254.94 205.616 255.119C206.368 255.298 207.067 255.388 207.711 255.388C208.85 255.388 209.716 255.133 210.311 254.625C210.905 254.116 211.202 253.372 211.202 252.39C211.202 250.514 210.006 249.576 207.614 249.576C207.278 249.576 206.863 249.612 206.368 249.683C205.874 249.748 205.441 249.823 205.069 249.909L203.941 249.243L204.542 241.573H212.706V243.818H206.766L206.411 247.707C206.662 247.664 206.966 247.614 207.324 247.556C207.69 247.499 208.134 247.471 208.656 247.471ZM226.844 253.851H224.728V257.278H222.268V253.851H215.092V251.907L222.268 241.53H224.728V251.757H226.844V253.851ZM222.268 251.757V247.814C222.268 246.411 222.304 245.261 222.375 244.366H222.289C222.089 244.839 221.774 245.412 221.344 246.085L217.445 251.757H222.268Z" fill="#40FF93"/>
</g>
<defs>
<clipPath id="clip0_878_102300">
<rect width="198" height="107.8" fill="white" transform="translate(76 108.278)"/>
</clipPath>
<clipPath id="clip1_878_102300">
<rect width="136" height="43" fill="white" transform="translate(107 228.278)"/>
</clipPath>
</defs>
</svg>
