<svg width="97" height="32" viewBox="0 0 97 32" fill="none" xmlns="http://www.w3.org/2000/svg">
<path fill-rule="evenodd" clip-rule="evenodd" d="M37.1305 27.0459C33.5326 24.7762 28.6498 24.378 20.7753 26.5174C19.5746 26.7937 18.4884 27.0558 17.4977 27.2949L17.4977 27.2949C11.5618 28.7273 9.05567 29.332 5.90557 27.2016C4.4934 25.9804 3.9871 24.0141 4.36516 21.1818C5.24203 16.5647 7.61169 12.1214 11.8209 7.19279C14.1703 4.62893 16.3497 2.42866 19.2274 1.54513C21.4329 0.990857 21.2267 2.68822 20.9598 2.93097C20.6782 2.93097 20.2051 2.97441 19.8395 3.20805C19.5428 3.4334 18.7283 4.16106 18.6845 5.13988C18.6215 6.63829 20.2049 6.32642 20.8879 5.50371C21.6241 4.57662 22.7121 2.80125 21.8563 1.14662C21.4975 0.557668 20.8778 0.150636 20.1082 0.0120394C17.4731 -0.135434 15.0191 1.09466 12.7541 2.45458C7.80085 5.82411 3.83855 10.4931 1.59652 15.6038C0.304001 18.6873 -0.864998 23.1044 0.887171 26.6995C2.24278 29.194 5.05687 30.5191 8.41435 30.242C10.4026 30.0374 12.7421 29.4742 14.5751 29.033L14.5751 29.033L14.5757 29.0328C14.9133 28.9516 15.2338 28.8744 15.5317 28.8044C15.7049 28.7636 15.9427 28.6995 16.2343 28.621L16.2343 28.6209C19.1665 27.8306 27.5413 25.5733 30.471 30.7971C30.471 30.7971 31.5421 28.761 34.2189 28.7175C36.4196 28.5187 39.5944 29.3414 41.9063 31.0042C41.136 29.8699 38.9523 28.1981 37.1305 27.0459ZM92.1215 4.27156C89.9128 5.46401 87.6231 6.23623 84.8516 5.96766C84.0836 6.79069 83.3356 7.63863 82.6463 8.51169C86.5363 9.45209 90.6603 7.36145 92.9603 5.37177C95.3935 3.365 96.6411 0.837951 96.6411 0.837951C96.6411 0.837951 94.8173 2.81925 92.1215 4.27156ZM59.7637 16.2865C59.4694 15.6821 58.7711 15.2958 58.0269 15.3377C55.6101 15.5478 53.2462 17.4368 52.0049 20.1486C51.3537 21.5425 50.9982 22.6926 50.7651 24.523C51.5167 23.7004 53.0496 22.3487 54.7891 21.6097C54.7891 21.6097 55.0258 19.855 56.2328 18.2933C56.6896 17.6466 57.6035 16.6055 58.6298 16.8825C59.5266 17.168 59.2113 19.5275 58.0195 21.8107C57.1377 23.4902 55.7883 25.1699 54.4229 26.3283C53.2158 27.3022 51.4298 28.4776 49.8672 27.571C48.883 27.0171 48.3811 25.858 48.487 24.3636C48.9573 20.1237 50.9879 16.5133 53.8938 12.3993C56.89 8.57903 60.1929 4.65807 64.6422 2.56709C65.5498 2.13056 66.3902 2.02983 67.1167 2.29852C67.1167 2.29852 62.94 4.48151 60.9491 8.52017L60.9269 8.56498C60.4225 9.58481 59.7485 10.9474 60.4475 12.1556C60.8182 12.7936 61.4763 12.8441 62.0063 12.8104C64.4467 12.2729 66.0234 10.1068 67.3116 8.12552C68.0585 6.62262 68.7224 5.1281 68.7224 3.46562C68.7224 3.26416 68.7114 2.99559 68.6935 2.7939C69.8594 2.20639 72.2503 3.24729 72.2503 3.24729C73.3484 3.59289 75.1755 4.73614 76.7677 5.73244L76.7678 5.73247C77.8844 6.4312 78.8855 7.05764 79.4387 7.28596C80.0933 6.564 81.1689 5.47262 81.7747 4.92675L80.8978 4.41451C79.5527 3.63406 78.134 2.89206 76.7329 2.15923L76.7328 2.1592L76.7327 2.15914L76.55 2.06356C73.2333 0.342568 70.5335 0.94694 69.1595 1.4172C68.6195 1.60179 68.1261 1.76137 68.1261 1.76137C67.1064 0.703494 65.434 0.803993 64.2018 1.08966C59.7704 2.29863 55.6561 5.24558 51.2451 10.359C48.0022 14.364 45.9906 17.8233 44.9184 21.2404C44.092 23.5409 43.8408 26.9245 45.8579 28.9313C47.573 30.6353 49.8471 30.2661 51.4529 29.6535C54.9323 28.0246 58.0595 24.5148 59.6177 20.4761C59.9938 19.2757 60.4111 17.5797 59.7637 16.2865ZM13.3677 13.1464C16.3153 9.40184 19.9955 7.21885 21.8265 8.36071C23.5181 9.53233 22.2194 12.4762 21.8012 13.4241L21.8011 13.4244L21.801 13.4247C21.7578 13.5225 21.7241 13.599 21.704 13.6501C22.3608 13.8099 24.4616 12.3827 25.6865 11.0979C26.6594 10.0734 28.3262 8.75536 29.3793 8.37769C30.1659 8.01642 31.3813 7.89905 32.1781 8.35222C32.7128 8.64637 33.0709 9.25074 33.1085 9.88896C33.2139 11.6689 31.0352 14.5909 29.9427 13.1132C29.7178 12.475 29.9636 11.7948 30.6709 11.0894C31.0298 10.7368 31.4716 10.5775 32.0228 10.5943C32.2401 10.2668 32.1847 9.78858 31.8412 9.59515C31.4809 9.3852 30.7545 9.52838 30.0865 10.0234C27.7194 11.8119 25.6394 14.776 24.4323 18.0422C24.2185 18.655 24.1019 19.5881 24.4809 20.2263C25.5176 21.7452 27.9442 19.6311 27.9442 19.6311C29.5821 18.2458 31.1617 16.3265 32.4023 14.6219C35.6249 10.189 39.9053 6.36633 41.7954 8.8515C41.8107 8.87054 41.829 8.89891 41.8464 8.92587C41.8675 8.95868 41.8874 8.98938 41.8986 8.99858C41.9258 8.96496 42.259 8.45249 42.259 8.45249H45.3098C45.3098 8.45249 38.8483 19.1046 38.8399 19.1215C38.7055 19.3812 38.6197 19.748 38.8373 19.9243C39.0003 20.0336 39.2748 19.9132 39.3155 19.8954L39.3206 19.8932C40.8346 19.1951 43.0871 16.2257 43.5169 15.6591C43.5628 15.5986 43.5879 15.5654 43.5891 15.5654H44.64C42.9927 17.8598 40.9531 20.5143 38.4214 22.2102C37.7184 22.6552 36.7937 23.1293 35.8802 22.8184C35.0132 22.2994 35.0684 21.6661 35.1341 20.9125L35.1341 20.9124L35.1342 20.9122C35.1418 20.8245 35.1496 20.7351 35.1561 20.6441C35.1559 20.6441 35.1543 20.6457 35.1515 20.6488C35.148 20.6525 35.1426 20.6584 35.1353 20.6663L35.1352 20.6665C34.8957 20.928 32.6449 23.3857 30.7444 22.8605C30.0804 22.659 29.019 22.1128 29.8064 19.5099C29.8064 19.5099 29.8667 19.2753 29.9129 19.0996C29.7303 19.2672 29.4074 19.5607 29.4074 19.5607C27.5127 21.324 25.3649 23.3057 22.6752 22.8772C20.8611 22.3414 20.7214 20.6995 20.6603 19.9825C20.6535 19.9019 20.6476 19.8331 20.6405 19.7787C20.4289 18.1344 22.3489 14.9337 22.6148 14.4905L22.6148 14.4904L22.615 14.4901L22.6151 14.4899C22.6341 14.4583 22.6445 14.4409 22.6451 14.4392C22.0618 14.5988 21.5443 14.7164 21.1146 14.7916C21.0814 14.8421 20.3862 15.9336 20.3862 15.9336L20.3432 16.0014L20.3432 16.0014C19.5999 17.173 18.8291 18.3883 17.8366 19.4015L17.6447 19.5948C16.1572 21.2486 12.6592 24.3382 10.7751 22.2141C9.50834 20.4089 10.6722 16.5052 13.3677 13.1464ZM39.277 10.2415C38.8559 10.5941 37.1286 12.6848 36.5351 13.4655C34.1487 16.5219 33.3755 18.7297 33.3117 19.4515C33.2891 19.6699 33.3682 19.8798 33.5685 20.0058C33.735 20.1238 33.9851 20.107 34.1368 20.0646C35.2008 19.5022 35.853 18.6961 36.5008 17.756C36.5008 17.756 36.9628 17.0845 36.9598 17.0928C38.4266 14.7753 39.9866 12.1976 41.3084 9.94747C41.2594 9.57829 40.6933 9.0572 39.277 10.2415ZM19.9383 14.8172C19.9383 14.8172 19.9116 14.893 19.8985 14.9178C19.8952 14.9178 18.5683 16.9746 18.5683 16.9746L18.5492 16.9988C17.7517 18.0109 16.7579 19.2721 15.5181 19.8799C15.1477 19.9974 14.6355 20.0732 14.3746 19.7628C13.8214 19.1329 14.1065 18.2596 14.3381 17.5546L14.4202 17.3026C15.0843 15.59 16.1379 14.0784 17.1636 12.6762C17.1764 12.6679 17.2051 12.6596 17.2155 12.6596C17.2164 12.6625 17.2174 12.6644 17.2185 12.6663C17.2206 12.67 17.2227 12.6738 17.2238 12.6848C17.8674 13.8601 19.0742 14.4056 19.9766 14.6579C19.9821 14.6579 19.988 14.6662 19.988 14.6831C19.9881 14.7081 19.9734 14.7419 19.9383 14.8172ZM20.6043 13.684C20.6043 13.684 21.1893 12.4078 21.1952 12.391C21.3962 11.8199 21.5734 11.207 21.5733 10.6615C21.5733 10.2583 21.4763 9.88896 21.2206 9.60341C20.8058 9.29262 20.0917 9.45209 19.6323 9.75462C19.1536 10.0987 18.0669 11.0475 18.3314 12.2565C18.5232 12.8778 19.1453 13.3984 19.97 13.6417L20.2326 13.684L20.2531 13.6884C20.3978 13.7204 20.5234 13.7481 20.6043 13.684ZM62.1818 11.8366C63.1978 11.6019 67.3039 8.65463 67.7645 3.63369C67.7825 3.44875 67.7842 3.31475 67.7225 3.1048C65.1926 4.33913 62.8345 6.74859 61.4535 9.58677C60.5155 11.6939 61.5661 11.954 62.1818 11.8366ZM47.4831 8.45272H50.3803L48.7454 10.9767H45.8488L47.4831 8.45272ZM84.7095 27.2377C84.3985 27.4414 83.9617 27.2848 84.1249 26.8179C84.5319 25.6292 86.1493 23.2066 86.1493 23.2066L90.6545 15.5114H87.5686C87.4219 15.7434 87.1083 16.2762 87.1083 16.2762C86.9655 16.0472 86.5386 15.5379 86.3628 15.4278C85.6089 14.969 84.5029 15.1859 83.7398 15.6019C80.4646 17.4462 78.0637 21.0672 76.166 23.9291L76.0924 24.04C76.0924 24.04 74.0828 27.2399 72.9674 27.4778C72.0965 27.5458 72.1864 26.416 72.2241 26.1528C72.5608 24.2505 73.3428 22.442 74.1306 20.8032C75.7331 19.7334 77.5617 18.3324 79.2236 16.7956C82.8302 13.4753 85.8708 9.71377 86.3152 8.87319C86.3152 8.87319 85.8342 8.9667 85.2662 8.98352C82.4915 12.7111 76.8134 18.1286 75.092 18.9351C75.8546 17.1685 80.7816 8.73721 84.9743 4.70406L85.6341 4.09251C86.6544 3.13301 87.7114 2.1481 88.5351 1.98672C88.6221 1.97825 88.7342 1.98672 88.8309 2.18233C88.8676 2.92939 88.5789 3.48143 88.2476 4.10968L87.7833 5.02684C87.7833 5.02684 88.4409 4.90791 88.8729 4.7717C89.374 3.8636 89.9291 2.84435 89.7244 1.63042C89.6562 1.23977 89.3625 0.942639 88.9788 0.87465C87.7281 0.645391 86.3651 1.53667 85.2682 2.25867L85.224 2.28397C79.5857 6.53802 74.8248 12.6686 70.6623 21.0408C70.3607 21.2613 69.1951 21.5248 68.997 21.3973C69.4081 20.5823 69.9256 19.4867 70.1845 18.298C70.2293 17.9582 70.271 17.6103 70.271 17.2707C70.271 16.5399 70.0889 15.8524 69.4092 15.3771C68.6121 14.995 67.627 15.1734 66.9628 15.4618C63.9875 16.6506 61.7637 19.5887 60.1589 22.0084C59.2959 23.5456 58.4354 25.1921 58.1971 27.0775C58.0292 28.5546 58.3709 29.5058 59.2431 29.9814C60.1399 30.4226 61.2687 29.964 61.7122 29.7434C64.7265 28.2149 66.8327 25.1499 68.4928 22.3477C68.5032 22.3464 68.5348 22.3446 68.5832 22.342L68.5834 22.342C68.841 22.3277 69.574 22.2871 70.1509 22.144C70.16 22.144 70.1638 22.144 70.179 22.1528C70.1397 22.2797 69.7854 23.299 69.7854 23.299C68.7332 26.2705 68.2466 28.2916 69.2405 29.4887C70.6607 31.1785 73.0121 29.4296 74.9248 27.1196C74.5143 29.8875 76.0038 30.3208 77.1393 30.1088C78.4436 29.7693 79.8971 28.4274 80.5717 27.7398C80.355 28.5463 80.4138 29.9901 81.6005 30.1342C82.2985 30.2585 82.8459 29.9622 83.4323 29.6447L83.4328 29.6444C83.5294 29.5922 83.627 29.5393 83.7265 29.4877C86.2527 28.163 89.2766 23.7487 90.0618 22.4724H89.0323L88.9104 22.6501C87.8132 24.2493 86.4315 26.2633 84.7095 27.2377ZM62.0347 26.9421C61.8744 26.7127 61.8213 26.4621 61.816 26.1911C61.7853 24.526 63.6454 21.5445 64.9581 19.9202H64.9609C65.511 21.0804 66.7569 21.8262 67.509 22.1405C66.575 24.1445 63.3713 28.4364 62.0347 26.9421ZM66.0726 19.3937C66.3763 20.7947 67.9474 21.3045 68.0363 21.2446C68.5403 20.3991 68.9287 19.4945 69.1918 18.5531L69.1993 18.4935L69.2027 18.4671C69.2359 18.2111 69.2721 17.9326 69.2721 17.6611C69.2721 17.2034 69.1726 16.7786 68.8053 16.5404C68.4095 16.4051 67.87 16.4981 67.5119 16.7701C66.6775 17.2451 65.815 18.1875 66.0726 19.3937ZM80.6372 26.4072C80.6359 26.4072 80.339 26.6619 80.339 26.6619L80.311 26.686C79.896 27.0438 79.4675 27.4131 78.9526 27.222C78.8072 27.1712 78.705 26.9845 78.6804 26.8397C78.6565 25.7988 79.1414 24.8341 79.6136 23.8947L79.6184 23.8851L79.7398 23.6388L79.8106 23.5249C81.157 21.3592 82.7257 18.836 85.0111 17.0756C85.403 16.8033 85.8283 16.5745 86.2772 16.7529C86.3804 16.8462 86.5006 17.0076 86.5006 17.1687C86.5006 17.2199 86.4534 17.3557 86.4263 17.398C85.8518 18.2921 85.3015 19.2256 84.7659 20.1343L84.7655 20.135L84.5567 20.4889C83.3812 22.5013 82.1616 24.5813 80.6372 26.4072Z" fill="#FAFAFB"/>
</svg>
