<svg width="133" height="27" viewBox="0 0 133 27" fill="none" xmlns="http://www.w3.org/2000/svg">
<path fill-rule="evenodd" clip-rule="evenodd" d="M68.2762 12.8098C67.1815 12.8098 66.3925 13.1692 65.5924 13.5353V21.82C66.3587 21.8931 66.7981 21.8931 67.5251 21.8931C70.1525 21.8931 70.5126 20.6884 70.5126 19.0064V15.0496C70.5126 13.8074 70.1009 12.8098 68.2762 12.8098ZM50.8273 12.3577C49.0043 12.3577 48.5883 13.3596 48.5883 14.6005V15.2978H53.0637V14.6005C53.0637 13.3596 52.6477 12.3577 50.8273 12.3577ZM17.0253 20.9808C17.0253 21.9625 17.4879 22.4724 18.5089 22.4724C19.6041 22.4724 20.2527 22.1149 21.0522 21.7475V19.7823H18.6574C17.5235 19.7823 17.0253 19.9936 17.0253 20.9808ZM85.2495 12.8098C83.4235 12.8098 82.7909 13.8074 82.7909 15.0496V19.5827C82.7909 20.8279 83.4235 21.8286 85.2495 21.8286C87.0706 21.8286 87.7082 20.8279 87.7082 19.5827V15.0496C87.7075 13.8074 87.07 12.8098 85.2495 12.8098ZM8.07686 26.0637H2.70929V13.0561H0.0273438V8.57407H2.7099V5.88213C2.7099 2.2251 4.2236 0.0510254 8.526 0.0510254H12.1081V4.53432H9.86912C8.19406 4.53432 8.08361 5.16092 8.08361 6.32997L8.07686 8.57346H12.1326L11.6583 13.0555H8.07686V26.0637ZM26.421 26.0975H21.9474L21.7541 24.9647C19.7115 26.0975 17.8886 26.2812 16.686 26.2812C13.4052 26.2812 11.6589 24.0868 11.6589 21.0521C11.6589 17.4719 13.6966 16.1941 17.3419 16.1941H21.0522V15.42C21.0522 13.5924 20.843 13.0561 18.0358 13.0561H13.4463L13.8948 8.57407H18.9114C25.0705 8.57407 26.421 10.5221 26.421 15.4563V26.0975ZM41.6334 13.3848C38.8496 12.9069 38.0501 12.8018 36.7107 12.8018C34.3048 12.8018 33.5778 13.3332 33.5778 15.3789V19.2485C33.5778 21.2941 34.3048 21.828 36.7107 21.828C38.0501 21.828 38.8496 21.7211 41.6334 21.2413V25.6134C39.1951 26.1608 37.6065 26.3045 36.264 26.3045C30.5013 26.3045 28.2108 23.2704 28.2108 18.8872V15.7475C28.2108 11.3606 30.5013 8.32097 36.264 8.32097C37.6065 8.32097 39.1951 8.46534 41.6334 9.01515V13.3848ZM58.4307 18.8872H48.5877V19.2485C48.5877 21.2941 49.3154 21.828 51.7206 21.828C53.8829 21.828 55.2027 21.7211 57.9816 21.2413V25.6134C55.3015 26.1608 53.905 26.3045 51.2758 26.3045C45.5124 26.3045 43.2207 23.2704 43.2207 18.8872V15.2972C43.2207 11.462 44.921 8.32097 50.8266 8.32097C56.7323 8.32097 58.4307 11.4257 58.4307 15.2972V18.8872ZM75.879 18.9702C75.879 23.2065 74.6696 26.2965 67.3435 26.2965C64.6978 26.2965 63.146 26.0637 60.226 25.614V1.39761L65.5918 0.50132V8.97215C66.7514 8.5409 68.2522 8.32159 69.618 8.32159C74.9844 8.32159 75.8784 10.7303 75.8784 14.6011V18.9702H75.879ZM93.0794 19.0623C93.0794 22.7169 91.5725 26.2615 85.2673 26.2615C78.9592 26.2615 77.424 22.7169 77.424 19.0623V15.5337C77.424 11.8773 78.9592 8.33203 85.2673 8.33203C91.5725 8.33203 93.0794 11.8773 93.0794 15.5337V19.0623ZM110.268 19.0623C110.268 22.7169 108.759 26.2615 102.455 26.2615C96.1473 26.2615 94.6121 22.7169 94.6121 19.0623V15.5337C94.6121 11.8773 96.1473 8.33203 102.455 8.33203C108.759 8.33203 110.268 11.8773 110.268 15.5337V19.0623ZM127.908 26.0637H122.092L117.173 17.8423V26.0637H111.805V1.397L117.173 0.500706V16.3802L122.092 8.57407H127.908L122.538 17.0928L127.908 26.0637ZM102.437 12.8098C100.614 12.8098 99.9815 13.8074 99.9815 15.0496V19.5827C99.9815 20.8279 100.614 21.8286 102.437 21.8286C104.258 21.8286 104.902 20.8279 104.902 19.5827V15.0496C104.902 13.8074 104.258 12.8098 102.437 12.8098ZM130.971 22.9958C131.875 22.9958 132.595 23.7336 132.595 24.6551C132.595 25.5907 131.875 26.3205 130.965 26.3205C130.059 26.3205 129.325 25.5907 129.325 24.6551C129.325 23.7336 130.059 22.9958 130.965 22.9958H130.971ZM130.965 23.2538C130.236 23.2538 129.641 23.881 129.641 24.6551C129.641 25.4432 130.237 26.0625 130.971 26.0625C131.707 26.0698 132.294 25.4432 132.294 24.6624C132.294 23.8816 131.707 23.2538 130.971 23.2538H130.965ZM130.656 25.6208H130.362V23.7692C130.516 23.7477 130.663 23.7262 130.884 23.7262C131.164 23.7262 131.347 23.7852 131.459 23.8657C131.568 23.9474 131.626 24.0721 131.626 24.2484C131.626 24.4929 131.465 24.6397 131.267 24.6993V24.7134C131.429 24.7435 131.538 24.8897 131.576 25.1619C131.619 25.45 131.664 25.56 131.692 25.6202H131.384C131.34 25.56 131.295 25.391 131.259 25.1471C131.216 24.9119 131.097 24.8234 130.861 24.8234H130.657V25.6208H130.656ZM130.656 24.5961H130.87C131.111 24.5961 131.317 24.507 131.317 24.2779C131.317 24.1157 131.2 23.9541 130.87 23.9541C130.773 23.9541 130.706 23.9615 130.656 23.9683V24.5961Z" fill="#FAFAFB"/>
</svg>
