<svg width="130" height="27" viewBox="0 0 130 27" fill="none" xmlns="http://www.w3.org/2000/svg">
<path fill-rule="evenodd" clip-rule="evenodd" d="M13.5756 12.8271H0V0H13.5756V12.8271ZM28.0563 12.8271H14.4807V0H28.0563V12.8271ZM0 26.5705H13.5756V13.7434H0V26.5705ZM28.0563 26.5705H14.4807V13.7434H28.0563V26.5705ZM129.421 9.65684V11.9669H126.603V17.6521C126.603 18.3807 126.732 18.9016 126.985 19.1994C127.235 19.4946 127.639 19.6441 128.184 19.6441C128.329 19.6441 128.516 19.612 128.74 19.5478C128.963 19.4848 129.154 19.4 129.306 19.2964L129.421 19.2192V21.5506L129.384 21.573C129.216 21.6708 128.931 21.7625 128.513 21.8542C128.102 21.9435 127.699 21.9891 127.317 21.9891C124.99 21.9891 123.81 20.6984 123.81 18.1514V11.9669H119.633V21.6988H116.816V11.9669H114.855V9.65684H116.816V7.99024C116.816 7.15287 116.998 6.39619 117.356 5.74104C117.715 5.08512 118.228 4.56923 118.879 4.20785C119.53 3.84699 120.277 3.6649 121.099 3.6649C121.751 3.6649 122.277 3.73618 122.664 3.87774L122.713 3.89603V6.32885L122.609 6.28158C122.194 6.09339 121.782 5.99796 121.384 5.99796C120.831 5.99796 120.397 6.17891 120.093 6.53482C119.788 6.89505 119.633 7.43521 119.633 8.14107V9.65697H123.81V6.93584L123.862 6.9197L126.509 6.0953L126.603 6.06556V9.65684H129.421ZM106.169 18.6196C106.737 19.2994 107.543 19.6445 108.565 19.6445C109.593 19.6445 110.38 19.3058 110.903 18.6389C111.43 17.967 111.697 16.9625 111.697 15.6549C111.697 14.3631 111.413 13.3718 110.853 12.7075C110.296 12.0466 109.519 11.7118 108.542 11.7118C107.536 11.7118 106.737 12.0623 106.169 12.7531C105.597 13.4484 105.308 14.4478 105.308 15.7246C105.308 16.9623 105.597 17.9364 106.169 18.6196ZM108.69 9.36675C106.74 9.36675 105.191 9.94859 104.086 11.0961C102.983 12.2438 102.423 13.832 102.423 15.817C102.423 17.7024 102.969 19.219 104.047 20.3238C105.124 21.429 106.591 21.9889 108.405 21.9889C110.296 21.9889 111.814 21.3989 112.918 20.2355C114.022 19.0733 114.581 17.5001 114.581 15.5615C114.581 13.6466 114.056 12.1188 113.021 11.0213C111.985 9.9233 110.527 9.36675 108.69 9.36675ZM94.6198 10.3934C95.4581 9.71224 96.5555 9.36675 97.8821 9.36675C98.2881 9.36675 98.7549 9.4158 99.2694 9.513C99.7864 9.61084 100.212 9.73143 100.535 9.87235L100.579 9.89166V12.5105L100.464 12.4304C100.114 12.1881 99.6949 11.99 99.2178 11.8421C98.7403 11.6942 98.2602 11.6187 97.7909 11.6187C97.2852 11.6187 96.882 11.7349 96.5923 11.9632C96.3049 12.1904 96.1649 12.471 96.1649 12.8212C96.1649 13.2162 96.2783 13.5282 96.5017 13.7488C96.7335 13.9771 97.2952 14.2746 98.1721 14.6329C99.2727 15.0847 100.062 15.5959 100.516 16.1527C100.974 16.7141 101.206 17.4102 101.206 18.2219C101.206 19.347 100.775 20.267 99.9238 20.957C99.0779 21.6423 97.9186 21.9894 96.479 21.9894C96.0125 21.9894 95.4755 21.9261 94.8844 21.8017C94.2922 21.6774 93.7898 21.5195 93.3913 21.3322L93.3483 21.3119V18.5511L93.4653 18.6365C93.9468 18.9885 94.4786 19.263 95.042 19.4505C95.6095 19.6408 96.1275 19.7374 96.5817 19.7374C97.8061 19.7374 98.4012 19.3437 98.4012 18.5347C98.4012 18.2506 98.3425 18.0204 98.2268 17.8521C98.1078 17.6802 97.897 17.5037 97.6 17.3281C97.2961 17.1489 96.8177 16.9216 96.1762 16.6529C95.4132 16.3191 94.8373 15.991 94.4643 15.6778C94.0884 15.362 93.8055 14.9858 93.6227 14.5584C93.4409 14.1325 93.3486 13.6303 93.3486 13.065C93.3486 11.9775 93.7764 11.0787 94.6198 10.3934ZM86.0063 19.6445C84.9843 19.6445 84.1781 19.2994 83.6103 18.6196C83.0387 17.9364 82.7496 16.9625 82.7496 15.7246C82.7496 14.4478 83.039 13.4484 83.6109 12.7531C84.1787 12.0623 84.9769 11.7118 85.9838 11.7118C86.96 11.7118 87.7374 12.0466 88.2943 12.7075C88.8541 13.3718 89.138 14.3631 89.138 15.6549C89.138 16.9625 88.8708 17.967 88.3441 18.6389C87.8211 19.3058 87.035 19.6445 86.0063 19.6445ZM81.5281 11.0961C82.6319 9.94859 84.1811 9.36675 86.1319 9.36675C87.9687 9.36675 89.4257 9.9233 90.4619 11.0213C91.4976 12.1188 92.0226 13.6466 92.0226 15.5615C92.0226 17.5001 91.4631 19.0733 90.3594 20.2355C89.2554 21.3989 87.7369 21.9889 85.8466 21.9889C84.0323 21.9889 82.5661 21.429 81.4885 20.3238C80.411 19.219 79.8643 17.7032 79.8643 15.817C79.8643 13.832 80.4243 12.2438 81.5281 11.0961ZM75.5891 11.7423V9.65684H72.807V21.6985H75.5891V15.5387C75.5891 14.4913 75.8224 13.6308 76.2826 12.9809C76.737 12.3387 77.3426 12.0133 78.0819 12.0133C78.3325 12.0133 78.6138 12.0553 78.9185 12.1386C79.22 12.2213 79.4384 12.3111 79.5672 12.4057L79.6841 12.4919V9.63626L79.6391 9.61656C79.38 9.50449 79.0134 9.44794 78.5497 9.44794C77.8505 9.44794 77.2249 9.67666 76.689 10.127C76.2186 10.5228 75.8786 11.0655 75.6187 11.7423H75.5891ZM64.4417 10.1947C65.41 9.6454 66.5484 9.36675 67.8248 9.36675C68.3219 9.36675 68.8451 9.42367 69.38 9.53664C69.9171 9.64985 70.3498 9.79916 70.667 9.97997L70.7047 10.0016V12.7359L70.588 12.6496C69.745 12.027 68.8539 11.7118 67.9395 11.7118C66.8704 11.7118 65.9924 12.0808 65.3301 12.8082C64.6658 13.5378 64.3287 14.5267 64.3287 15.7474C64.3287 16.9605 64.6519 17.9245 65.2894 18.6111C65.9256 19.2967 66.8019 19.6445 67.8936 19.6445C68.2867 19.6445 68.735 19.5562 69.2267 19.3815C69.7197 19.2066 70.1778 18.9639 70.5878 18.6599L70.7047 18.573V21.168L70.6682 21.1894C69.7631 21.7201 68.6343 21.9893 67.3121 21.9893C66.1792 21.9893 65.1559 21.736 64.2706 21.2365C63.384 20.7364 62.6836 20.0153 62.1887 19.0936C61.6941 18.1733 61.4439 17.1292 61.4439 15.9915C61.4439 14.6926 61.702 13.5279 62.2103 12.5308C62.7209 11.5313 63.4713 10.7453 64.4417 10.1947ZM59.5278 9.65697H56.7457V21.6985H59.5278V9.65697ZM56.9799 5.00037C57.308 4.68588 57.7073 4.52717 58.1652 4.52717C58.6469 4.52717 59.054 4.69058 59.3748 5.01307C59.6959 5.3362 59.8589 5.72922 59.8589 6.18145C59.8589 6.64283 59.6914 7.03254 59.3612 7.34004C59.0331 7.64563 58.631 7.80078 58.1654 7.80078C57.6996 7.80078 57.299 7.64563 56.9747 7.33953C56.6484 7.03254 56.4833 6.6427 56.4833 6.18145C56.4833 5.71283 56.6504 5.31575 56.9799 5.00037ZM51.2237 8.76852V21.6985H54.063V4.89579H50.1333L45.1385 17.3764L40.2913 4.89579H36.2017V21.6984H38.8698V8.76725H38.9614L44.0799 21.6985H46.0935L51.1321 8.76852H51.2237Z" fill="#FAFAFB"/>
</svg>
