<svg width="98" height="27" viewBox="0 0 98 27" fill="none" xmlns="http://www.w3.org/2000/svg">
<path fill-rule="evenodd" clip-rule="evenodd" d="M13.4036 25.0844C11.9373 25.346 10.4451 25.4244 8.90152 25.6332L4.1934 11.6267V26.2344C2.72703 26.3911 1.38927 26.6002 0 26.8092V0.050293H3.91058L9.26164 15.2331V0.050293H13.4036V25.0844ZM21.5076 9.84971C23.1028 9.84971 25.5468 9.77129 27.0132 9.77129V13.9523C25.1865 13.9523 23.0513 13.9523 21.5076 14.0307V20.2502C23.926 20.0934 26.3444 19.8842 28.7883 19.8058V23.8298L17.3912 24.7446V0.050293H28.7883V4.23138H21.5076V9.84971ZM44.0957 4.23148H39.8251V23.4644C38.4358 23.4644 37.0466 23.4644 35.709 23.5165V4.23148H31.4384V0.050293H44.0959L44.0957 4.23148ZM50.7846 9.56234H56.4189V13.7433H50.7846V23.2293H46.7453V0.050293H58.2455V4.23138H50.7846V9.56234ZM64.9344 19.5707C67.2756 19.6228 69.6423 19.8061 71.9321 19.9365V24.0654C68.2533 23.83 64.5743 23.5952 60.8182 23.5165V0.050293H64.9344V19.5707ZM75.4052 24.3528C76.7173 24.4314 78.1065 24.5098 79.4443 24.6663V0.050293H75.4052V24.3528ZM97.479 0.050293L92.2563 12.7765L97.479 26.8092C95.9352 26.6002 94.3916 26.3127 92.8479 26.0513L89.8895 18.3165L86.8797 25.4244C85.3873 25.1628 83.9466 25.0844 82.4547 24.8754L87.7544 12.6196L82.9691 0.050293H87.3939L90.0952 7.07975L92.9767 0.050293H97.479Z" fill="#FAFAFB"/>
</svg>
