<svg width="81" height="25" viewBox="0 0 81 25" fill="none" xmlns="http://www.w3.org/2000/svg">
<path fill-rule="evenodd" clip-rule="evenodd" d="M35.0406 24.5609H28.4524L32.5699 0.436921H39.1588L35.0406 24.5609ZM22.91 0.436921L16.6291 17.0296L15.8858 13.4565L15.8865 13.4578L13.6697 2.60901C13.6697 2.60901 13.4016 0.436921 10.5445 0.436921H0.160903L0.0390625 0.845397C0.0390625 0.845397 3.21437 1.47521 6.93052 3.60277L12.6543 24.5615H19.5187L30.0004 0.436921H22.91ZM74.7296 24.5609H80.779L75.5046 0.436276H70.2086C67.763 0.436276 67.1673 2.23409 67.1673 2.23409L57.3415 24.5609H64.2093L65.5827 20.9775H73.9579L74.7296 24.5609ZM67.4801 16.0274L70.9417 6.99964L72.8891 16.0274H67.4801ZM57.8567 6.23818L58.7969 1.0577C58.7969 1.0577 55.8957 0.00585938 52.8713 0.00585938C49.6019 0.00585938 41.838 1.36809 41.838 7.99211C41.838 14.2244 50.9503 14.3019 50.9503 17.5755C50.9503 20.8491 42.7768 20.2625 40.0794 18.1982L39.0999 23.6149C39.0999 23.6149 42.0417 24.9771 46.5363 24.9771C51.0322 24.9771 57.8147 22.7579 57.8147 16.7179C57.8147 10.4455 48.6204 9.86155 48.6204 7.13451C48.6211 4.40682 55.0374 4.75722 57.8567 6.23818Z" fill="#FAFAFB"/>
</svg>
