<svg width="840" height="475" viewBox="0 0 840 475" fill="none" xmlns="http://www.w3.org/2000/svg">
<g clip-path="url(#clip0_829_7764)">
<path fill-rule="evenodd" clip-rule="evenodd" d="M478.99 153.201L479.128 153.153L561.437 129.949C562.402 129.677 563.22 130.697 562.744 131.579L522.588 206.058C522.121 206.924 520.848 206.826 520.519 205.899L508.919 173.194L478.854 155.218C478.042 154.733 478.156 153.549 478.99 153.201ZM521.804 202.73L558.124 135.364L511.059 172.436L521.804 202.73ZM509.411 170.845L556.615 133.664L482.278 154.621L509.411 170.845ZM31.6619 394.596C28.1358 392.818 24.7773 390.961 21.5906 389.028C20.5201 388.378 20.1796 386.985 20.8301 385.916C21.4806 384.847 22.8758 384.507 23.9463 385.156C27.0299 387.027 30.2849 388.827 33.7071 390.553C34.8252 391.117 35.2737 392.479 34.709 393.596C34.1442 394.712 32.78 395.16 31.6619 394.596ZM63.6391 407.246C59.9075 406.093 56.2847 404.882 52.7746 403.613C51.5967 403.188 50.9875 401.889 51.4138 400.713C51.8401 399.537 53.1406 398.928 54.3185 399.354C57.7606 400.598 61.3156 401.787 64.98 402.919C66.1766 403.289 66.8465 404.557 66.4763 405.752C66.106 406.947 64.8357 407.616 63.6391 407.246ZM96.8819 415.451C93.0853 414.717 89.3621 413.937 85.7156 413.111C84.494 412.834 83.7285 411.621 84.0057 410.401C84.2829 409.181 85.4979 408.416 86.7195 408.693C90.3181 409.509 93.9939 410.279 97.7435 411.003C98.9733 411.241 99.7774 412.429 99.5395 413.657C99.3016 414.885 98.1118 415.688 96.8819 415.451ZM130.736 420.548C126.913 420.12 123.141 419.652 119.422 419.144C118.18 418.974 117.312 417.832 117.482 416.593C117.651 415.353 118.795 414.486 120.036 414.656C123.719 415.158 127.455 415.622 131.242 416.047C132.487 416.186 133.382 417.307 133.243 418.55C133.103 419.793 131.981 420.688 130.736 420.548ZM164.753 423.252C160.932 423.065 157.142 422.842 153.388 422.584C152.138 422.498 151.195 421.417 151.281 420.169C151.367 418.921 152.449 417.979 153.699 418.065C157.424 418.321 161.184 418.542 164.976 418.728C166.227 418.789 167.191 419.852 167.13 421.101C167.069 422.351 166.005 423.314 164.753 423.252ZM198.906 423.994C195.092 424.011 191.295 423.996 187.518 423.948C186.266 423.932 185.263 422.905 185.279 421.654C185.295 420.404 186.323 419.402 187.576 419.418C191.326 419.466 195.097 419.481 198.886 419.464C200.138 419.458 201.158 420.468 201.164 421.719C201.17 422.969 200.159 423.988 198.906 423.994ZM233.004 423.003C229.212 423.204 225.423 423.376 221.641 423.516C220.389 423.563 219.336 422.588 219.29 421.337C219.243 420.087 220.22 419.036 221.472 418.99C225.23 418.85 228.994 418.679 232.762 418.479C234.013 418.412 235.081 419.371 235.148 420.62C235.214 421.87 234.254 422.936 233.004 423.003ZM267.045 420.385C263.282 420.764 259.507 421.114 255.724 421.435C254.476 421.541 253.378 420.616 253.272 419.37C253.166 418.123 254.092 417.027 255.34 416.921C259.099 416.602 262.85 416.254 266.59 415.878C267.836 415.752 268.949 416.659 269.074 417.904C269.2 419.148 268.292 420.259 267.045 420.385ZM300.913 416.142C297.186 416.703 293.431 417.236 289.652 417.741C288.411 417.906 287.27 417.035 287.104 415.796C286.938 414.556 287.81 413.416 289.052 413.25C292.805 412.75 296.535 412.22 300.237 411.662C301.475 411.476 302.631 412.327 302.818 413.564C303.004 414.801 302.152 415.955 300.913 416.142ZM334.527 410.154C330.85 410.917 327.125 411.651 323.357 412.357C322.125 412.588 320.94 411.778 320.709 410.549C320.478 409.319 321.289 408.136 322.52 407.905C326.26 407.204 329.956 406.475 333.604 405.718C334.83 405.464 336.031 406.25 336.286 407.475C336.541 408.7 335.753 409.899 334.527 410.154ZM367.745 402.124C364.149 403.13 360.477 404.107 356.734 405.055C355.52 405.363 354.286 404.629 353.978 403.416C353.67 402.204 354.405 400.971 355.619 400.664C359.326 399.726 362.962 398.758 366.521 397.762C367.727 397.424 368.979 398.127 369.317 399.332C369.655 400.536 368.951 401.786 367.745 402.124ZM400.251 391.431C396.796 392.77 393.217 394.079 389.521 395.355C388.337 395.764 387.046 395.137 386.636 393.955C386.227 392.772 386.855 391.483 388.039 391.074C391.682 389.816 395.208 388.526 398.61 387.208C399.778 386.755 401.092 387.334 401.545 388.5C401.998 389.666 401.419 390.978 400.251 391.431ZM431.26 376.615C428.123 378.505 424.764 380.358 421.192 382.173C420.076 382.74 418.71 382.296 418.142 381.181C417.574 380.066 418.019 378.702 419.135 378.135C422.612 376.369 425.876 374.568 428.917 372.736C429.99 372.09 431.384 372.435 432.031 373.506C432.678 374.577 432.333 375.969 431.26 376.615ZM458.922 356.238C455.943 358.711 452.982 361.091 450.023 363.388C449.035 364.155 447.61 363.977 446.841 362.989C446.072 362.002 446.25 360.579 447.239 359.811C450.158 357.545 453.08 355.196 456.022 352.754C456.985 351.955 458.415 352.086 459.216 353.048C460.016 354.01 459.885 355.438 458.922 356.238ZM484.352 333.44C481.488 336.167 478.739 338.743 476.048 341.217C475.127 342.065 473.692 342.006 472.843 341.086C471.995 340.166 472.054 338.733 472.975 337.885C475.646 335.429 478.376 332.871 481.221 330.161C482.128 329.298 483.564 329.332 484.428 330.237C485.292 331.143 485.258 332.576 484.352 333.44ZM508.682 309.636L500.619 317.609C499.728 318.488 498.292 318.48 497.412 317.59C496.531 316.701 496.539 315.266 497.43 314.387L505.491 306.417C506.382 305.537 507.818 305.544 508.699 306.433C509.58 307.322 509.573 308.756 508.682 309.636ZM526.983 291.8L524.874 293.815C523.971 294.681 522.535 294.652 521.667 293.75C520.8 292.848 520.829 291.414 521.732 290.547C523.875 288.492 525.949 286.525 527.979 284.621L529.996 282.737C530.913 281.885 532.348 281.936 533.202 282.852C534.055 283.767 534.004 285.2 533.087 286.053C531.096 287.904 529.07 289.812 526.983 291.8ZM558.629 263.882C555.738 266.191 552.844 268.576 549.929 271.048C548.975 271.858 547.543 271.741 546.732 270.788C545.922 269.834 546.038 268.405 546.993 267.595C549.941 265.095 552.87 262.682 555.795 260.345C556.774 259.563 558.201 259.722 558.983 260.699C559.766 261.676 559.607 263.101 558.629 263.882ZM586.064 244.226C582.912 246.224 579.788 248.293 576.684 250.436C575.653 251.147 574.241 250.889 573.528 249.86C572.816 248.831 573.074 247.42 574.104 246.709C577.257 244.533 580.43 242.432 583.633 240.402C584.69 239.731 586.092 240.044 586.763 241.1C587.434 242.156 587.121 243.556 586.064 244.226ZM615.61 227.991C612.208 229.587 608.852 231.25 605.538 232.982C604.428 233.562 603.057 233.133 602.476 232.025C601.896 230.917 602.325 229.548 603.435 228.968C606.806 227.206 610.22 225.514 613.681 223.891C614.815 223.359 616.166 223.845 616.698 224.978C617.231 226.11 616.744 227.459 615.61 227.991ZM646.99 215.64C643.394 216.803 639.853 218.028 636.363 219.316C635.188 219.75 633.884 219.151 633.449 217.977C633.015 216.804 633.615 215.501 634.79 215.067C638.338 213.758 641.938 212.512 645.593 211.33C646.785 210.945 648.064 211.598 648.45 212.788C648.836 213.978 648.182 215.255 646.99 215.64ZM671.367 208.927C670.463 209.136 669.562 209.347 668.665 209.562C667.447 209.854 666.222 209.105 665.93 207.889C665.638 206.672 666.388 205.45 667.606 205.158C668.517 204.939 669.431 204.724 670.348 204.513C673.168 203.864 676.004 203.295 678.851 202.807C680.086 202.596 681.259 203.423 681.471 204.656C681.682 205.889 680.854 207.06 679.619 207.272C676.855 207.746 674.104 208.297 671.367 208.927ZM713.018 205.302C709.303 205.112 705.575 205.058 701.844 205.14C700.592 205.167 699.554 204.176 699.526 202.925C699.499 201.675 700.492 200.638 701.744 200.611C705.586 200.526 709.424 200.583 713.249 200.778C714.5 200.842 715.463 201.906 715.399 203.156C715.335 204.405 714.269 205.366 713.018 205.302ZM746.041 210.656C742.48 209.662 738.856 208.796 735.183 208.063C733.954 207.817 733.158 206.624 733.404 205.397C733.649 204.171 734.844 203.375 736.073 203.621C739.857 204.377 743.591 205.269 747.261 206.292C748.467 206.629 749.172 207.878 748.835 209.083C748.498 210.288 747.247 210.992 746.041 210.656ZM776.931 223.433C773.768 221.616 770.462 219.911 767.031 218.329C765.894 217.805 765.398 216.459 765.923 215.323C766.448 214.188 767.796 213.692 768.933 214.217C772.485 215.855 775.912 217.622 779.193 219.507C780.279 220.13 780.653 221.515 780.028 222.599C779.404 223.684 778.017 224.057 776.931 223.433ZM802.529 244.294C800.26 241.567 797.707 238.915 794.892 236.359C793.965 235.518 793.897 234.085 794.74 233.159C795.582 232.234 797.017 232.166 797.944 233.007C800.913 235.702 803.612 238.507 806.018 241.399C806.819 242.361 806.687 243.79 805.723 244.589C804.76 245.388 803.33 245.256 802.529 244.294ZM814.965 273.812C814.855 270.294 814.254 266.761 813.173 263.241C812.806 262.045 813.479 260.778 814.677 260.412C815.875 260.045 817.143 260.717 817.51 261.913C818.707 265.812 819.376 269.744 819.499 273.671C819.538 274.921 818.555 275.966 817.303 276.005C816.051 276.044 815.004 275.062 814.965 273.812ZM803.53 303.168C806.027 300.27 808.112 297.304 809.79 294.285C810.398 293.191 811.779 292.796 812.874 293.403C813.969 294.01 814.365 295.389 813.757 296.483C811.926 299.777 809.663 302.995 806.969 306.122C806.152 307.07 804.719 307.178 803.77 306.362C802.82 305.546 802.713 304.116 803.53 303.168ZM777.244 323.326C780.652 321.471 783.833 319.557 786.785 317.587C787.827 316.893 789.235 317.173 789.931 318.213C790.627 319.253 790.346 320.66 789.305 321.354C786.237 323.4 782.94 325.385 779.415 327.304C778.315 327.903 776.937 327.498 776.338 326.399C775.738 325.301 776.144 323.925 777.244 323.326ZM746.309 336.451C749.974 335.229 753.497 333.964 756.878 332.654C758.046 332.202 759.36 332.781 759.813 333.947C760.266 335.113 759.686 336.425 758.518 336.878C755.069 338.214 751.478 339.504 747.744 340.748C746.556 341.144 745.272 340.503 744.875 339.316C744.479 338.13 745.121 336.847 746.309 336.451ZM716.667 344.634C719.409 344.01 722.096 343.367 724.728 342.705C725.943 342.4 727.176 343.135 727.481 344.348C727.787 345.561 727.051 346.792 725.836 347.098C722.504 347.936 719.087 348.744 715.583 349.521L714.709 349.714C713.486 349.983 712.276 349.211 712.006 347.989C711.737 346.767 712.51 345.559 713.734 345.29L716.667 344.634ZM680.446 351.394C684.131 350.858 687.846 350.27 691.59 349.628C692.825 349.417 693.997 350.245 694.209 351.478C694.421 352.711 693.592 353.882 692.357 354.093C688.575 354.741 684.822 355.336 681.099 355.877C679.86 356.057 678.709 355.2 678.528 353.962C678.348 352.724 679.206 351.575 680.446 351.394ZM646.815 354.888C650.523 354.664 654.266 354.382 658.044 354.041C659.292 353.929 660.394 354.848 660.507 356.094C660.62 357.339 659.7 358.441 658.452 358.553C654.629 358.898 650.842 359.183 647.09 359.41C645.839 359.486 644.764 358.535 644.688 357.286C644.613 356.038 645.565 354.964 646.815 354.888ZM613.02 355.313C616.731 355.454 620.484 355.531 624.28 355.544C625.532 355.548 626.544 356.566 626.54 357.817C626.536 359.068 625.517 360.078 624.264 360.074C620.417 360.061 616.611 359.983 612.848 359.84C611.596 359.793 610.62 358.741 610.668 357.491C610.715 356.241 611.769 355.266 613.02 355.313ZM579.416 352.143C583.078 352.709 586.794 353.206 590.561 353.632C591.805 353.773 592.7 354.895 592.559 356.138C592.417 357.381 591.294 358.275 590.049 358.134C586.221 357.7 582.446 357.195 578.722 356.62C577.484 356.428 576.636 355.271 576.827 354.035C577.019 352.799 578.178 351.951 579.416 352.143ZM546.536 344.822C550.082 345.874 553.695 346.853 557.372 347.757C558.588 348.056 559.332 349.283 559.032 350.498C558.733 351.712 557.504 352.455 556.288 352.156C552.541 351.235 548.859 350.237 545.244 349.164C544.043 348.808 543.359 347.547 543.715 346.348C544.072 345.149 545.335 344.465 546.536 344.822ZM515.109 332.796C518.439 334.391 521.856 335.912 525.356 337.356C526.514 337.833 527.065 339.158 526.587 340.314C526.109 341.47 524.783 342.02 523.625 341.543C520.047 340.067 516.554 338.512 513.147 336.88C512.018 336.339 511.541 334.986 512.083 333.859C512.625 332.731 513.979 332.255 515.109 332.796ZM461.723 292.993C464.063 295.75 466.59 298.479 469.295 301.163C470.184 302.044 470.188 303.478 469.306 304.366C468.423 305.253 466.987 305.258 466.098 304.377C463.301 301.602 460.686 298.778 458.262 295.921C457.453 294.967 457.571 293.538 458.527 292.729C459.482 291.92 460.914 292.039 461.723 292.993ZM444.951 264.682C445.973 267.879 447.405 271.263 449.227 274.75C449.806 275.859 449.375 277.227 448.265 277.806C447.154 278.384 445.784 277.954 445.205 276.845C443.266 273.134 441.733 269.511 440.63 266.058C440.249 264.866 440.908 263.592 442.101 263.212C443.295 262.832 444.571 263.49 444.951 264.682ZM447.666 233.077C446.177 236.521 445.055 239.973 444.297 243.433C444.029 244.655 442.82 245.429 441.596 245.162C440.372 244.894 439.597 243.687 439.865 242.465C440.687 238.717 441.899 234.989 443.501 231.282C443.997 230.133 445.332 229.604 446.482 230.1C447.632 230.595 448.162 231.928 447.666 233.077ZM466.825 206.253C464.092 208.984 461.596 211.722 459.336 214.464C458.54 215.43 457.111 215.569 456.144 214.774C455.176 213.98 455.037 212.552 455.833 211.586C458.187 208.729 460.782 205.884 463.616 203.051C464.501 202.166 465.937 202.165 466.823 203.049C467.709 203.933 467.71 205.368 466.825 206.253ZM492.849 185.137C489.656 187.312 486.616 189.493 483.73 191.678C482.732 192.433 481.309 192.238 480.552 191.241C479.796 190.244 479.991 188.824 480.99 188.068C483.937 185.837 487.038 183.612 490.292 181.395C491.327 180.69 492.738 180.956 493.444 181.989C494.15 183.022 493.884 184.432 492.849 185.137Z" fill="#0D6EFD"/>
<rect x="1" y="1" width="838" height="473" rx="9" stroke="#0D6EFD" stroke-width="2"/>
<mask id="mask0_829_7764" style="mask-type:luminance" maskUnits="userSpaceOnUse" x="0" y="0" width="840" height="475">
<rect x="1" y="1" width="838" height="473" rx="9" fill="white" stroke="white" stroke-width="2"/>
</mask>
<g mask="url(#mask0_829_7764)">
<rect y="65" width="840" height="2" fill="#0D6EFD"/>
</g>
<g clip-path="url(#clip1_829_7764)">
<path fill-rule="evenodd" clip-rule="evenodd" d="M802 20C809.18 20 815 25.8203 815 33C815 40.1797 809.18 46 802 46C794.82 46 789 40.1797 789 33C789 25.8203 794.82 20 802 20ZM802 22C795.925 22 791 26.9249 791 33C791 39.0751 795.925 44 802 44C808.075 44 813 39.0751 813 33C813 26.9249 808.075 22 802 22Z" fill="#0D6EFD"/>
<path fill-rule="evenodd" clip-rule="evenodd" d="M39 37.6667C41.5732 37.6667 43.6667 35.5732 43.6667 33C43.6667 30.4268 41.5732 28.3333 39 28.3333C36.4268 28.3333 34.3333 30.4268 34.3333 33C34.3333 35.5732 36.4268 37.6667 39 37.6667ZM39 40C35.134 40 32 36.866 32 33C32 29.134 35.134 26 39 26C42.866 26 46 29.134 46 33C46 36.866 42.866 40 39 40ZM63 37.6667C65.5732 37.6667 67.6667 35.5732 67.6667 33C67.6667 30.4268 65.5732 28.3333 63 28.3333C60.4268 28.3333 58.3333 30.4268 58.3333 33C58.3333 35.5732 60.4268 37.6667 63 37.6667ZM63 40C59.134 40 56 36.866 56 33C56 29.134 59.134 26 63 26C66.866 26 70 29.134 70 33C70 36.866 66.866 40 63 40ZM91.6667 33C91.6667 35.5732 89.5732 37.6667 87 37.6667C84.4268 37.6667 82.3333 35.5732 82.3333 33C82.3333 30.4268 84.4268 28.3333 87 28.3333C89.5732 28.3333 91.6667 30.4268 91.6667 33ZM80 33C80 36.866 83.134 40 87 40C90.866 40 94 36.866 94 33C94 29.134 90.866 26 87 26C83.134 26 80 29.134 80 33Z" fill="#0D6EFD"/>
<rect x="210.365" y="17" width="417.619" height="32" rx="16" stroke="#0D6EFD" stroke-width="2"/>
</g>
</g>
<defs>
<clipPath id="clip0_829_7764">
<rect width="840" height="475" fill="white"/>
</clipPath>
<clipPath id="clip1_829_7764">
<rect width="783" height="34" fill="white" transform="translate(32 16)"/>
</clipPath>
</defs>
</svg>
