<svg width="24" height="24" viewBox="0 0 24 24" fill="none" xmlns="http://www.w3.org/2000/svg">
    <path fill-rule="evenodd" clip-rule="evenodd"
        d="M24 8.75C24 8.33579 23.5395 8 22.9714 8H1.02857L0.889 8.00685C0.386954 8.05651 0 8.3703 0 8.75C0 9.16421 0.460507 9.5 1.02857 9.5H22.9714L23.111 9.49315C23.613 9.44349 24 9.1297 24 8.75ZM23.75 16C23.75 15.5858 23.4142 15.25 23 15.25H7L6.89823 15.2568C6.53215 15.3065 6.25 15.6203 6.25 16C6.25 16.4142 6.58579 16.75 7 16.75H23L23.1018 16.7432C23.4678 16.6935 23.75 16.3797 23.75 16Z"
        fill="#212121" />
</svg>