<svg width="20" height="20" viewBox="0 0 20 20" fill="none" xmlns="http://www.w3.org/2000/svg">
<path d="M4.37496 9.16659C4.02978 9.16659 3.74996 9.44641 3.74996 9.79159C3.74996 10.108 3.98509 10.3695 4.29015 10.4109L4.37496 10.4166H16.0416C16.3868 10.4166 16.6666 10.1368 16.6666 9.79159C16.6666 9.47517 16.4315 9.21368 16.1264 9.17229L16.0416 9.16659H4.37496Z" fill="#212121"/>
<path d="M16.4836 9.34964C16.2617 9.12775 15.9145 9.10758 15.6698 9.28913L15.5997 9.34964L12.2664 12.683C12.0223 12.9271 12.0223 13.3228 12.2664 13.5669C12.4882 13.7888 12.8355 13.8089 13.0801 13.6274L13.1502 13.5669L16.4836 10.2335C16.7276 9.98945 16.7276 9.59372 16.4836 9.34964Z" fill="#212121"/>
<path d="M13.1502 6.01631C12.9062 5.77223 12.5104 5.77223 12.2664 6.01631C12.0445 6.2382 12.0243 6.58542 12.2058 6.8301L12.2664 6.90019L15.5997 10.2335C15.8438 10.4776 16.2395 10.4776 16.4836 10.2335C16.7055 10.0116 16.7256 9.66442 16.5441 9.41974L16.4836 9.34964L13.1502 6.01631Z" fill="#212121"/>
</svg>
