<svg width="32" height="32" viewBox="0 0 32 32" fill="none" xmlns="http://www.w3.org/2000/svg">
<path fill-rule="evenodd" clip-rule="evenodd" d="M4.25 7.66675C4.25 7.25253 4.58579 6.91675 5 6.91675H26.3333C26.7475 6.91675 27.0833 7.25253 27.0833 7.66675C27.0833 8.08096 26.7475 8.41675 26.3333 8.41675H5C4.58579 8.41675 4.25 8.08096 4.25 7.66675ZM4.25 15.6667C4.25 15.2525 4.58579 14.9167 5 14.9167H26.3333C26.7475 14.9167 27.0833 15.2525 27.0833 15.6667C27.0833 16.081 26.7475 16.4167 26.3333 16.4167H5C4.58579 16.4167 4.25 16.081 4.25 15.6667ZM5 22.9167C4.58579 22.9167 4.25 23.2525 4.25 23.6667C4.25 24.081 4.58579 24.4167 5 24.4167H26.3333C26.7475 24.4167 27.0833 24.081 27.0833 23.6667C27.0833 23.2525 26.7475 22.9167 26.3333 22.9167H5Z" fill="#212121"/>
</svg>
