<svg width="93" height="32" viewBox="0 0 93 32" fill="none" xmlns="http://www.w3.org/2000/svg">
<g id="Various/Branding/Normal">
<path id="Logo Color" fill-rule="evenodd" clip-rule="evenodd" d="M27.6444 9.60008C30.0385 9.60008 31.8044 10.086 32.9422 11.0579C34.0131 11.9725 34.58 13.5276 34.643 15.7231L34.6489 16.1423V27.9112H30.4178L29.8844 25.209L29.6079 25.514C27.8391 27.3966 25.7387 28.3379 23.3067 28.3379C21.6 28.3379 20.2074 27.8875 19.1289 26.9867C18.1223 26.1461 17.5854 24.9956 17.5183 23.5355L17.5111 23.2179V21.4045L17.5185 21.1046C17.5821 19.8256 18.0597 18.8174 18.9511 18.0801C19.8373 17.3471 21.0415 16.9524 22.5639 16.896L22.9511 16.889H29.28V16.1067L29.274 15.8452C29.2377 15.0868 29.0382 14.5636 28.6756 14.2756C28.2726 13.9556 27.5022 13.7956 26.3644 13.7956C24.5484 13.7956 22.2779 13.8764 19.5529 14.038L18.8622 14.0801L18.3644 10.489L19.3532 10.3201C22.2994 9.84008 25.0631 9.60008 27.6444 9.60008ZM44.1778 2.66675V8.32008L44.1721 8.86351C44.1416 10.2869 43.9895 11.5043 43.7156 12.5156C45.6119 10.5719 47.7215 9.60008 50.0444 9.60008C52.3437 9.60008 54.003 10.3171 55.0222 11.7512C56.0415 13.1853 56.5511 15.5497 56.5511 18.8445C56.5511 20.3142 56.4267 21.5882 56.1778 22.6667C55.9289 23.7453 55.5022 24.729 54.8978 25.6179C54.2933 26.5067 53.4044 27.1823 52.2311 27.6445C51.0578 28.1067 49.6059 28.3379 47.8756 28.3379C46.4296 28.3379 44.8119 28.2193 43.0222 27.9823C41.3953 27.7668 40.0867 27.473 39.0964 27.1008L38.8089 26.9867V2.66675H44.1778ZM78.3488 9.86675L82.209 16.8299H82.5732L86.4699 9.86675H92.0418L86.8341 18.6795L92.4424 28.0001H86.8341L82.5004 20.3841H82.2819L77.9482 28.0001H72.3398L77.9482 18.6795L72.7404 9.86675H78.3488ZM5.47556 2.91564C10.7852 2.91564 14.5185 3.04601 16.6756 3.30675L16.3911 7.32453H7.46667L7.21778 7.33147C6.65778 7.36388 6.24296 7.50971 5.97333 7.76897C5.66519 8.06527 5.51111 8.53341 5.51111 9.17342V13.4401H15.04V17.4579H5.51111V27.9112H0V8.07119L0.00761905 7.73115C0.0736508 6.28081 0.568889 5.13193 1.49333 4.28453C2.48889 3.37193 3.8163 2.91564 5.47556 2.91564ZM71.68 9.60008L71.1467 14.5423H69.6889L69.476 14.5472C68.369 14.5958 66.6267 15.009 64.2489 15.7867V27.9112H58.9156V10.1334H63.0756L63.5378 12.729L63.923 12.4083C66.2324 10.5361 68.5099 9.60008 70.7556 9.60008H71.68ZM47.9111 13.8667C46.9867 13.8667 45.8374 14.3062 44.4633 15.185L44.1422 15.3956V24.0356L44.6516 24.1474C45.6733 24.3506 46.7124 24.4318 47.7689 24.3912C49.0015 24.3438 49.8607 23.9349 50.3467 23.1645C50.8326 22.3942 51.0756 20.966 51.0756 18.8801C51.0756 16.9127 50.8681 15.5853 50.4533 14.8979C50.0385 14.2105 49.1911 13.8667 47.9111 13.8667ZM29.28 20.1245H24.48L24.2733 20.1311C23.34 20.192 22.8422 20.6794 22.78 21.5933L22.7733 21.7956V22.5067L22.7806 22.7179C22.858 23.8097 23.5549 24.3556 24.8711 24.3556C26.1917 24.3556 27.5533 23.8549 28.9556 22.8534L29.28 22.6134V20.1245Z" fill="#212121"/>
</g>
</svg>
