<svg width="32" height="32" viewBox="0 0 32 32" fill="none" xmlns="http://www.w3.org/2000/svg">
<path fill-rule="evenodd" clip-rule="evenodd" d="M15.6667 4C12.1689 4 9.33335 6.83553 9.33335 10.3333C9.33335 13.8311 12.1689 16.6667 15.6667 16.6667C19.1645 16.6667 22 13.8311 22 10.3333C22 6.83553 19.1645 4 15.6667 4ZM15.6667 6C18.0599 6 20 7.9401 20 10.3333C20 12.7266 18.0599 14.6667 15.6667 14.6667C13.2735 14.6667 11.3334 12.7266 11.3334 10.3333C11.3334 7.9401 13.2735 6 15.6667 6ZM24.6602 24.7101C24.5086 21.3469 21.734 18.6667 18.3334 18.6667H13L12.7101 18.6732C9.34688 18.8247 6.66669 21.5994 6.66669 25V27.6667L6.67582 27.8024C6.74203 28.2905 7.16043 28.6667 7.66669 28.6667C8.21897 28.6667 8.66669 28.219 8.66669 27.6667V25L8.67355 24.7541C8.80103 22.4753 10.6893 20.6667 13 20.6667H18.3334L18.5793 20.6735C20.8581 20.801 22.6667 22.6893 22.6667 25V27.6667L22.6758 27.8024C22.742 28.2905 23.1604 28.6667 23.6667 28.6667C24.219 28.6667 24.6667 28.219 24.6667 27.6667V25L24.6602 24.7101Z" fill="#212121"/>
</svg>
