<svg width="88" height="12" viewBox="0 0 88 12" fill="none" xmlns="http://www.w3.org/2000/svg">
<path d="M6.28613 3.76062C5.71647 3.76062 5.27669 3.95886 4.9668 4.35535C4.66146 4.75183 4.50879 5.30098 4.50879 6.00281C4.50879 6.76843 4.65234 7.33582 4.93945 7.70496C5.23112 8.0741 5.67546 8.25867 6.27246 8.25867C6.66439 8.25867 7.14518 8.15613 7.71484 7.95105V8.79871C7.49609 8.88985 7.27051 8.96733 7.03809 9.03113C6.81022 9.09493 6.53678 9.12683 6.21777 9.12683C5.33366 9.12683 4.65462 8.85339 4.18066 8.30652C3.70671 7.75509 3.46973 6.98718 3.46973 6.00281C3.46973 5.05033 3.72038 4.29382 4.22168 3.73328C4.72754 3.17273 5.41569 2.89246 6.28613 2.89246C6.86947 2.89246 7.43001 3.02917 7.96777 3.30261L7.57129 4.10925C7.0791 3.87683 6.65072 3.76062 6.28613 3.76062ZM0.865234 6.00281C0.865234 5.09135 1.0931 4.23686 1.54883 3.43933C2.00456 2.64181 2.63118 2.0129 3.42871 1.55261C4.22624 1.09233 5.08529 0.862183 6.00586 0.862183C6.91732 0.862183 7.77181 1.09005 8.56934 1.54578C9.36686 2.00151 9.99577 2.62813 10.4561 3.42566C10.9163 4.22319 11.1465 5.08223 11.1465 6.00281C11.1465 6.90059 10.9255 7.74369 10.4834 8.5321C10.0413 9.32052 9.42155 9.9517 8.62402 10.4257C7.8265 10.8996 6.95378 11.1366 6.00586 11.1366C5.0625 11.1366 4.19206 10.9019 3.39453 10.4325C2.59701 9.95854 1.97493 9.32735 1.52832 8.53894C1.08626 7.75053 0.865234 6.90515 0.865234 6.00281ZM1.58301 6.00281C1.58301 6.79122 1.78125 7.5295 2.17773 8.21765C2.57422 8.90125 3.11426 9.44128 3.79785 9.83777C4.486 10.2297 5.22201 10.4257 6.00586 10.4257C6.79883 10.4257 7.53483 10.2274 8.21387 9.83093C8.8929 9.43445 9.43066 8.89897 9.82715 8.22449C10.2282 7.54545 10.4287 6.80489 10.4287 6.00281C10.4287 5.20984 10.2305 4.47384 9.83398 3.7948C9.4375 3.11576 8.89974 2.578 8.2207 2.18152C7.54622 1.78048 6.80794 1.57996 6.00586 1.57996C5.21289 1.57996 4.47689 1.7782 3.79785 2.17468C3.11882 2.57117 2.57878 3.10893 2.17773 3.78796C1.78125 4.46244 1.58301 5.20072 1.58301 6.00281ZM22.7197 10.9999H16.1504V10.0223L18.7822 7.37683C19.5843 6.56563 20.113 5.98686 20.3682 5.6405C20.6234 5.29415 20.8148 4.95691 20.9424 4.62878C21.07 4.30066 21.1338 3.94747 21.1338 3.56921C21.1338 3.03601 20.972 2.61446 20.6484 2.30457C20.3249 1.99011 19.876 1.83289 19.3018 1.83289C18.887 1.83289 18.4928 1.90125 18.1191 2.03796C17.75 2.17468 17.3376 2.42306 16.8818 2.78308L16.2803 2.01062C17.2008 1.245 18.2035 0.862183 19.2881 0.862183C20.2269 0.862183 20.9629 1.10372 21.4961 1.58679C22.0293 2.06531 22.2959 2.71016 22.2959 3.52136C22.2959 4.15483 22.1182 4.78145 21.7627 5.40125C21.4072 6.02104 20.7419 6.80489 19.7666 7.75281L17.5791 9.89246V9.94714H22.7197V10.9999ZM30.7861 5.98914C30.7861 7.71635 30.5127 9.00606 29.9658 9.85828C29.4235 10.7105 28.5918 11.1366 27.4707 11.1366C26.3952 11.1366 25.5771 10.7014 25.0166 9.83093C24.4561 8.95593 24.1758 7.67533 24.1758 5.98914C24.1758 4.24825 24.4469 2.95626 24.9893 2.11316C25.5316 1.27006 26.3587 0.848511 27.4707 0.848511C28.5553 0.848511 29.3779 1.28829 29.9385 2.16785C30.5036 3.0474 30.7861 4.32117 30.7861 5.98914ZM25.3242 5.98914C25.3242 7.44291 25.4951 8.50248 25.8369 9.16785C26.1787 9.82865 26.7233 10.1591 27.4707 10.1591C28.2272 10.1591 28.7741 9.8241 29.1113 9.15417C29.4531 8.4797 29.624 7.42468 29.624 5.98914C29.624 4.55359 29.4531 3.50313 29.1113 2.83777C28.7741 2.16785 28.2272 1.83289 27.4707 1.83289C26.7233 1.83289 26.1787 2.16329 25.8369 2.8241C25.4951 3.48035 25.3242 4.53536 25.3242 5.98914ZM36.3779 10.9999H35.2705V3.87683C35.2705 3.28438 35.2887 2.72384 35.3252 2.19519C35.2295 2.29089 35.1224 2.39115 35.0039 2.49597C34.8854 2.60079 34.3431 3.04513 33.377 3.82898L32.7754 3.04968L35.4209 1.00574H36.3779V10.9999ZM46.7549 5.27136C46.7549 9.18152 45.2419 11.1366 42.2158 11.1366C41.6872 11.1366 41.2679 11.091 40.958 10.9999V10.0223C41.3226 10.1408 41.7373 10.2001 42.2021 10.2001C43.2959 10.2001 44.1208 9.86283 44.6768 9.18835C45.2373 8.50932 45.5426 7.47026 45.5928 6.07117H45.5107C45.2601 6.44942 44.9274 6.73881 44.5127 6.93933C44.098 7.13529 43.6309 7.23328 43.1113 7.23328C42.2272 7.23328 41.5254 6.96895 41.0059 6.44031C40.4863 5.91166 40.2266 5.17338 40.2266 4.22546C40.2266 3.1864 40.516 2.36609 41.0947 1.76453C41.6781 1.16296 42.4437 0.862183 43.3916 0.862183C44.0706 0.862183 44.6631 1.03764 45.1689 1.38855C45.6794 1.7349 46.0713 2.24304 46.3447 2.91296C46.6182 3.57833 46.7549 4.36446 46.7549 5.27136ZM43.3916 1.83289C42.7399 1.83289 42.2363 2.04252 41.8809 2.46179C41.5254 2.88106 41.3477 3.4644 41.3477 4.21179C41.3477 4.86804 41.5117 5.38529 41.8398 5.76355C42.168 6.13725 42.667 6.3241 43.3369 6.3241C43.7516 6.3241 44.1322 6.23979 44.4785 6.07117C44.8294 5.90255 45.1051 5.6724 45.3057 5.38074C45.5062 5.08907 45.6064 4.78373 45.6064 4.46472C45.6064 3.98621 45.513 3.54415 45.3262 3.13855C45.1393 2.73295 44.8773 2.41394 44.54 2.18152C44.2074 1.9491 43.8245 1.83289 43.3916 1.83289ZM53.6865 10.9999H52.5244V1.00574H58.0957V2.03796H53.6865V5.69519H57.8291V6.72742H53.6865V10.9999ZM64.1934 10.9999L63.9678 9.93347H63.9131C63.5394 10.4029 63.1657 10.7219 62.792 10.8905C62.4229 11.0546 61.9603 11.1366 61.4043 11.1366C60.6615 11.1366 60.0781 10.9452 59.6543 10.5624C59.235 10.1796 59.0254 9.63497 59.0254 8.92859C59.0254 7.41557 60.2354 6.6226 62.6553 6.54968L63.9268 6.50867V6.04382C63.9268 5.45593 63.7992 5.02299 63.5439 4.745C63.2933 4.46244 62.89 4.32117 62.334 4.32117C61.7096 4.32117 61.0033 4.51257 60.2148 4.89539L59.8662 4.02722C60.2354 3.8267 60.6387 3.66947 61.0762 3.55554C61.5182 3.44161 61.9603 3.38464 62.4023 3.38464C63.2956 3.38464 63.9564 3.58289 64.3848 3.97937C64.8177 4.37585 65.0342 5.0116 65.0342 5.8866V10.9999H64.1934ZM61.6299 10.2001C62.3363 10.2001 62.89 10.0064 63.291 9.61902C63.6966 9.23165 63.8994 8.68933 63.8994 7.99207V7.31531L62.7646 7.36316C61.8623 7.39506 61.2106 7.53634 60.8096 7.78699C60.4131 8.03308 60.2148 8.41817 60.2148 8.94226C60.2148 9.35242 60.3379 9.66459 60.584 9.87878C60.8346 10.093 61.1833 10.2001 61.6299 10.2001ZM70.8652 3.38464C71.8496 3.38464 72.613 3.72188 73.1553 4.39636C73.7021 5.06628 73.9756 6.01648 73.9756 7.24695C73.9756 8.47742 73.6999 9.43445 73.1484 10.118C72.6016 10.7971 71.8405 11.1366 70.8652 11.1366C70.3776 11.1366 69.931 11.0477 69.5254 10.87C69.1243 10.6877 68.7871 10.4097 68.5137 10.036H68.4316L68.1924 10.9999H67.3789V0.363159H68.5137V2.94714C68.5137 3.52592 68.4954 4.04545 68.459 4.50574H68.5137C69.0423 3.75834 69.8262 3.38464 70.8652 3.38464ZM70.7012 4.33484C69.9264 4.33484 69.3682 4.55815 69.0264 5.00476C68.6846 5.44682 68.5137 6.19421 68.5137 7.24695C68.5137 8.29968 68.6891 9.05391 69.04 9.50964C69.391 9.96082 69.9538 10.1864 70.7285 10.1864C71.4258 10.1864 71.9453 9.93347 72.2871 9.42761C72.6289 8.9172 72.7998 8.18575 72.7998 7.23328C72.7998 6.25802 72.6289 5.53113 72.2871 5.05261C71.9453 4.5741 71.4167 4.33484 70.7012 4.33484ZM79.3828 3.37097C79.7155 3.37097 80.014 3.39832 80.2783 3.453L80.1211 4.50574C79.8112 4.43738 79.5378 4.4032 79.3008 4.4032C78.6947 4.4032 78.1751 4.64929 77.7422 5.14148C77.3138 5.63367 77.0996 6.24662 77.0996 6.98035V10.9999H75.9648V3.50769H76.9014L77.0312 4.89539H77.0859C77.3639 4.40776 77.6989 4.03178 78.0908 3.76746C78.4827 3.50313 78.9134 3.37097 79.3828 3.37097ZM83.4844 7.16492L80.8799 3.50769H82.1719L84.1475 6.37878L86.1162 3.50769H87.3945L84.79 7.16492L87.5312 10.9999H86.2461L84.1475 7.96472L82.0283 10.9999H80.7432L83.4844 7.16492Z" fill="#807E7E"/>
</svg>
