<svg width="24" height="24" viewBox="0 0 24 24" fill="none" xmlns="http://www.w3.org/2000/svg">
<path fill-rule="evenodd" clip-rule="evenodd" d="M20.6776 8.37122L20.6825 7.88048L20.6874 7.94648C20.6894 7.95926 20.6917 7.96177 20.6936 7.96104L21.0487 7.25338L21.502 6.36804L21.7854 5.79294L21.9104 5.52795C22.1495 5.01258 22.3226 4.58394 22.4297 4.22383L22.4525 4.13848L22.459 4.12476C22.6187 3.68045 22.3294 3.11248 21.7505 3.11248L21.6392 3.12073L21.5324 3.1448L21.4215 3.18898C21.2328 3.28143 21.0384 3.36562 20.8322 3.44485L20.3937 3.60057L20.0186 3.71759L19.5404 3.85353L18.9685 4.01048L18.8465 3.90376C17.5936 2.86988 15.8887 2.74651 14.1085 3.4131L13.9002 3.49637C12.1876 4.22528 11.0642 5.81989 11.0037 7.64294L11.0015 8.09048L10.8204 8.08122C8.21875 7.88988 5.91633 6.58792 4.3613 4.41588C4.04182 3.96963 3.36695 4.0064 3.09783 4.48472L3.00546 4.66069L2.95771 4.75755C2.258 6.20407 1.79661 7.96884 1.96595 9.8281L1.99449 10.0926C2.27935 12.3722 3.54176 14.3242 5.9406 15.766L6.20648 15.9205L6.03363 16.0173C4.5632 16.8102 3.2369 17.1597 1.78065 17.103C0.988398 17.0722 0.696389 18.1316 1.39255 18.511C4.93562 20.4421 8.73172 21.0369 11.9946 20.0897C15.9733 18.9339 18.9997 15.9555 20.1585 11.8303C20.4701 10.6997 20.644 9.53909 20.6776 8.37122ZM18.1902 5.34989C18.3831 5.56767 18.6847 5.65416 18.9638 5.57181L20.1342 5.2452L20.4235 5.16148L20.2461 5.52632L19.4169 7.15154L19.316 7.36071C19.2188 7.57203 19.1892 7.68133 19.1842 7.81925L19.1835 7.8805C19.1901 9.07778 19.032 10.2722 18.7134 11.4283C17.6977 15.044 15.0638 17.6361 11.5763 18.6493L11.2683 18.7329C9.32323 19.2249 7.14591 19.1042 4.95507 18.4134L4.51448 18.2665L4.7669 18.192C5.87082 17.8419 6.97487 17.271 8.16727 16.4767C8.66131 16.1476 8.59536 15.4022 8.0512 15.165C5.05076 13.8569 3.66795 11.9778 3.45976 9.69204L3.4378 9.36241C3.3958 8.37519 3.56557 7.40556 3.85563 6.52688L3.94248 6.27748L3.97849 6.31945C5.97884 8.49347 8.74678 9.67957 11.7707 9.60223C12.1773 9.59183 12.5015 9.25922 12.5015 8.85248V7.85248C12.483 6.49672 13.3196 5.31021 14.6345 4.81785C16.1153 4.26336 17.3766 4.43183 18.1902 5.34989Z" fill="#212121"/>
</svg>
