<svg width="24" height="24" viewBox="0 0 24 24" fill="none" xmlns="http://www.w3.org/2000/svg">
<path fill-rule="evenodd" clip-rule="evenodd" d="M7.75 2.99988H15.75C18.3734 2.99988 20.5 5.12653 20.5 7.74988V15.7499C20.5 18.3732 18.3734 20.4999 15.75 20.4999H7.75C5.12665 20.4999 3 18.3732 3 15.7499V7.74988C3 5.12653 5.12665 2.99988 7.75 2.99988ZM15.75 4.49988H7.75C5.95507 4.49988 4.5 5.95495 4.5 7.74988V15.7499C4.5 17.5448 5.95507 18.9999 7.75 18.9999H15.75C17.5449 18.9999 19 17.5448 19 15.7499V7.74988C19 5.95495 17.5449 4.49988 15.75 4.49988ZM8 11.7499C8 9.67881 9.67893 7.99988 11.75 7.99988C13.8211 7.99988 15.5 9.67881 15.5 11.7499C15.5 13.8209 13.8211 15.4999 11.75 15.4999C9.67893 15.4999 8 13.8209 8 11.7499ZM14 11.7499C14 10.5072 12.9926 9.49988 11.75 9.49988C10.5074 9.49988 9.5 10.5072 9.5 11.7499C9.5 12.9925 10.5074 13.9999 11.75 13.9999C12.9926 13.9999 14 12.9925 14 11.7499ZM16.9932 7.14811C16.9435 6.78203 16.6297 6.49988 16.25 6.49988C15.8358 6.49988 15.5 6.83566 15.5 7.25088L15.5068 7.35265C15.5565 7.71872 15.8703 8.00088 16.25 8.00088C16.6642 8.00088 17 7.66509 17 7.24988L16.9932 7.14811Z" fill="#212121"/>
</svg>
