<svg width="24" height="24" viewBox="0 0 24 24" fill="none" xmlns="http://www.w3.org/2000/svg">
<path fill-rule="evenodd" clip-rule="evenodd" d="M7.25 4.99988C9.32107 4.99988 11 6.67881 11 8.74988C11 9.95243 10.4339 11.0228 9.55376 11.709L9.498 11.7499L9.55376 11.7907C10.3851 12.4389 10.9361 13.4296 10.9948 14.5507L11 14.7499C11 16.7541 9.42764 18.3912 7.44916 18.4947L7.25 18.4999H2.75C2.3703 18.4999 2.05651 18.2177 2.00685 17.8516L2 17.7499V11.7499V5.74988C2 5.37018 2.28215 5.05639 2.64823 5.00672L2.75 4.99988H7.25ZM3.5 12.4999V16.9999H7.25C8.44086 16.9999 9.41564 16.0747 9.49481 14.9039L9.5 14.7499C9.5 13.559 8.57484 12.5842 7.40405 12.5051L7.25 12.4999H3.5ZM7.28014 11.0005C7.27014 11.0001 7.2601 10.9999 7.25 10.9999H3.5V6.49988H7.25L7.40405 6.50507C8.57484 6.58423 9.5 7.55901 9.5 8.74988C9.5 9.94074 8.57484 10.9155 7.40405 10.9947L7.28014 11.0005ZM21.5 12.7499C21.5 10.4027 19.5972 8.49988 17.25 8.49988C14.9028 8.49988 13 10.4027 13 12.7499V14.7499L13.007 14.8522L13.0405 15.0581C13.3727 16.827 14.7896 18.2045 16.5843 18.4748C18.4481 18.7555 20.2741 17.7751 21.0699 16.0665C21.2448 15.691 21.0821 15.2449 20.7067 15.07C20.3312 14.8951 19.885 15.0577 19.7101 15.4332C19.1952 16.5388 18.0137 17.1731 16.8077 16.9915L16.6289 16.9585C15.5684 16.7267 14.7422 15.8901 14.5237 14.8268L14.5 14.6929V13.4999H20.75L20.8518 13.493C21.2178 13.4434 21.5 13.1296 21.5 12.7499ZM14.6207 11.9417C14.9659 10.8173 16.0125 9.99988 17.25 9.99988L17.4175 10.0049C18.5812 10.0748 19.5498 10.8684 19.8793 11.9417L19.895 11.9999H14.604L14.6207 11.9417ZM19.5 5.74988C19.5 5.33566 19.1642 4.99988 18.75 4.99988H15.75L15.6482 5.00672C15.2822 5.05639 15 5.37018 15 5.74988C15 6.16409 15.3358 6.49988 15.75 6.49988H18.75L18.8518 6.49303C19.2178 6.44337 19.5 6.12957 19.5 5.74988Z" fill="#212121"/>
</svg>
