<svg width="19" height="24" viewBox="0 0 19 24" fill="none" xmlns="http://www.w3.org/2000/svg">
<path fill-rule="evenodd" clip-rule="evenodd" d="M2.64052 16.7188C4.09884 16.7188 5.28104 17.901 5.28104 19.3594C5.28104 20.8177 4.09884 21.9999 2.64052 21.9999C1.1822 21.9999 0 20.8177 0 19.3594C0 17.901 1.1822 16.7188 2.64052 16.7188ZM16.3595 16.7188C17.8178 16.7188 19 17.901 19 19.3594C19 20.8177 17.8178 21.9999 16.3595 21.9999C14.9012 21.9999 13.719 20.8177 13.719 19.3594C13.719 17.901 14.9012 16.7188 16.3595 16.7188ZM2.64052 9.85936C4.09884 9.85936 5.28104 11.0416 5.28104 12.4999C5.28104 13.9582 4.09884 15.1404 2.64052 15.1404C1.1822 15.1404 0 13.9582 0 12.4999C0 11.0416 1.1822 9.85936 2.64052 9.85936ZM9.5 9.85936C10.9583 9.85936 12.1405 11.0416 12.1405 12.4999C12.1405 13.9582 10.9583 15.1404 9.5 15.1404C8.04168 15.1404 6.85948 13.9582 6.85948 12.4999C6.85948 11.0416 8.04168 9.85936 9.5 9.85936ZM2.64052 2.99988C4.09884 2.99988 5.28104 4.18208 5.28104 5.6404C5.28104 7.09871 4.09884 8.28092 2.64052 8.28092C1.1822 8.28092 0 7.09871 0 5.6404C0 4.18208 1.1822 2.99988 2.64052 2.99988ZM16.3595 2.99988C17.8178 2.99988 19 4.18208 19 5.6404C19 7.09871 17.8178 8.28092 16.3595 8.28092C14.9012 8.28092 13.719 7.09871 13.719 5.6404C13.719 4.18208 14.9012 2.99988 16.3595 2.99988ZM9.5 2.99988C10.9583 2.99988 12.1405 4.18208 12.1405 5.6404C12.1405 7.09871 10.9583 8.28092 9.5 8.28092C8.04168 8.28092 6.85948 7.09871 6.85948 5.6404C6.85948 4.18208 8.04168 2.99988 9.5 2.99988Z" fill="#212121"/>
</svg>
