<svg width="24" height="24" viewBox="0 0 24 24" fill="none" xmlns="http://www.w3.org/2000/svg">
<path fill-rule="evenodd" clip-rule="evenodd" d="M5.44444 2C5.73775 2 5.99236 2.19084 6.07941 2.46336L6.10204 2.55707L6.74933 6.44444H19.6667C20.0412 6.44444 20.3355 6.75062 20.3334 7.11361L20.3266 7.20539L19.4377 13.4276L19.4067 13.5545C18.934 14.8988 17.6626 15.7875 16.284 15.783L16.1111 15.7778L9.92664 15.7767C8.50396 15.8574 7.19462 15.0257 6.65651 13.7201L6.59331 13.5545L6.56463 13.4429L5.55822 7.40444L5.54128 7.37061C5.51879 7.31744 5.503 7.26074 5.49497 7.20157L5.48889 7.11111C5.48889 7.08043 5.49096 7.05023 5.49497 7.02065L4.87911 3.33333H3.66667C3.32916 3.33333 3.05023 3.08253 3.00609 2.75713L3 2.66667C3 2.32916 3.2508 2.05023 3.5762 2.00609L3.66667 2H5.44444ZM18.8978 7.77778H6.97156L7.86756 13.1547L7.90859 13.2573C8.222 13.9669 8.92151 14.432 9.72655 14.4474L9.88889 14.4444L16.1489 14.4455C16.9857 14.493 17.7572 14.0142 18.0914 13.2573L18.128 13.1627L18.8978 7.77778ZM6.55556 19.0556C6.55556 17.7055 7.64997 16.6111 9 16.6111C10.35 16.6111 11.4444 17.7055 11.4444 19.0556C11.4444 20.4056 10.35 21.5 9 21.5C7.64997 21.5 6.55556 20.4056 6.55556 19.0556ZM10.1111 19.0556C10.1111 18.4419 9.61365 17.9444 9 17.9444C8.38635 17.9444 7.88889 18.4419 7.88889 19.0556C7.88889 19.6692 8.38635 20.1667 9 20.1667C9.61365 20.1667 10.1111 19.6692 10.1111 19.0556ZM13.6667 19.0556C13.6667 17.7055 14.7611 16.6111 16.1111 16.6111C17.4611 16.6111 18.5556 17.7055 18.5556 19.0556C18.5556 20.4056 17.4611 21.5 16.1111 21.5C14.7611 21.5 13.6667 20.4056 13.6667 19.0556ZM17.2222 19.0556C17.2222 18.4419 16.7248 17.9444 16.1111 17.9444C15.4975 17.9444 15 18.4419 15 19.0556C15 19.6692 15.4975 20.1667 16.1111 20.1667C16.7248 20.1667 17.2222 19.6692 17.2222 19.0556Z" fill="#212121"/>
</svg>
