<svg width="133" height="27" viewBox="0 0 133 27" fill="none" xmlns="http://www.w3.org/2000/svg">
<path fill-rule="evenodd" clip-rule="evenodd" d="M68.2765 12.8098C67.1819 12.8098 66.3928 13.1692 65.5927 13.5353V21.82C66.3591 21.8931 66.7984 21.8931 67.5255 21.8931C70.1528 21.8931 70.513 20.6884 70.513 19.0064V15.0496C70.513 13.8074 70.1013 12.8098 68.2765 12.8098ZM50.8276 12.3577C49.0047 12.3577 48.5887 13.3596 48.5887 14.6005V15.2978H53.0641V14.6005C53.0641 13.3596 52.6481 12.3577 50.8276 12.3577ZM17.0256 20.9808C17.0256 21.9625 17.4883 22.4724 18.5093 22.4724C19.6045 22.4724 20.2531 22.1149 21.0526 21.7475V19.7823H18.6578C17.5239 19.7823 17.0256 19.9936 17.0256 20.9808ZM85.2499 12.8098C83.4239 12.8098 82.7913 13.8074 82.7913 15.0496V19.5827C82.7913 20.8279 83.4239 21.8286 85.2499 21.8286C87.071 21.8286 87.7085 20.8279 87.7085 19.5827V15.0496C87.7079 13.8074 87.0704 12.8098 85.2499 12.8098ZM8.07723 26.0637H2.70966V13.0561H0.02771V8.57407H2.71027V5.88213C2.71027 2.2251 4.22397 0.0510254 8.52637 0.0510254H12.1084V4.53432H9.86949C8.19442 4.53432 8.08398 5.16092 8.08398 6.32997L8.07723 8.57346H12.133L11.6587 13.0555H8.07723V26.0637ZM26.4214 26.0975H21.9478L21.7545 24.9647C19.7119 26.0975 17.8889 26.2812 16.6863 26.2812C13.4055 26.2812 11.6593 24.0868 11.6593 21.0521C11.6593 17.4719 13.697 16.1941 17.3422 16.1941H21.0526V15.42C21.0526 13.5924 20.8433 13.0561 18.0362 13.0561H13.4466L13.8952 8.57407H18.9118C25.0709 8.57407 26.4214 10.5221 26.4214 15.4563V26.0975ZM41.6338 13.3848C38.85 12.9069 38.0505 12.8018 36.711 12.8018C34.3052 12.8018 33.5781 13.3332 33.5781 15.3789V19.2485C33.5781 21.2941 34.3052 21.828 36.711 21.828C38.0505 21.828 38.85 21.7211 41.6338 21.2413V25.6134C39.1954 26.1608 37.6069 26.3045 36.2644 26.3045C30.5016 26.3045 28.2112 23.2704 28.2112 18.8872V15.7475C28.2112 11.3606 30.5016 8.32097 36.2644 8.32097C37.6069 8.32097 39.1954 8.46534 41.6338 9.01515V13.3848ZM58.4311 18.8872H48.5881V19.2485C48.5881 21.2941 49.3158 21.828 51.721 21.828C53.8832 21.828 55.203 21.7211 57.9819 21.2413V25.6134C55.3018 26.1608 53.9053 26.3045 51.2761 26.3045C45.5128 26.3045 43.2211 23.2704 43.2211 18.8872V15.2972C43.2211 11.462 44.9213 8.32097 50.827 8.32097C56.7327 8.32097 58.4311 11.4257 58.4311 15.2972V18.8872ZM75.8794 18.9702C75.8794 23.2065 74.67 26.2965 67.3439 26.2965C64.6981 26.2965 63.1464 26.0637 60.2264 25.614V1.39761L65.5921 0.50132V8.97215C66.7518 8.5409 68.2526 8.32159 69.6184 8.32159C74.9848 8.32159 75.8787 10.7303 75.8787 14.6011V18.9702H75.8794ZM93.0798 19.0623C93.0798 22.7169 91.5728 26.2615 85.2677 26.2615C78.9595 26.2615 77.4243 22.7169 77.4243 19.0623V15.5337C77.4243 11.8773 78.9595 8.33203 85.2677 8.33203C91.5728 8.33203 93.0798 11.8773 93.0798 15.5337V19.0623ZM110.269 19.0623C110.269 22.7169 108.76 26.2615 102.456 26.2615C96.1477 26.2615 94.6125 22.7169 94.6125 19.0623V15.5337C94.6125 11.8773 96.1477 8.33203 102.456 8.33203C108.76 8.33203 110.269 11.8773 110.269 15.5337V19.0623ZM127.908 26.0637H122.092L117.173 17.8423V26.0637H111.806V1.397L117.173 0.500706V16.3802L122.092 8.57407H127.908L122.538 17.0928L127.908 26.0637ZM102.437 12.8098C100.615 12.8098 99.9819 13.8074 99.9819 15.0496V19.5827C99.9819 20.8279 100.615 21.8286 102.437 21.8286C104.258 21.8286 104.902 20.8279 104.902 19.5827V15.0496C104.902 13.8074 104.258 12.8098 102.437 12.8098ZM130.972 22.9958C131.876 22.9958 132.595 23.7336 132.595 24.6551C132.595 25.5907 131.875 26.3205 130.965 26.3205C130.059 26.3205 129.325 25.5907 129.325 24.6551C129.325 23.7336 130.059 22.9958 130.965 22.9958H130.972ZM130.965 23.2538C130.237 23.2538 129.641 23.881 129.641 24.6551C129.641 25.4432 130.237 26.0625 130.972 26.0625C131.707 26.0698 132.294 25.4432 132.294 24.6624C132.294 23.8816 131.707 23.2538 130.972 23.2538H130.965ZM130.656 25.6208H130.362V23.7692C130.517 23.7477 130.664 23.7262 130.885 23.7262C131.165 23.7262 131.347 23.7852 131.46 23.8657C131.568 23.9474 131.627 24.0721 131.627 24.2484C131.627 24.4929 131.466 24.6397 131.268 24.6993V24.7134C131.429 24.7435 131.539 24.8897 131.576 25.1619C131.619 25.45 131.664 25.56 131.693 25.6202H131.384C131.341 25.56 131.296 25.391 131.259 25.1471C131.216 24.9119 131.097 24.8234 130.861 24.8234H130.657V25.6208H130.656ZM130.656 24.5961H130.87C131.112 24.5961 131.317 24.507 131.317 24.2779C131.317 24.1157 131.201 23.9541 130.87 23.9541C130.774 23.9541 130.707 23.9615 130.656 23.9683V24.5961Z" fill="#C4C4C4"/>
</svg>
