<svg width="81" height="25" viewBox="0 0 81 25" fill="none" xmlns="http://www.w3.org/2000/svg">
<path fill-rule="evenodd" clip-rule="evenodd" d="M35.0408 24.5609H28.4526L32.5702 0.436921H39.159L35.0408 24.5609ZM22.9102 0.436921L16.6293 17.0296L15.8861 13.4565L15.8868 13.4578L13.6699 2.60901C13.6699 2.60901 13.4019 0.436921 10.5447 0.436921H0.161148L0.0393066 0.845397C0.0393066 0.845397 3.21462 1.47521 6.93077 3.60277L12.6546 24.5615H19.519L30.0007 0.436921H22.9102ZM74.7298 24.5609H80.7792L75.5049 0.436276H70.2089C67.7632 0.436276 67.1676 2.23409 67.1676 2.23409L57.3418 24.5609H64.2095L65.583 20.9775H73.9582L74.7298 24.5609ZM67.4803 16.0274L70.9419 6.99964L72.8894 16.0274H67.4803ZM57.8569 6.23818L58.7971 1.0577C58.7971 1.0577 55.8959 0.00585938 52.8716 0.00585938C49.6022 0.00585938 41.8382 1.36809 41.8382 7.99211C41.8382 14.2244 50.9506 14.3019 50.9506 17.5755C50.9506 20.8491 42.7771 20.2625 40.0796 18.1982L39.1002 23.6149C39.1002 23.6149 42.0419 24.9771 46.5365 24.9771C51.0325 24.9771 57.8149 22.7579 57.8149 16.7179C57.8149 10.4455 48.6207 9.86155 48.6207 7.13451C48.6214 4.40682 55.0376 4.75722 57.8569 6.23818Z" fill="#C4C4C4"/>
</svg>
